STARTFONT 2.1
COMMENT 
COMMENT Converted from TrueType font "JetBrainsMono-Bold.ttf" by "ttf2bdf 2.8".
COMMENT 
FONT -FreeType-JetBrains Mono-Bold-R-Normal--25-180-100-100-P-123-ISO10646-1
SIZE 18 100 100
FONTBOUNDINGBOX 35 39 -16 -10
STARTPROPERTIES 20
FOUNDRY "FreeType"
FAMILY_NAME "JetBrains Mono"
WEIGHT_NAME "Bold"
SLANT "R"
SETWIDTH_NAME "Normal"
ADD_STYLE_NAME ""
PIXEL_SIZE 25
POINT_SIZE 180
RESOLUTION_X 100
RESOLUTION_Y 100
SPACING "P"
AVERAGE_WIDTH 123
CHARSET_REGISTRY "ISO10646"
CHARSET_ENCODING "1"
FONT_ASCENT 25
FONT_DESCENT 7
COPYRIGHT "Copyright 2020 The JetBrains Mono Project Authors (https://github.com/JetBrains/JetBrainsMono)"
_TTF_FONTFILE "JetBrainsMono-Bold.ttf"
_TTF_PSNAME "JetBrainsMono-Bold"
_GBDFED_INFO "Edited with gbdfed 1.6."
ENDPROPERTIES
CHARS 1317
STARTCHAR 000D
ENCODING 13
SWIDTH 600 0
DWIDTH 15 0
BBX 0 0 0 0
BITMAP
ENDCHAR
STARTCHAR 0020
ENCODING 32
SWIDTH 600 0
DWIDTH 15 0
BBX 0 0 0 0
BITMAP
ENDCHAR
STARTCHAR 0021
ENCODING 33
SWIDTH 600 0
DWIDTH 15 0
BBX 5 18 5 0
BITMAP
70
70
70
70
70
70
70
70
70
70
70
70
70
00
00
70
F8
70
ENDCHAR
STARTCHAR 0022
ENCODING 34
SWIDTH 600 0
DWIDTH 15 0
BBX 9 7 3 11
BITMAP
E380
E380
E380
E380
E380
E380
E380
ENDCHAR
STARTCHAR 0023
ENCODING 35
SWIDTH 600 0
DWIDTH 15 0
BBX 13 18 1 0
BITMAP
0C30
0C30
0C70
1C60
7FF8
7FF8
7FF8
18E0
18E0
38C0
30C0
FFF0
FFF0
FFF0
31C0
7180
6180
6180
ENDCHAR
STARTCHAR 0024
ENCODING 36
SWIDTH 600 0
DWIDTH 15 0
BBX 12 25 2 -3
BITMAP
0400
0400
0400
0E00
7FC0
7FE0
F5E0
E4E0
E400
E400
FC00
7F00
3FC0
0FE0
05E0
04E0
04F0
E4F0
F5E0
FFE0
7FC0
0E00
0400
0400
0400
ENDCHAR
STARTCHAR 0025
ENCODING 37
SWIDTH 600 0
DWIDTH 15 0
BBX 15 18 0 0
BITMAP
3C0E
7E0C
E618
C638
C630
E660
7EC0
3DC0
0180
0300
0778
06FC
0CCE
18C6
38C6
30CE
60FC
E078
ENDCHAR
STARTCHAR 0026
ENCODING 38
SWIDTH 600 0
DWIDTH 15 0
BBX 15 18 0 0
BITMAP
0780
1FE0
1FE0
3C70
3870
1C00
1E00
0E00
3F00
7F8E
71DC
E1F8
E0F8
E070
70F8
7FDC
3F9C
1F0E
ENDCHAR
STARTCHAR 0027
ENCODING 39
SWIDTH 600 0
DWIDTH 15 0
BBX 3 7 6 11
BITMAP
E0
E0
E0
E0
E0
E0
E0
ENDCHAR
STARTCHAR 0028
ENCODING 40
SWIDTH 600 0
DWIDTH 15 0
BBX 8 24 4 -3
BITMAP
03
0F
1F
3E
78
78
70
F0
E0
E0
E0
E0
E0
E0
E0
E0
F0
70
78
78
3E
1F
0F
03
ENDCHAR
STARTCHAR 0029
ENCODING 41
SWIDTH 600 0
DWIDTH 15 0
BBX 8 24 3 -3
BITMAP
80
E0
F8
7C
1C
1E
0E
0F
07
07
07
07
07
07
07
07
0F
0E
1E
1C
7C
F8
F0
C0
ENDCHAR
STARTCHAR 002A
ENCODING 42
SWIDTH 600 0
DWIDTH 15 0
BBX 13 13 1 3
BITMAP
0700
0700
0700
0700
F778
FFF8
3FE0
0700
0D80
1DC0
38E0
38E0
1040
ENDCHAR
STARTCHAR 002B
ENCODING 43
SWIDTH 600 0
DWIDTH 15 0
BBX 13 12 1 2
BITMAP
0700
0700
0700
0700
0700
FFF8
FFF8
FFF8
0700
0700
0700
0700
ENDCHAR
STARTCHAR 002C
ENCODING 44
SWIDTH 600 0
DWIDTH 15 0
BBX 5 8 5 -4
BITMAP
78
70
70
F0
F0
E0
E0
E0
ENDCHAR
STARTCHAR 002D
ENCODING 45
SWIDTH 600 0
DWIDTH 15 0
BBX 9 3 3 7
BITMAP
FF80
FF80
FF80
ENDCHAR
STARTCHAR 002E
ENCODING 46
SWIDTH 600 0
DWIDTH 15 0
BBX 5 5 5 0
BITMAP
70
F8
F8
F8
70
ENDCHAR
STARTCHAR 002F
ENCODING 47
SWIDTH 600 0
DWIDTH 15 0
BBX 12 24 2 -3
BITMAP
00F0
00E0
01E0
01C0
01C0
03C0
0380
0380
0780
0700
0700
0E00
0E00
1E00
1C00
1C00
3C00
3800
3800
7000
7000
F000
E000
E000
ENDCHAR
STARTCHAR 0030
ENCODING 48
SWIDTH 600 0
DWIDTH 15 0
BBX 11 18 2 0
BITMAP
1F00
7FC0
FFE0
E0E0
E0E0
E0E0
E0E0
E4E0
EEE0
EEE0
E0E0
E0E0
E0E0
E0E0
E0E0
FFE0
7FC0
1F00
ENDCHAR
STARTCHAR 0031
ENCODING 49
SWIDTH 600 0
DWIDTH 15 0
BBX 12 18 2 0
BITMAP
0F00
3F00
7F00
F700
E700
8700
0700
0700
0700
0700
0700
0700
0700
0700
0700
FFF0
FFF0
FFF0
ENDCHAR
STARTCHAR 0032
ENCODING 50
SWIDTH 600 0
DWIDTH 15 0
BBX 11 18 2 0
BITMAP
1F00
7FC0
FFE0
E1E0
E0E0
E0E0
00E0
01E0
01C0
03C0
0780
0F00
1E00
3C00
7800
FFE0
FFE0
FFE0
ENDCHAR
STARTCHAR 0033
ENCODING 51
SWIDTH 600 0
DWIDTH 15 0
BBX 11 18 2 0
BITMAP
FFE0
FFE0
FFE0
03C0
0780
0F00
1E00
1F80
1FC0
01E0
00E0
00E0
00E0
E0E0
E1E0
FFE0
7FC0
1F00
ENDCHAR
STARTCHAR 0034
ENCODING 52
SWIDTH 600 0
DWIDTH 15 0
BBX 12 18 1 0
BITMAP
01C0
03C0
0780
0700
0F00
1E00
1C00
3C70
7870
7070
F070
E070
FFF0
FFF0
FFF0
0070
0070
0070
ENDCHAR
STARTCHAR 0035
ENCODING 53
SWIDTH 600 0
DWIDTH 15 0
BBX 11 18 2 0
BITMAP
FFE0
FFE0
FFE0
E000
E000
E000
FE00
FFC0
FFC0
01E0
00E0
00E0
00E0
E0E0
E1E0
FFE0
7FC0
1F00
ENDCHAR
STARTCHAR 0036
ENCODING 54
SWIDTH 600 0
DWIDTH 15 0
BBX 13 18 1 0
BITMAP
0380
0780
0700
0E00
1E00
1C00
3C00
3FE0
7FF0
78F0
7070
E038
E038
F078
7070
7FF0
3FE0
0F80
ENDCHAR
STARTCHAR 0037
ENCODING 55
SWIDTH 600 0
DWIDTH 15 0
BBX 12 18 2 0
BITMAP
FFF0
FFF0
FFF0
E0F0
E0E0
E1E0
01C0
01C0
03C0
0380
0780
0700
0F00
0E00
1E00
1C00
1C00
3C00
ENDCHAR
STARTCHAR 0038
ENCODING 56
SWIDTH 600 0
DWIDTH 15 0
BBX 13 18 1 0
BITMAP
0F80
3FE0
7FF0
7070
7070
7070
78F0
3FE0
1FC0
7FE0
7070
F078
E038
F078
7070
7FF0
3FE0
0F80
ENDCHAR
STARTCHAR 0039
ENCODING 57
SWIDTH 600 0
DWIDTH 15 0
BBX 13 18 1 0
BITMAP
0F80
3FE0
7FF0
7070
F078
E038
F078
7070
7FF0
3FF0
1FE0
01E0
03C0
03C0
0780
0700
0F00
0E00
ENDCHAR
STARTCHAR 003A
ENCODING 58
SWIDTH 600 0
DWIDTH 15 0
BBX 5 14 5 0
BITMAP
70
F8
F8
70
00
00
00
00
00
00
70
F8
F8
70
ENDCHAR
STARTCHAR 003B
ENCODING 59
SWIDTH 600 0
DWIDTH 15 0
BBX 5 18 5 -4
BITMAP
70
F8
F8
70
00
00
00
00
00
00
70
70
70
F0
E0
E0
E0
E0
ENDCHAR
STARTCHAR 003C
ENCODING 60
SWIDTH 600 0
DWIDTH 15 0
BBX 11 13 2 2
BITMAP
0020
00E0
03E0
1FC0
7E00
F800
E000
F000
FC00
3F80
07E0
01E0
0060
ENDCHAR
STARTCHAR 003D
ENCODING 61
SWIDTH 600 0
DWIDTH 15 0
BBX 11 9 2 4
BITMAP
FFE0
FFE0
FFE0
0000
0000
0000
FFE0
FFE0
FFE0
ENDCHAR
STARTCHAR 003E
ENCODING 62
SWIDTH 600 0
DWIDTH 15 0
BBX 11 13 2 2
BITMAP
8000
E000
F800
7E00
1FC0
03E0
00E0
01E0
07E0
1F80
FE00
F000
C000
ENDCHAR
STARTCHAR 003F
ENCODING 63
SWIDTH 600 0
DWIDTH 15 0
BBX 9 18 3 0
BITMAP
FC00
FF00
FF80
0380
0380
0380
0380
3F80
3F00
3E00
3000
3000
0000
0000
0000
3000
7800
7800
ENDCHAR
STARTCHAR 0040
ENCODING 64
SWIDTH 600 0
DWIDTH 15 0
BBX 13 22 1 -4
BITMAP
0FC0
3FE0
7FF0
7038
E018
E3D8
C7F8
C738
C618
C618
C618
C618
C618
C738
C3F8
C1E0
E000
E000
7000
7FC0
3FC0
0FC0
ENDCHAR
STARTCHAR 0041
ENCODING 65
SWIDTH 600 0
DWIDTH 15 0
BBX 13 18 1 0
BITMAP
0F80
0F80
0F80
0D80
1DC0
1DC0
1DC0
18C0
38E0
38E0
38E0
3FE0
7FF0
7FF0
7070
F070
E038
E038
ENDCHAR
STARTCHAR 0042
ENCODING 66
SWIDTH 600 0
DWIDTH 15 0
BBX 12 18 2 0
BITMAP
FF00
FFC0
FFE0
E0E0
E0E0
E0E0
E0E0
FFC0
FF00
FFC0
E1E0
E0E0
E070
E0F0
E0E0
FFE0
FFC0
FF80
ENDCHAR
STARTCHAR 0043
ENCODING 67
SWIDTH 600 0
DWIDTH 15 0
BBX 11 18 2 0
BITMAP
1F00
7FC0
7FE0
F0E0
E0E0
E000
E000
E000
E000
E000
E000
E000
E000
E0E0
F0E0
7FE0
7FC0
1F00
ENDCHAR
STARTCHAR 0044
ENCODING 68
SWIDTH 600 0
DWIDTH 15 0
BBX 11 18 2 0
BITMAP
FF00
FFC0
FFE0
E1E0
E0E0
E0E0
E0E0
E0E0
E0E0
E0E0
E0E0
E0E0
E0E0
E0E0
E1E0
FFE0
FFC0
FF00
ENDCHAR
STARTCHAR 0045
ENCODING 69
SWIDTH 600 0
DWIDTH 15 0
BBX 11 18 2 0
BITMAP
FFE0
FFE0
FFE0
E000
E000
E000
E000
FFC0
FFC0
FFC0
E000
E000
E000
E000
E000
FFE0
FFE0
FFE0
ENDCHAR
STARTCHAR 0046
ENCODING 70
SWIDTH 600 0
DWIDTH 15 0
BBX 11 18 2 0
BITMAP
FFE0
FFE0
FFE0
E000
E000
E000
E000
FFE0
FFE0
FFE0
E000
E000
E000
E000
E000
E000
E000
E000
ENDCHAR
STARTCHAR 0047
ENCODING 71
SWIDTH 600 0
DWIDTH 15 0
BBX 11 18 2 0
BITMAP
1F00
7FC0
FFE0
F0E0
E0E0
E000
E000
E000
E7E0
E7E0
E7E0
E0E0
E0E0
E0E0
F0E0
FFE0
7FC0
1F00
ENDCHAR
STARTCHAR 0048
ENCODING 72
SWIDTH 600 0
DWIDTH 15 0
BBX 11 18 2 0
BITMAP
E0E0
E0E0
E0E0
E0E0
E0E0
E0E0
E0E0
FFE0
FFE0
FFE0
E0E0
E0E0
E0E0
E0E0
E0E0
E0E0
E0E0
E0E0
ENDCHAR
STARTCHAR 0049
ENCODING 73
SWIDTH 600 0
DWIDTH 15 0
BBX 11 18 2 0
BITMAP
FFE0
FFE0
FFE0
0E00
0E00
0E00
0E00
0E00
0E00
0E00
0E00
0E00
0E00
0E00
0E00
FFE0
FFE0
FFE0
ENDCHAR
STARTCHAR 004A
ENCODING 74
SWIDTH 600 0
DWIDTH 15 0
BBX 12 18 1 0
BITMAP
0070
0070
0070
0070
0070
0070
0070
0070
0070
0070
0070
0070
E070
E0F0
F0E0
7FE0
7FC0
1F80
ENDCHAR
STARTCHAR 004B
ENCODING 75
SWIDTH 600 0
DWIDTH 15 0
BBX 12 18 2 0
BITMAP
E0F0
E0E0
E1E0
E1C0
E3C0
E380
E380
FF00
FF00
FF00
E780
E380
E3C0
E1C0
E1E0
E0E0
E0F0
E070
ENDCHAR
STARTCHAR 004C
ENCODING 76
SWIDTH 600 0
DWIDTH 15 0
BBX 11 18 3 0
BITMAP
E000
E000
E000
E000
E000
E000
E000
E000
E000
E000
E000
E000
E000
E000
E000
FFE0
FFE0
FFE0
ENDCHAR
STARTCHAR 004D
ENCODING 77
SWIDTH 600 0
DWIDTH 15 0
BBX 13 18 1 0
BITMAP
F8F8
F8F8
F8F8
F8F8
EDB8
EDB8
EDB8
EDB8
E738
E738
E038
E038
E038
E038
E038
E038
E038
E038
ENDCHAR
STARTCHAR 004E
ENCODING 78
SWIDTH 600 0
DWIDTH 15 0
BBX 11 18 2 0
BITMAP
F0E0
F0E0
F0E0
F8E0
D8E0
DCE0
FCE0
ECE0
EEE0
EEE0
E6E0
E7E0
E760
E360
E3E0
E1E0
E1E0
E1E0
ENDCHAR
STARTCHAR 004F
ENCODING 79
SWIDTH 600 0
DWIDTH 15 0
BBX 11 18 2 0
BITMAP
1F00
7FC0
FFC0
E0E0
E0E0
E0E0
E0E0
E0E0
E0E0
E0E0
E0E0
E0E0
E0E0
E0E0
E0E0
FFC0
7FC0
1F00
ENDCHAR
STARTCHAR 0050
ENCODING 80
SWIDTH 600 0
DWIDTH 15 0
BBX 12 18 2 0
BITMAP
FF80
FFC0
FFE0
E0F0
E070
E070
E070
E0F0
FFE0
FFC0
FF80
E000
E000
E000
E000
E000
E000
E000
ENDCHAR
STARTCHAR 0051
ENCODING 81
SWIDTH 600 0
DWIDTH 15 0
BBX 11 22 2 -4
BITMAP
1F00
7FC0
FFE0
E0E0
E0E0
E0E0
E0E0
E0E0
E0E0
E0E0
E0E0
E0E0
E0E0
E0E0
E0E0
FFE0
7FC0
1F80
0380
01C0
01E0
00E0
ENDCHAR
STARTCHAR 0052
ENCODING 82
SWIDTH 600 0
DWIDTH 15 0
BBX 12 18 2 0
BITMAP
FF00
FFC0
FFE0
E0E0
E0F0
E0F0
E0F0
E1E0
FFE0
FFC0
FF00
E380
E380
E1C0
E1C0
E1E0
E0E0
E0F0
ENDCHAR
STARTCHAR 0053
ENCODING 83
SWIDTH 600 0
DWIDTH 15 0
BBX 13 18 1 0
BITMAP
0F80
3FE0
7FE0
70F0
7070
7000
7800
3F00
3FC0
0FE0
00F0
0070
0078
F078
7070
7FF0
3FE0
0F80
ENDCHAR
STARTCHAR 0054
ENCODING 84
SWIDTH 600 0
DWIDTH 15 0
BBX 13 18 1 0
BITMAP
FFF8
FFF8
FFF8
0700
0700
0700
0700
0700
0700
0700
0700
0700
0700
0700
0700
0700
0700
0700
ENDCHAR
STARTCHAR 0055
ENCODING 85
SWIDTH 600 0
DWIDTH 15 0
BBX 11 18 2 0
BITMAP
E0E0
E0E0
E0E0
E0E0
E0E0
E0E0
E0E0
E0E0
E0E0
E0E0
E0E0
E0E0
E0E0
E0E0
F1E0
FFE0
7FC0
1F00
ENDCHAR
STARTCHAR 0056
ENCODING 86
SWIDTH 600 0
DWIDTH 15 0
BBX 13 18 1 0
BITMAP
E038
E038
7078
7070
7070
7070
38E0
38E0
38E0
38E0
1CC0
1DC0
1DC0
1DC0
0D80
0F80
0F80
0F80
ENDCHAR
STARTCHAR 0057
ENCODING 87
SWIDTH 600 0
DWIDTH 15 0
BBX 15 18 0 0
BITMAP
E38E
638E
628C
628C
628C
66CC
76DC
76DC
76DC
76DC
76DC
36D8
3458
3C58
3C78
3C78
3C78
3C78
ENDCHAR
STARTCHAR 0058
ENCODING 88
SWIDTH 600 0
DWIDTH 15 0
BBX 13 18 1 0
BITMAP
F078
7070
78F0
38E0
3DE0
1DC0
0F80
0F80
0700
0F80
0F80
1DC0
1DC0
39E0
38E0
70F0
7070
E038
ENDCHAR
STARTCHAR 0059
ENCODING 89
SWIDTH 600 0
DWIDTH 15 0
BBX 13 18 1 0
BITMAP
E038
F078
7070
7070
38E0
38E0
1DC0
1DC0
0D80
0F80
0F80
0700
0700
0700
0700
0700
0700
0700
ENDCHAR
STARTCHAR 005A
ENCODING 90
SWIDTH 600 0
DWIDTH 15 0
BBX 11 18 2 0
BITMAP
FFE0
FFE0
FFE0
01C0
03C0
0380
0780
0F00
0E00
1E00
1C00
3C00
3800
7000
F000
FFE0
FFE0
FFE0
ENDCHAR
STARTCHAR 005B
ENCODING 91
SWIDTH 600 0
DWIDTH 15 0
BBX 7 24 5 -3
BITMAP
FE
FE
FE
E0
E0
E0
E0
E0
E0
E0
E0
E0
E0
E0
E0
E0
E0
E0
E0
E0
E0
FE
FE
FE
ENDCHAR
STARTCHAR 005C
ENCODING 92
SWIDTH 600 0
DWIDTH 15 0
BBX 12 24 1 -3
BITMAP
F000
7000
7000
3800
3800
3C00
1C00
1C00
1E00
0E00
0E00
0700
0700
0780
0380
0380
03C0
01C0
01C0
00E0
00E0
00F0
0070
0070
ENDCHAR
STARTCHAR 005D
ENCODING 93
SWIDTH 600 0
DWIDTH 15 0
BBX 7 24 3 -3
BITMAP
FE
FE
FE
0E
0E
0E
0E
0E
0E
0E
0E
0E
0E
0E
0E
0E
0E
0E
0E
0E
0E
FE
FE
FE
ENDCHAR
STARTCHAR 005E
ENCODING 94
SWIDTH 600 0
DWIDTH 15 0
BBX 11 10 2 9
BITMAP
0E00
1F00
1B00
1B80
3B80
3180
71C0
71C0
E0E0
E0E0
ENDCHAR
STARTCHAR 005F
ENCODING 95
SWIDTH 600 0
DWIDTH 15 0
BBX 13 3 1 -3
BITMAP
FFF8
FFF8
FFF8
ENDCHAR
STARTCHAR 0060
ENCODING 96
SWIDTH 600 0
DWIDTH 15 0
BBX 5 4 4 16
BITMAP
E0
70
78
38
ENDCHAR
STARTCHAR 0061
ENCODING 97
SWIDTH 600 0
DWIDTH 15 0
BBX 12 14 1 0
BITMAP
0F80
3FE0
7FF0
7070
0070
1FF0
3FF0
7070
7070
F070
70F0
7FF0
7F70
1E70
ENDCHAR
STARTCHAR 0062
ENCODING 98
SWIDTH 600 0
DWIDTH 15 0
BBX 11 18 2 0
BITMAP
E000
E000
E000
E000
E780
EFC0
FFE0
F0E0
E0E0
E0E0
E0E0
E0E0
E0E0
E0E0
F0E0
FFE0
EFC0
E780
ENDCHAR
STARTCHAR 0063
ENCODING 99
SWIDTH 600 0
DWIDTH 15 0
BBX 11 14 2 0
BITMAP
1F00
7FC0
7FE0
F0E0
E0E0
E000
E000
E000
E000
E0E0
F0E0
7FE0
7FC0
1F00
ENDCHAR
STARTCHAR 0064
ENCODING 100
SWIDTH 600 0
DWIDTH 15 0
BBX 11 18 2 0
BITMAP
00E0
00E0
00E0
00E0
3CE0
7EE0
FFE0
E1E0
E0E0
E0E0
E0E0
E0E0
E0E0
E0E0
E1E0
FFE0
7EE0
3CE0
ENDCHAR
STARTCHAR 0065
ENCODING 101
SWIDTH 600 0
DWIDTH 15 0
BBX 11 14 2 0
BITMAP
1F00
7FC0
FFC0
E0E0
E0E0
E0E0
FFE0
FFE0
E000
E000
E0E0
FFE0
7FC0
1F00
ENDCHAR
STARTCHAR 0066
ENCODING 102
SWIDTH 600 0
DWIDTH 15 0
BBX 12 18 1 0
BITMAP
03F0
07F0
0FF0
0E00
0E00
0E00
FFF0
FFF0
FFF0
0E00
0E00
0E00
0E00
0E00
0E00
0E00
0E00
0E00
ENDCHAR
STARTCHAR 0067
ENCODING 103
SWIDTH 600 0
DWIDTH 15 0
BBX 11 18 2 -4
BITMAP
3CE0
7FE0
FFE0
E1E0
E0E0
E0E0
E0E0
E0E0
E0E0
F1E0
FFE0
7EE0
1CE0
00E0
00E0
3FE0
3FC0
3F00
ENDCHAR
STARTCHAR 0068
ENCODING 104
SWIDTH 600 0
DWIDTH 15 0
BBX 11 18 2 0
BITMAP
E000
E000
E000
E000
E780
FFC0
FFE0
F1E0
E0E0
E0E0
E0E0
E0E0
E0E0
E0E0
E0E0
E0E0
E0E0
E0E0
ENDCHAR
STARTCHAR 0069
ENCODING 105
SWIDTH 600 0
DWIDTH 15 0
BBX 12 20 2 0
BITMAP
0E00
1E00
1F00
0E00
0000
0000
FF00
FF00
FF00
0700
0700
0700
0700
0700
0700
0700
0700
FFF0
FFF0
FFF0
ENDCHAR
STARTCHAR 006A
ENCODING 106
SWIDTH 600 0
DWIDTH 15 0
BBX 10 24 2 -4
BITMAP
0380
0780
07C0
0380
0000
0000
FF80
FF80
FF80
0380
0380
0380
0380
0380
0380
0380
0380
0380
0380
0380
0380
FF80
FF00
FC00
ENDCHAR
STARTCHAR 006B
ENCODING 107
SWIDTH 600 0
DWIDTH 15 0
BBX 12 18 2 0
BITMAP
E000
E000
E000
E000
E0F0
E0E0
E1E0
E3C0
E380
FF80
FF00
FF80
E380
E3C0
E1C0
E1E0
E0E0
E0F0
ENDCHAR
STARTCHAR 006C
ENCODING 108
SWIDTH 600 0
DWIDTH 15 0
BBX 13 18 1 0
BITMAP
FE00
FE00
FE00
0E00
0E00
0E00
0E00
0E00
0E00
0E00
0E00
0E00
0E00
0E00
0F00
07F8
07F8
03F8
ENDCHAR
STARTCHAR 006D
ENCODING 109
SWIDTH 600 0
DWIDTH 15 0
BBX 13 14 1 0
BITMAP
EC60
FEF0
FFF8
E738
E738
E738
E738
E738
E738
E738
E738
E738
E738
E738
ENDCHAR
STARTCHAR 006E
ENCODING 110
SWIDTH 600 0
DWIDTH 15 0
BBX 11 14 2 0
BITMAP
E780
EFC0
FFE0
F1E0
E0E0
E0E0
E0E0
E0E0
E0E0
E0E0
E0E0
E0E0
E0E0
E0E0
ENDCHAR
STARTCHAR 006F
ENCODING 111
SWIDTH 600 0
DWIDTH 15 0
BBX 11 14 2 0
BITMAP
1F00
7FC0
FFC0
E0E0
E0E0
E0E0
E0E0
E0E0
E0E0
E0E0
E0E0
FFE0
7FC0
1F00
ENDCHAR
STARTCHAR 0070
ENCODING 112
SWIDTH 600 0
DWIDTH 15 0
BBX 11 18 2 -4
BITMAP
E780
EFC0
FFE0
F0E0
E0E0
E0E0
E0E0
E0E0
E0E0
E0E0
F0E0
FFE0
EFC0
E780
E000
E000
E000
E000
ENDCHAR
STARTCHAR 0071
ENCODING 113
SWIDTH 600 0
DWIDTH 15 0
BBX 11 18 2 -4
BITMAP
3CE0
7EE0
FFE0
E1E0
E0E0
E0E0
E0E0
E0E0
E0E0
E0E0
E1E0
FFE0
7EE0
3CE0
00E0
00E0
00E0
00E0
ENDCHAR
STARTCHAR 0072
ENCODING 114
SWIDTH 600 0
DWIDTH 15 0
BBX 12 14 2 0
BITMAP
E780
EFE0
EFE0
F0F0
F0F0
F070
F000
F000
F000
F000
F000
F000
F000
F000
ENDCHAR
STARTCHAR 0073
ENCODING 115
SWIDTH 600 0
DWIDTH 15 0
BBX 11 14 2 0
BITMAP
3F80
7FC0
FBE0
E0E0
E000
FC00
7FC0
3FE0
01E0
00E0
E0E0
FBE0
7FC0
3F80
ENDCHAR
STARTCHAR 0074
ENCODING 116
SWIDTH 600 0
DWIDTH 15 0
BBX 12 18 1 0
BITMAP
0E00
0E00
0E00
0E00
FFF0
FFF0
FFF0
0E00
0E00
0E00
0E00
0E00
0E00
0E00
0E00
0FF0
0FF0
03F0
ENDCHAR
STARTCHAR 0075
ENCODING 117
SWIDTH 600 0
DWIDTH 15 0
BBX 11 14 2 0
BITMAP
E0E0
E0E0
E0E0
E0E0
E0E0
E0E0
E0E0
E0E0
E0E0
E0E0
F1E0
7FC0
7FC0
1F00
ENDCHAR
STARTCHAR 0076
ENCODING 118
SWIDTH 600 0
DWIDTH 15 0
BBX 13 14 1 0
BITMAP
E038
F078
7070
7070
78F0
38E0
38E0
3DE0
1DC0
1DC0
1DC0
0F80
0F80
0F80
ENDCHAR
STARTCHAR 0077
ENCODING 119
SWIDTH 600 0
DWIDTH 15 0
BBX 15 14 0 0
BITMAP
E38E
638C
628C
628C
76CC
76DC
76DC
36D8
36D8
36D8
3C78
3C78
3C78
3C70
ENDCHAR
STARTCHAR 0078
ENCODING 120
SWIDTH 600 0
DWIDTH 15 0
BBX 13 14 1 0
BITMAP
7070
78F0
38E0
1DE0
1DC0
0F80
0780
0F80
0F80
1DC0
3DE0
38E0
7070
F078
ENDCHAR
STARTCHAR 0079
ENCODING 121
SWIDTH 600 0
DWIDTH 15 0
BBX 13 18 1 -4
BITMAP
E038
7078
7070
7870
38E0
38E0
1DE0
1DC0
1DC0
0FC0
0F80
0780
0700
0700
0F00
0E00
0E00
1E00
ENDCHAR
STARTCHAR 007A
ENCODING 122
SWIDTH 600 0
DWIDTH 15 0
BBX 11 14 2 0
BITMAP
FFE0
FFE0
FFE0
03C0
0380
0780
0F00
1E00
3C00
7800
7000
FFE0
FFE0
FFE0
ENDCHAR
STARTCHAR 007B
ENCODING 123
SWIDTH 600 0
DWIDTH 15 0
BBX 11 24 2 -3
BITMAP
00E0
03E0
07E0
0700
0F00
0700
0700
0700
0700
0700
0F00
FE00
FC00
FE00
0700
0700
0700
0700
0700
0F00
0F00
07E0
07E0
01E0
ENDCHAR
STARTCHAR 007C
ENCODING 124
SWIDTH 600 0
DWIDTH 15 0
BBX 3 23 6 -3
BITMAP
E0
E0
E0
E0
E0
E0
E0
E0
E0
E0
E0
E0
E0
E0
E0
E0
E0
E0
E0
E0
E0
E0
E0
ENDCHAR
STARTCHAR 007D
ENCODING 125
SWIDTH 600 0
DWIDTH 15 0
BBX 11 24 2 -3
BITMAP
F000
F800
FC00
1C00
1E00
1C00
1C00
1C00
1C00
1C00
1C00
0FE0
07E0
1FE0
1C00
1C00
1C00
1C00
1C00
1C00
1E00
FC00
FC00
F000
ENDCHAR
STARTCHAR 007E
ENCODING 126
SWIDTH 600 0
DWIDTH 15 0
BBX 13 6 1 6
BITMAP
3C38
7E38
FF38
E7F8
E3F0
E1E0
ENDCHAR
STARTCHAR 00A0
ENCODING 160
SWIDTH 600 0
DWIDTH 15 0
BBX 0 0 0 0
BITMAP
ENDCHAR
STARTCHAR 00A1
ENCODING 161
SWIDTH 600 0
DWIDTH 15 0
BBX 5 18 5 -4
BITMAP
70
F8
70
00
00
00
70
70
70
70
70
70
70
70
70
70
70
70
ENDCHAR
STARTCHAR 00A2
ENCODING 162
SWIDTH 600 0
DWIDTH 15 0
BBX 11 21 2 -3
BITMAP
0400
0400
0400
0E00
3FC0
7FE0
F5E0
E4E0
E400
E400
E400
E400
E400
E4E0
F5E0
7FE0
3FC0
0E00
0400
0400
0400
ENDCHAR
STARTCHAR 00A3
ENCODING 163
SWIDTH 600 0
DWIDTH 15 0
BBX 11 18 2 0
BITMAP
1F00
7FC0
FFE0
E0E0
E0E0
E000
F000
7000
FF80
FF80
FF80
1800
3800
7800
F000
FFE0
FFE0
FFE0
ENDCHAR
STARTCHAR 00A4
ENCODING 164
SWIDTH 600 0
DWIDTH 15 0
BBX 13 12 1 3
BITMAP
6030
FFF8
7FF0
38E0
3060
7070
7070
3060
38E0
7FF0
FFF8
6030
ENDCHAR
STARTCHAR 00A5
ENCODING 165
SWIDTH 600 0
DWIDTH 15 0
BBX 13 18 1 0
BITMAP
E038
F078
7070
7070
38E0
38E0
1DC0
1DC0
0F80
FFF8
FFF8
FFF8
0700
FFF8
FFF8
FFF8
0700
0700
ENDCHAR
STARTCHAR 00A6
ENCODING 166
SWIDTH 600 0
DWIDTH 15 0
BBX 3 23 6 -3
BITMAP
E0
E0
E0
E0
E0
E0
E0
E0
E0
00
00
00
00
00
E0
E0
E0
E0
E0
E0
E0
E0
E0
ENDCHAR
STARTCHAR 00A7
ENCODING 167
SWIDTH 600 0
DWIDTH 15 0
BBX 12 23 2 -4
BITMAP
3F80
7FC0
FFE0
E0E0
E000
E000
FC00
7F80
31E0
E0E0
E0E0
E0E0
F0E0
FFC0
7F80
1FC0
01E0
00E0
00F0
E0E0
FFE0
7FC0
1F00
ENDCHAR
STARTCHAR 00A8
ENCODING 168
SWIDTH 600 0
DWIDTH 15 0
BBX 9 4 3 16
BITMAP
E380
E380
E380
E380
ENDCHAR
STARTCHAR 00A9
ENCODING 169
SWIDTH 600 0
DWIDTH 15 0
BBX 13 16 1 3
BITMAP
0F80
38E0
6030
4010
C798
CFD8
D8D8
D818
D818
D818
DCD8
CF98
4710
6030
3060
1FC0
ENDCHAR
STARTCHAR 00AA
ENCODING 170
SWIDTH 600 0
DWIDTH 15 0
BBX 7 7 4 11
BITMAP
3C
66
06
7E
C6
C6
7E
ENDCHAR
STARTCHAR 00AB
ENCODING 171
SWIDTH 600 0
DWIDTH 15 0
BBX 13 12 1 1
BITMAP
0E38
1C70
38F0
79E0
71C0
E380
E380
71C0
79E0
38F0
1C70
0E38
ENDCHAR
STARTCHAR 00AC
ENCODING 172
SWIDTH 600 0
DWIDTH 15 0
BBX 11 6 2 4
BITMAP
FFE0
FFE0
FFE0
01E0
01E0
01E0
ENDCHAR
STARTCHAR 00AD
ENCODING 173
SWIDTH 600 0
DWIDTH 15 0
BBX 9 3 3 7
BITMAP
FF80
FF80
FF80
ENDCHAR
STARTCHAR 00AE
ENCODING 174
SWIDTH 600 0
DWIDTH 15 0
BBX 13 16 1 3
BITMAP
0F80
38E0
6030
4010
CF18
C998
C8D8
C8D8
CF98
C918
C998
C998
48D0
6030
3060
1FC0
ENDCHAR
STARTCHAR 00AF
ENCODING 175
SWIDTH 600 0
DWIDTH 15 0
BBX 9 3 3 17
BITMAP
FF80
FF80
FF80
ENDCHAR
STARTCHAR 00B0
ENCODING 176
SWIDTH 600 0
DWIDTH 15 0
BBX 9 8 3 11
BITMAP
1C00
7F00
6300
E300
E380
6300
7F00
3E00
ENDCHAR
STARTCHAR 00B1
ENCODING 177
SWIDTH 600 0
DWIDTH 15 0
BBX 12 15 2 0
BITMAP
0E00
0E00
0E00
0E00
0E00
FFF0
FFF0
FFF0
0E00
0E00
0E00
0E00
0E00
FFE0
FFE0
ENDCHAR
STARTCHAR 00B2
ENCODING 178
SWIDTH 600 0
DWIDTH 15 0
BBX 8 11 4 10
BITMAP
7C
FE
C6
C7
06
0E
1C
70
E0
FF
FF
ENDCHAR
STARTCHAR 00B3
ENCODING 179
SWIDTH 600 0
DWIDTH 15 0
BBX 9 11 3 10
BITMAP
7F00
7F00
0700
0C00
0E00
0700
0380
C180
E380
7F00
3E00
ENDCHAR
STARTCHAR 00B4
ENCODING 180
SWIDTH 600 0
DWIDTH 15 0
BBX 5 4 6 16
BITMAP
38
70
F0
E0
ENDCHAR
STARTCHAR 00B5
ENCODING 181
SWIDTH 600 0
DWIDTH 15 0
BBX 11 18 2 -4
BITMAP
E0E0
E0E0
E0E0
E0E0
E0E0
E0E0
E0E0
E0E0
E0E0
E0E0
F1E0
FFE0
FFE0
EEE0
E000
E000
E000
E000
ENDCHAR
STARTCHAR 00B6
ENCODING 182
SWIDTH 600 0
DWIDTH 15 0
BBX 12 22 1 -4
BITMAP
1F30
7F30
7F30
FF30
FF30
FF30
FF30
7F30
7F30
1F30
0730
0730
0730
0730
0730
0730
0730
0730
0730
0730
0730
0730
ENDCHAR
STARTCHAR 00B7
ENCODING 183
SWIDTH 600 0
DWIDTH 15 0
BBX 5 5 5 7
BITMAP
70
F8
F8
F8
70
ENDCHAR
STARTCHAR 00B8
ENCODING 184
SWIDTH 600 0
DWIDTH 15 0
BBX 6 6 5 -4
BITMAP
60
40
F8
1C
FC
F8
ENDCHAR
STARTCHAR 00B9
ENCODING 185
SWIDTH 600 0
DWIDTH 15 0
BBX 8 11 4 10
BITMAP
38
F8
D8
18
18
18
18
18
18
FF
FF
ENDCHAR
STARTCHAR 00BA
ENCODING 186
SWIDTH 600 0
DWIDTH 15 0
BBX 7 8 4 11
BITMAP
38
7C
C6
C6
C6
C6
7C
38
ENDCHAR
STARTCHAR 00BB
ENCODING 187
SWIDTH 600 0
DWIDTH 15 0
BBX 13 12 1 1
BITMAP
E380
71C0
78E0
3CF0
1C70
0E38
0E38
1C70
3CF0
78E0
71C0
E380
ENDCHAR
STARTCHAR 00BC
ENCODING 188
SWIDTH 600 0
DWIDTH 15 0
BBX 15 18 0 0
BITMAP
3C0E
7C1C
6C18
0C38
0C70
0C60
7FE0
7FC0
0380
0300
0730
0E70
0C60
1CCC
39CC
31FC
71FC
E00C
ENDCHAR
STARTCHAR 00BD
ENCODING 189
SWIDTH 600 0
DWIDTH 15 0
BBX 15 19 0 0
BITMAP
1C0E
3C0C
6C1C
4C38
0C30
0C70
0CE0
7FC0
7FC0
0380
0300
0778
0EFC
0CCC
1C0C
3818
3060
70FC
E0FC
ENDCHAR
STARTCHAR 00BE
ENCODING 190
SWIDTH 600 0
DWIDTH 15 0
BBX 15 18 0 0
BITMAP
7E0E
0C1C
1818
1C38
0670
4660
7EE0
3DC0
0180
0380
0730
0E70
0C60
1CCC
39CC
31FC
71FC
E00C
ENDCHAR
STARTCHAR 00BF
ENCODING 191
SWIDTH 600 0
DWIDTH 15 0
BBX 10 18 2 -4
BITMAP
0780
0780
0300
0000
0000
0300
0300
0F00
3F00
7F00
7800
7000
F000
7000
7000
7FC0
3FC0
0FC0
ENDCHAR
STARTCHAR 00C0
ENCODING 192
SWIDTH 600 0
DWIDTH 15 0
BBX 13 24 1 0
BITMAP
1C00
0E00
0F00
0700
0000
0000
0F80
0F80
0F80
0D80
1DC0
1DC0
1DC0
18C0
38E0
38E0
38E0
3FE0
7FF0
7FF0
7070
F070
E038
E038
ENDCHAR
STARTCHAR 00C1
ENCODING 193
SWIDTH 600 0
DWIDTH 15 0
BBX 13 24 1 0
BITMAP
01C0
0380
0780
0700
0000
0000
0F80
0F80
0F80
0D80
1DC0
1DC0
1DC0
18C0
38E0
38E0
38E0
3FE0
7FF0
7FF0
7070
F070
E038
E038
ENDCHAR
STARTCHAR 00C2
ENCODING 194
SWIDTH 600 0
DWIDTH 15 0
BBX 13 24 1 0
BITMAP
0700
0F80
1DC0
38E0
0000
0000
0F80
0F80
0F80
0D80
1DC0
1DC0
1DC0
18C0
38E0
38E0
38E0
3FE0
7FF0
7FF0
7070
F070
E038
E038
ENDCHAR
STARTCHAR 00C3
ENCODING 195
SWIDTH 600 0
DWIDTH 15 0
BBX 13 24 1 0
BITMAP
1C60
3E60
33C0
31C0
0000
0000
0F80
0F80
0F80
0D80
1DC0
1DC0
1DC0
18C0
38E0
38E0
38E0
3FE0
7FF0
7FF0
7070
F070
E038
E038
ENDCHAR
STARTCHAR 00C4
ENCODING 196
SWIDTH 600 0
DWIDTH 15 0
BBX 13 24 1 0
BITMAP
38E0
38E0
38E0
38E0
0000
0000
0F80
0F80
0F80
0D80
1DC0
1DC0
1DC0
18C0
38E0
38E0
38E0
3FE0
7FF0
7FF0
7070
F070
E038
E038
ENDCHAR
STARTCHAR 00C5
ENCODING 197
SWIDTH 600 0
DWIDTH 15 0
BBX 13 25 1 0
BITMAP
0700
0F80
18C0
18C0
0F80
0700
0000
0F80
0F80
0F80
0D80
1DC0
1DC0
1DC0
18C0
38E0
38E0
38E0
3FE0
7FF0
7FF0
7070
F070
E038
E038
ENDCHAR
STARTCHAR 00C6
ENCODING 198
SWIDTH 600 0
DWIDTH 15 0
BBX 14 18 0 0
BITMAP
0FFC
0FFC
1FFC
1DC0
1DC0
1DC0
19C0
39FC
39FC
39FC
39C0
3FC0
7FC0
7FC0
71C0
71FC
71FC
E1FC
ENDCHAR
STARTCHAR 00C7
ENCODING 199
SWIDTH 600 0
DWIDTH 15 0
BBX 11 23 2 -4
BITMAP
1F00
7FC0
7FE0
F0E0
E0E0
E000
E000
E000
E000
E000
E000
E000
E000
E0E0
F0E0
7FE0
7FC0
1F00
0C00
0700
0380
1F80
1F00
ENDCHAR
STARTCHAR 00C8
ENCODING 200
SWIDTH 600 0
DWIDTH 15 0
BBX 11 24 2 0
BITMAP
3800
1C00
1E00
0E00
0000
0000
FFE0
FFE0
FFE0
E000
E000
E000
E000
FFC0
FFC0
FFC0
E000
E000
E000
E000
E000
FFE0
FFE0
FFE0
ENDCHAR
STARTCHAR 00C9
ENCODING 201
SWIDTH 600 0
DWIDTH 15 0
BBX 11 24 2 0
BITMAP
0380
0700
0F00
0E00
0000
0000
FFE0
FFE0
FFE0
E000
E000
E000
E000
FFC0
FFC0
FFC0
E000
E000
E000
E000
E000
FFE0
FFE0
FFE0
ENDCHAR
STARTCHAR 00CA
ENCODING 202
SWIDTH 600 0
DWIDTH 15 0
BBX 11 24 2 0
BITMAP
0E00
1F00
3B80
71C0
0000
0000
FFE0
FFE0
FFE0
E000
E000
E000
E000
FFC0
FFC0
FFC0
E000
E000
E000
E000
E000
FFE0
FFE0
FFE0
ENDCHAR
STARTCHAR 00CB
ENCODING 203
SWIDTH 600 0
DWIDTH 15 0
BBX 11 24 2 0
BITMAP
71C0
71C0
71C0
71C0
0000
0000
FFE0
FFE0
FFE0
E000
E000
E000
E000
FFC0
FFC0
FFC0
E000
E000
E000
E000
E000
FFE0
FFE0
FFE0
ENDCHAR
STARTCHAR 00CC
ENCODING 204
SWIDTH 600 0
DWIDTH 15 0
BBX 11 24 2 0
BITMAP
3800
1C00
1E00
0E00
0000
0000
FFE0
FFE0
FFE0
0E00
0E00
0E00
0E00
0E00
0E00
0E00
0E00
0E00
0E00
0E00
0E00
FFE0
FFE0
FFE0
ENDCHAR
STARTCHAR 00CD
ENCODING 205
SWIDTH 600 0
DWIDTH 15 0
BBX 11 24 2 0
BITMAP
0380
0700
0F00
0E00
0000
0000
FFE0
FFE0
FFE0
0E00
0E00
0E00
0E00
0E00
0E00
0E00
0E00
0E00
0E00
0E00
0E00
FFE0
FFE0
FFE0
ENDCHAR
STARTCHAR 00CE
ENCODING 206
SWIDTH 600 0
DWIDTH 15 0
BBX 11 24 2 0
BITMAP
0E00
1F00
3B80
71C0
0000
0000
FFE0
FFE0
FFE0
0E00
0E00
0E00
0E00
0E00
0E00
0E00
0E00
0E00
0E00
0E00
0E00
FFE0
FFE0
FFE0
ENDCHAR
STARTCHAR 00CF
ENCODING 207
SWIDTH 600 0
DWIDTH 15 0
BBX 11 24 2 0
BITMAP
71C0
71C0
71C0
71C0
0000
0000
FFE0
FFE0
FFE0
0E00
0E00
0E00
0E00
0E00
0E00
0E00
0E00
0E00
0E00
0E00
0E00
FFE0
FFE0
FFE0
ENDCHAR
STARTCHAR 00D0
ENCODING 208
SWIDTH 600 0
DWIDTH 15 0
BBX 13 18 0 0
BITMAP
3FC0
3FF0
3FF8
3878
3838
3838
3838
FE38
FE38
FE38
3838
3838
3838
3838
3878
3FF8
3FF0
3FC0
ENDCHAR
STARTCHAR 00D1
ENCODING 209
SWIDTH 600 0
DWIDTH 15 0
BBX 11 24 2 0
BITMAP
38C0
7CC0
6780
6380
0000
0000
F0E0
F0E0
F0E0
F8E0
D8E0
DCE0
FCE0
ECE0
EEE0
EEE0
E6E0
E7E0
E760
E360
E3E0
E1E0
E1E0
E1E0
ENDCHAR
STARTCHAR 00D2
ENCODING 210
SWIDTH 600 0
DWIDTH 15 0
BBX 11 24 2 0
BITMAP
3800
1C00
1E00
0E00
0000
0000
1F00
7FC0
FFC0
E0E0
E0E0
E0E0
E0E0
E0E0
E0E0
E0E0
E0E0
E0E0
E0E0
E0E0
E0E0
FFC0
7FC0
1F00
ENDCHAR
STARTCHAR 00D3
ENCODING 211
SWIDTH 600 0
DWIDTH 15 0
BBX 11 24 2 0
BITMAP
0380
0700
0F00
0E00
0000
0000
1F00
7FC0
FFC0
E0E0
E0E0
E0E0
E0E0
E0E0
E0E0
E0E0
E0E0
E0E0
E0E0
E0E0
E0E0
FFC0
7FC0
1F00
ENDCHAR
STARTCHAR 00D4
ENCODING 212
SWIDTH 600 0
DWIDTH 15 0
BBX 11 24 2 0
BITMAP
0E00
1F00
3B80
71C0
0000
0000
1F00
7FC0
FFC0
E0E0
E0E0
E0E0
E0E0
E0E0
E0E0
E0E0
E0E0
E0E0
E0E0
E0E0
E0E0
FFC0
7FC0
1F00
ENDCHAR
STARTCHAR 00D5
ENCODING 213
SWIDTH 600 0
DWIDTH 15 0
BBX 11 24 2 0
BITMAP
38C0
7CC0
6780
6380
0000
0000
1F00
7FC0
FFC0
E0E0
E0E0
E0E0
E0E0
E0E0
E0E0
E0E0
E0E0
E0E0
E0E0
E0E0
E0E0
FFC0
7FC0
1F00
ENDCHAR
STARTCHAR 00D6
ENCODING 214
SWIDTH 600 0
DWIDTH 15 0
BBX 11 24 2 0
BITMAP
71C0
71C0
71C0
71C0
0000
0000
1F00
7FC0
FFC0
E0E0
E0E0
E0E0
E0E0
E0E0
E0E0
E0E0
E0E0
E0E0
E0E0
E0E0
E0E0
FFC0
7FC0
1F00
ENDCHAR
STARTCHAR 00D7
ENCODING 215
SWIDTH 600 0
DWIDTH 15 0
BBX 11 10 2 3
BITMAP
60C0
F1E0
7BC0
3F80
1F00
1F00
3F80
7BC0
71C0
2080
ENDCHAR
STARTCHAR 00D8
ENCODING 216
SWIDTH 600 0
DWIDTH 15 0
BBX 13 19 1 0
BITMAP
0018
0FB8
3FF0
7FF0
7070
70F0
71F0
71F0
73F0
7370
7770
7E70
7C70
7C70
7870
7870
7FF0
7FE0
EF80
ENDCHAR
STARTCHAR 00D9
ENCODING 217
SWIDTH 600 0
DWIDTH 15 0
BBX 11 24 2 0
BITMAP
3800
1C00
1E00
0E00
0000
0000
E0E0
E0E0
E0E0
E0E0
E0E0
E0E0
E0E0
E0E0
E0E0
E0E0
E0E0
E0E0
E0E0
E0E0
F1E0
FFE0
7FC0
1F00
ENDCHAR
STARTCHAR 00DA
ENCODING 218
SWIDTH 600 0
DWIDTH 15 0
BBX 11 24 2 0
BITMAP
0380
0700
0F00
0E00
0000
0000
E0E0
E0E0
E0E0
E0E0
E0E0
E0E0
E0E0
E0E0
E0E0
E0E0
E0E0
E0E0
E0E0
E0E0
F1E0
FFE0
7FC0
1F00
ENDCHAR
STARTCHAR 00DB
ENCODING 219
SWIDTH 600 0
DWIDTH 15 0
BBX 11 24 2 0
BITMAP
0E00
1F00
3B80
71C0
0000
0000
E0E0
E0E0
E0E0
E0E0
E0E0
E0E0
E0E0
E0E0
E0E0
E0E0
E0E0
E0E0
E0E0
E0E0
F1E0
FFE0
7FC0
1F00
ENDCHAR
STARTCHAR 00DC
ENCODING 220
SWIDTH 600 0
DWIDTH 15 0
BBX 11 24 2 0
BITMAP
71C0
71C0
71C0
71C0
0000
0000
E0E0
E0E0
E0E0
E0E0
E0E0
E0E0
E0E0
E0E0
E0E0
E0E0
E0E0
E0E0
E0E0
E0E0
F1E0
FFE0
7FC0
1F00
ENDCHAR
STARTCHAR 00DD
ENCODING 221
SWIDTH 600 0
DWIDTH 15 0
BBX 13 24 1 0
BITMAP
01C0
0380
0780
0700
0000
0000
E038
F078
7070
7070
38E0
38E0
1DC0
1DC0
0D80
0F80
0F80
0700
0700
0700
0700
0700
0700
0700
ENDCHAR
STARTCHAR 00DE
ENCODING 222
SWIDTH 600 0
DWIDTH 15 0
BBX 12 18 2 0
BITMAP
E000
E000
E000
FF00
FFC0
FFE0
E0F0
E070
E070
E070
E0F0
FFE0
FFC0
FF00
E000
E000
E000
E000
ENDCHAR
STARTCHAR 00DF
ENCODING 223
SWIDTH 600 0
DWIDTH 15 0
BBX 12 18 2 0
BITMAP
1F00
7FC0
7FE0
F0E0
E0E0
E0E0
E1E0
E7C0
E780
E7E0
E0E0
E0F0
E070
E0F0
E0F0
E7E0
E7C0
E780
ENDCHAR
STARTCHAR 00E0
ENCODING 224
SWIDTH 600 0
DWIDTH 15 0
BBX 12 20 1 0
BITMAP
1C00
0E00
0F00
0700
0000
0000
0F80
3FE0
7FF0
7070
0070
1FF0
3FF0
7070
7070
F070
70F0
7FF0
7F70
1E70
ENDCHAR
STARTCHAR 00E1
ENCODING 225
SWIDTH 600 0
DWIDTH 15 0
BBX 12 20 1 0
BITMAP
01C0
0380
0780
0700
0000
0000
0F80
3FE0
7FF0
7070
0070
1FF0
3FF0
7070
7070
F070
70F0
7FF0
7F70
1E70
ENDCHAR
STARTCHAR 00E2
ENCODING 226
SWIDTH 600 0
DWIDTH 15 0
BBX 12 20 1 0
BITMAP
0700
0F80
1DC0
38E0
0000
0000
0F80
3FE0
7FF0
7070
0070
1FF0
3FF0
7070
7070
F070
70F0
7FF0
7F70
1E70
ENDCHAR
STARTCHAR 00E3
ENCODING 227
SWIDTH 600 0
DWIDTH 15 0
BBX 12 20 1 0
BITMAP
1C60
3E60
33C0
31C0
0000
0000
0F80
3FE0
7FF0
7070
0070
1FF0
3FF0
7070
7070
F070
70F0
7FF0
7F70
1E70
ENDCHAR
STARTCHAR 00E4
ENCODING 228
SWIDTH 600 0
DWIDTH 15 0
BBX 12 20 1 0
BITMAP
38E0
38E0
38E0
38E0
0000
0000
0F80
3FE0
7FF0
7070
0070
1FF0
3FF0
7070
7070
F070
70F0
7FF0
7F70
1E70
ENDCHAR
STARTCHAR 00E5
ENCODING 229
SWIDTH 600 0
DWIDTH 15 0
BBX 12 21 1 0
BITMAP
0700
0F80
18C0
18C0
0F80
0700
0000
0F80
3FE0
7FF0
7070
0070
1FF0
3FF0
7070
7070
F070
70F0
7FF0
7F70
1E70
ENDCHAR
STARTCHAR 00E6
ENCODING 230
SWIDTH 600 0
DWIDTH 15 0
BBX 13 14 1 0
BITMAP
38E0
7DF0
E738
E718
0718
0718
3FF8
7FF8
E700
C700
C718
E738
FDF8
38E0
ENDCHAR
STARTCHAR 00E7
ENCODING 231
SWIDTH 600 0
DWIDTH 15 0
BBX 11 19 2 -4
BITMAP
1F00
7FC0
7FE0
F0E0
E0E0
E000
E000
E000
E000
E0E0
F0E0
7FE0
7FC0
1F00
0C00
0700
0380
1F80
1F00
ENDCHAR
STARTCHAR 00E8
ENCODING 232
SWIDTH 600 0
DWIDTH 15 0
BBX 11 20 2 0
BITMAP
3800
1C00
1E00
0E00
0000
0000
1F00
7FC0
FFC0
E0E0
E0E0
E0E0
FFE0
FFE0
E000
E000
E0E0
FFE0
7FC0
1F00
ENDCHAR
STARTCHAR 00E9
ENCODING 233
SWIDTH 600 0
DWIDTH 15 0
BBX 11 20 2 0
BITMAP
0380
0700
0F00
0E00
0000
0000
1F00
7FC0
FFC0
E0E0
E0E0
E0E0
FFE0
FFE0
E000
E000
E0E0
FFE0
7FC0
1F00
ENDCHAR
STARTCHAR 00EA
ENCODING 234
SWIDTH 600 0
DWIDTH 15 0
BBX 11 20 2 0
BITMAP
0E00
1F00
3B80
71C0
0000
0000
1F00
7FC0
FFC0
E0E0
E0E0
E0E0
FFE0
FFE0
E000
E000
E0E0
FFE0
7FC0
1F00
ENDCHAR
STARTCHAR 00EB
ENCODING 235
SWIDTH 600 0
DWIDTH 15 0
BBX 11 20 2 0
BITMAP
71C0
71C0
71C0
71C0
0000
0000
1F00
7FC0
FFC0
E0E0
E0E0
E0E0
FFE0
FFE0
E000
E000
E0E0
FFE0
7FC0
1F00
ENDCHAR
STARTCHAR 00EC
ENCODING 236
SWIDTH 600 0
DWIDTH 15 0
BBX 12 20 2 0
BITMAP
3800
1C00
1E00
0E00
0000
0000
FF00
FF00
FF00
0700
0700
0700
0700
0700
0700
0700
0700
FFF0
FFF0
FFF0
ENDCHAR
STARTCHAR 00ED
ENCODING 237
SWIDTH 600 0
DWIDTH 15 0
BBX 12 20 2 0
BITMAP
01C0
0380
0780
0700
0000
0000
FF00
FF00
FF00
0700
0700
0700
0700
0700
0700
0700
0700
FFF0
FFF0
FFF0
ENDCHAR
STARTCHAR 00EE
ENCODING 238
SWIDTH 600 0
DWIDTH 15 0
BBX 12 20 2 0
BITMAP
0E00
1F00
3B80
71C0
0000
0000
FF00
FF00
FF00
0700
0700
0700
0700
0700
0700
0700
0700
FFF0
FFF0
FFF0
ENDCHAR
STARTCHAR 00EF
ENCODING 239
SWIDTH 600 0
DWIDTH 15 0
BBX 12 20 2 0
BITMAP
71C0
71C0
71C0
71C0
0000
0000
FF00
FF00
FF00
0700
0700
0700
0700
0700
0700
0700
0700
FFF0
FFF0
FFF0
ENDCHAR
STARTCHAR 00F0
ENCODING 240
SWIDTH 600 0
DWIDTH 15 0
BBX 13 18 1 0
BITMAP
1E60
0FE0
1F80
3F80
33C0
01C0
00E0
3FF0
7FF0
78F0
F078
F078
E038
F078
7070
7FF0
3FE0
0F80
ENDCHAR
STARTCHAR 00F1
ENCODING 241
SWIDTH 600 0
DWIDTH 15 0
BBX 11 20 2 0
BITMAP
38C0
7CC0
6780
6380
0000
0000
E780
EFC0
FFE0
F1E0
E0E0
E0E0
E0E0
E0E0
E0E0
E0E0
E0E0
E0E0
E0E0
E0E0
ENDCHAR
STARTCHAR 00F2
ENCODING 242
SWIDTH 600 0
DWIDTH 15 0
BBX 11 20 2 0
BITMAP
3800
1C00
1E00
0E00
0000
0000
1F00
7FC0
FFC0
E0E0
E0E0
E0E0
E0E0
E0E0
E0E0
E0E0
E0E0
FFE0
7FC0
1F00
ENDCHAR
STARTCHAR 00F3
ENCODING 243
SWIDTH 600 0
DWIDTH 15 0
BBX 11 20 2 0
BITMAP
0380
0700
0F00
0E00
0000
0000
1F00
7FC0
FFC0
E0E0
E0E0
E0E0
E0E0
E0E0
E0E0
E0E0
E0E0
FFE0
7FC0
1F00
ENDCHAR
STARTCHAR 00F4
ENCODING 244
SWIDTH 600 0
DWIDTH 15 0
BBX 11 20 2 0
BITMAP
0E00
1F00
3B80
71C0
0000
0000
1F00
7FC0
FFC0
E0E0
E0E0
E0E0
E0E0
E0E0
E0E0
E0E0
E0E0
FFE0
7FC0
1F00
ENDCHAR
STARTCHAR 00F5
ENCODING 245
SWIDTH 600 0
DWIDTH 15 0
BBX 11 20 2 0
BITMAP
38C0
7CC0
6780
6380
0000
0000
1F00
7FC0
FFC0
E0E0
E0E0
E0E0
E0E0
E0E0
E0E0
E0E0
E0E0
FFE0
7FC0
1F00
ENDCHAR
STARTCHAR 00F6
ENCODING 246
SWIDTH 600 0
DWIDTH 15 0
BBX 11 20 2 0
BITMAP
71C0
71C0
71C0
71C0
0000
0000
1F00
7FC0
FFC0
E0E0
E0E0
E0E0
E0E0
E0E0
E0E0
E0E0
E0E0
FFE0
7FC0
1F00
ENDCHAR
STARTCHAR 00F7
ENCODING 247
SWIDTH 600 0
DWIDTH 15 0
BBX 11 15 2 1
BITMAP
0E00
1F00
1F00
0E00
0000
0000
FFE0
FFE0
FFE0
0000
0000
0E00
1F00
1F00
0E00
ENDCHAR
STARTCHAR 00F8
ENCODING 248
SWIDTH 600 0
DWIDTH 15 0
BBX 13 15 1 0
BITMAP
0038
0FB0
3FF0
7FE0
70F0
71F0
73F0
7770
7670
7E70
7C70
7870
7FF0
7FE0
EF80
ENDCHAR
STARTCHAR 00F9
ENCODING 249
SWIDTH 600 0
DWIDTH 15 0
BBX 11 20 2 0
BITMAP
3800
1C00
1E00
0E00
0000
0000
E0E0
E0E0
E0E0
E0E0
E0E0
E0E0
E0E0
E0E0
E0E0
E0E0
F1E0
7FC0
7FC0
1F00
ENDCHAR
STARTCHAR 00FA
ENCODING 250
SWIDTH 600 0
DWIDTH 15 0
BBX 11 20 2 0
BITMAP
0380
0700
0F00
0E00
0000
0000
E0E0
E0E0
E0E0
E0E0
E0E0
E0E0
E0E0
E0E0
E0E0
E0E0
F1E0
7FC0
7FC0
1F00
ENDCHAR
STARTCHAR 00FB
ENCODING 251
SWIDTH 600 0
DWIDTH 15 0
BBX 11 20 2 0
BITMAP
0E00
1F00
3B80
71C0
0000
0000
E0E0
E0E0
E0E0
E0E0
E0E0
E0E0
E0E0
E0E0
E0E0
E0E0
F1E0
7FC0
7FC0
1F00
ENDCHAR
STARTCHAR 00FC
ENCODING 252
SWIDTH 600 0
DWIDTH 15 0
BBX 11 20 2 0
BITMAP
71C0
71C0
71C0
71C0
0000
0000
E0E0
E0E0
E0E0
E0E0
E0E0
E0E0
E0E0
E0E0
E0E0
E0E0
F1E0
7FC0
7FC0
1F00
ENDCHAR
STARTCHAR 00FD
ENCODING 253
SWIDTH 600 0
DWIDTH 15 0
BBX 13 24 1 -4
BITMAP
01C0
0380
0780
0700
0000
0000
E038
7078
7070
7870
38E0
38E0
1DE0
1DC0
1DC0
0FC0
0F80
0780
0700
0700
0F00
0E00
0E00
1E00
ENDCHAR
STARTCHAR 00FE
ENCODING 254
SWIDTH 600 0
DWIDTH 15 0
BBX 11 22 2 -4
BITMAP
E000
E000
E000
E000
E780
EFC0
FFE0
F1E0
E0E0
E0E0
E0E0
E0E0
E0E0
E0E0
F1E0
FFE0
EFC0
E780
E000
E000
E000
E000
ENDCHAR
STARTCHAR 00FF
ENCODING 255
SWIDTH 600 0
DWIDTH 15 0
BBX 13 24 1 -4
BITMAP
38E0
38E0
38E0
38E0
0000
0000
E038
7078
7070
7870
38E0
38E0
1DE0
1DC0
1DC0
0FC0
0F80
0780
0700
0700
0F00
0E00
0E00
1E00
ENDCHAR
STARTCHAR 0100
ENCODING 256
SWIDTH 600 0
DWIDTH 15 0
BBX 13 24 1 0
BITMAP
3FE0
3FE0
3FE0
0000
0000
0000
0F80
0F80
0F80
0D80
1DC0
1DC0
1DC0
18C0
38E0
38E0
38E0
3FE0
7FF0
7FF0
7070
F070
E038
E038
ENDCHAR
STARTCHAR 0101
ENCODING 257
SWIDTH 600 0
DWIDTH 15 0
BBX 12 20 1 0
BITMAP
3FE0
3FE0
3FE0
0000
0000
0000
0F80
3FE0
7FF0
7070
0070
1FF0
3FF0
7070
7070
F070
70F0
7FF0
7F70
1E70
ENDCHAR
STARTCHAR 0102
ENCODING 258
SWIDTH 600 0
DWIDTH 15 0
BBX 13 24 1 0
BITMAP
38E0
38E0
1FC0
0F80
0000
0000
0F80
0F80
0F80
0D80
1DC0
1DC0
1DC0
18C0
38E0
38E0
38E0
3FE0
7FF0
7FF0
7070
F070
E038
E038
ENDCHAR
STARTCHAR 0103
ENCODING 259
SWIDTH 600 0
DWIDTH 15 0
BBX 12 20 1 0
BITMAP
38E0
38E0
1FC0
0F80
0000
0000
0F80
3FE0
7FF0
7070
0070
1FF0
3FF0
7070
7070
F070
70F0
7FF0
7F70
1E70
ENDCHAR
STARTCHAR 0104
ENCODING 260
SWIDTH 600 0
DWIDTH 15 0
BBX 13 22 1 -4
BITMAP
0F80
0F80
0F80
0D80
1DC0
1DC0
1DC0
18C0
38E0
38E0
38E0
3FE0
7FF0
7FF0
7070
F070
E038
E038
0070
00E0
00F8
0038
ENDCHAR
STARTCHAR 0105
ENCODING 261
SWIDTH 520 0
DWIDTH 13 0
BBX 12 18 1 -4
BITMAP
0F80
3FE0
7FF0
7070
0070
1FF0
3FF0
7070
7070
F070
70F0
7FF0
7F70
1E70
00E0
00E0
0070
0070
ENDCHAR
STARTCHAR 0106
ENCODING 262
SWIDTH 600 0
DWIDTH 15 0
BBX 11 24 2 0
BITMAP
0380
0700
0F00
0E00
0000
0000
1F00
7FC0
7FE0
F0E0
E0E0
E000
E000
E000
E000
E000
E000
E000
E000
E0E0
F0E0
7FE0
7FC0
1F00
ENDCHAR
STARTCHAR 0107
ENCODING 263
SWIDTH 600 0
DWIDTH 15 0
BBX 11 20 2 0
BITMAP
0380
0700
0F00
0E00
0000
0000
1F00
7FC0
7FE0
F0E0
E0E0
E000
E000
E000
E000
E0E0
F0E0
7FE0
7FC0
1F00
ENDCHAR
STARTCHAR 0108
ENCODING 264
SWIDTH 600 0
DWIDTH 15 0
BBX 11 24 2 0
BITMAP
0E00
1F00
3B80
71C0
0000
0000
1F00
7FC0
7FE0
F0E0
E0E0
E000
E000
E000
E000
E000
E000
E000
E000
E0E0
F0E0
7FE0
7FC0
1F00
ENDCHAR
STARTCHAR 0109
ENCODING 265
SWIDTH 600 0
DWIDTH 15 0
BBX 11 20 2 0
BITMAP
0E00
1F00
3B80
71C0
0000
0000
1F00
7FC0
7FE0
F0E0
E0E0
E000
E000
E000
E000
E0E0
F0E0
7FE0
7FC0
1F00
ENDCHAR
STARTCHAR 010A
ENCODING 266
SWIDTH 600 0
DWIDTH 15 0
BBX 11 24 2 0
BITMAP
0E00
1E00
1F00
0E00
0000
0000
1F00
7FC0
7FE0
F0E0
E0E0
E000
E000
E000
E000
E000
E000
E000
E000
E0E0
F0E0
7FE0
7FC0
1F00
ENDCHAR
STARTCHAR 010B
ENCODING 267
SWIDTH 600 0
DWIDTH 15 0
BBX 11 20 2 0
BITMAP
0E00
1E00
1F00
0E00
0000
0000
1F00
7FC0
7FE0
F0E0
E0E0
E000
E000
E000
E000
E0E0
F0E0
7FE0
7FC0
1F00
ENDCHAR
STARTCHAR 010C
ENCODING 268
SWIDTH 600 0
DWIDTH 15 0
BBX 11 24 2 0
BITMAP
71C0
3B80
1F00
0E00
0000
0000
1F00
7FC0
7FE0
F0E0
E0E0
E000
E000
E000
E000
E000
E000
E000
E000
E0E0
F0E0
7FE0
7FC0
1F00
ENDCHAR
STARTCHAR 010D
ENCODING 269
SWIDTH 600 0
DWIDTH 15 0
BBX 11 20 2 0
BITMAP
71C0
3B80
1F00
0E00
0000
0000
1F00
7FC0
7FE0
F0E0
E0E0
E000
E000
E000
E000
E0E0
F0E0
7FE0
7FC0
1F00
ENDCHAR
STARTCHAR 010E
ENCODING 270
SWIDTH 600 0
DWIDTH 15 0
BBX 11 24 2 0
BITMAP
71C0
3B80
1F00
0E00
0000
0000
FF00
FFC0
FFE0
E1E0
E0E0
E0E0
E0E0
E0E0
E0E0
E0E0
E0E0
E0E0
E0E0
E0E0
E1E0
FFE0
FFC0
FF00
ENDCHAR
STARTCHAR 010F
ENCODING 271
SWIDTH 600 0
DWIDTH 15 0
BBX 14 18 1 0
BITMAP
01CC
01CC
01DC
01DC
3CC0
7EC0
7EC0
F1C0
E1C0
E1C0
E1C0
E1C0
E1C0
E1C0
F1C0
7EC0
7EC0
3CC0
ENDCHAR
STARTCHAR 0110
ENCODING 272
SWIDTH 600 0
DWIDTH 15 0
BBX 13 18 0 0
BITMAP
3FC0
3FF0
3FF8
3878
3838
3838
3838
FE38
FE38
FE38
3838
3838
3838
3838
3878
3FF8
3FF0
3FC0
ENDCHAR
STARTCHAR 0111
ENCODING 273
SWIDTH 600 0
DWIDTH 15 0
BBX 13 18 2 0
BITMAP
00E0
00E0
0FF8
0FF8
00E0
1CE0
7EE0
FFE0
F1E0
E0E0
E0E0
E0E0
E0E0
E0E0
F1E0
FFE0
7EE0
3CE0
ENDCHAR
STARTCHAR 0112
ENCODING 274
SWIDTH 600 0
DWIDTH 15 0
BBX 11 24 2 0
BITMAP
7FC0
7FC0
7FC0
0000
0000
0000
FFE0
FFE0
FFE0
E000
E000
E000
E000
FFC0
FFC0
FFC0
E000
E000
E000
E000
E000
FFE0
FFE0
FFE0
ENDCHAR
STARTCHAR 0113
ENCODING 275
SWIDTH 600 0
DWIDTH 15 0
BBX 11 20 2 0
BITMAP
7FC0
7FC0
7FC0
0000
0000
0000
1F00
7FC0
FFC0
E0E0
E0E0
E0E0
FFE0
FFE0
E000
E000
E0E0
FFE0
7FC0
1F00
ENDCHAR
STARTCHAR 0114
ENCODING 276
SWIDTH 600 0
DWIDTH 15 0
BBX 11 24 2 0
BITMAP
71C0
71C0
3F80
1F00
0000
0000
FFE0
FFE0
FFE0
E000
E000
E000
E000
FFC0
FFC0
FFC0
E000
E000
E000
E000
E000
FFE0
FFE0
FFE0
ENDCHAR
STARTCHAR 0115
ENCODING 277
SWIDTH 600 0
DWIDTH 15 0
BBX 11 20 2 0
BITMAP
71C0
71C0
3F80
1F00
0000
0000
1F00
7FC0
FFC0
E0E0
E0E0
E0E0
FFE0
FFE0
E000
E000
E0E0
FFE0
7FC0
1F00
ENDCHAR
STARTCHAR 0116
ENCODING 278
SWIDTH 600 0
DWIDTH 15 0
BBX 11 24 2 0
BITMAP
0E00
1E00
1F00
0E00
0000
0000
FFE0
FFE0
FFE0
E000
E000
E000
E000
FFC0
FFC0
FFC0
E000
E000
E000
E000
E000
FFE0
FFE0
FFE0
ENDCHAR
STARTCHAR 0117
ENCODING 279
SWIDTH 600 0
DWIDTH 15 0
BBX 11 20 2 0
BITMAP
0E00
1E00
1F00
0E00
0000
0000
1F00
7FC0
FFC0
E0E0
E0E0
E0E0
FFE0
FFE0
E000
E000
E0E0
FFE0
7FC0
1F00
ENDCHAR
STARTCHAR 0118
ENCODING 280
SWIDTH 600 0
DWIDTH 15 0
BBX 11 24 2 -4
BITMAP
FFE0
FFE0
FFE0
E000
E000
E000
E000
FFC0
FFC0
FFC0
E000
E000
E000
E000
E000
FFE0
FFE0
FFE0
0180
0380
0380
03E0
03E0
01E0
ENDCHAR
STARTCHAR 0119
ENCODING 281
SWIDTH 600 0
DWIDTH 15 0
BBX 11 19 2 -4
BITMAP
1F00
7FC0
FFC0
E0E0
E0E0
E0E0
FFE0
FFE0
E000
E000
E0E0
7FE0
7FC0
1F00
0600
0E00
0E00
0FC0
07C0
ENDCHAR
STARTCHAR 011A
ENCODING 282
SWIDTH 600 0
DWIDTH 15 0
BBX 11 24 2 0
BITMAP
71C0
3B80
1F00
0E00
0000
0000
FFE0
FFE0
FFE0
E000
E000
E000
E000
FFC0
FFC0
FFC0
E000
E000
E000
E000
E000
FFE0
FFE0
FFE0
ENDCHAR
STARTCHAR 011B
ENCODING 283
SWIDTH 600 0
DWIDTH 15 0
BBX 11 20 2 0
BITMAP
71C0
3B80
1F00
0E00
0000
0000
1F00
7FC0
FFC0
E0E0
E0E0
E0E0
FFE0
FFE0
E000
E000
E0E0
FFE0
7FC0
1F00
ENDCHAR
STARTCHAR 011C
ENCODING 284
SWIDTH 600 0
DWIDTH 15 0
BBX 11 24 2 0
BITMAP
0E00
1F00
3B80
71C0
0000
0000
1F00
7FC0
FFE0
F0E0
E0E0
E000
E000
E000
E7E0
E7E0
E7E0
E0E0
E0E0
E0E0
F0E0
FFE0
7FC0
1F00
ENDCHAR
STARTCHAR 011D
ENCODING 285
SWIDTH 600 0
DWIDTH 15 0
BBX 11 24 2 -4
BITMAP
0E00
1F00
3B80
71C0
0000
0000
3CE0
7FE0
FFE0
E1E0
E0E0
E0E0
E0E0
E0E0
E0E0
F1E0
FFE0
7EE0
1CE0
00E0
00E0
3FE0
3FC0
3F00
ENDCHAR
STARTCHAR 011E
ENCODING 286
SWIDTH 600 0
DWIDTH 15 0
BBX 11 24 2 0
BITMAP
71C0
71C0
3F80
1F00
0000
0000
1F00
7FC0
FFE0
F0E0
E0E0
E000
E000
E000
E7E0
E7E0
E7E0
E0E0
E0E0
E0E0
F0E0
FFE0
7FC0
1F00
ENDCHAR
STARTCHAR 011F
ENCODING 287
SWIDTH 600 0
DWIDTH 15 0
BBX 11 24 2 -4
BITMAP
71C0
71C0
3F80
1F00
0000
0000
3CE0
7FE0
FFE0
E1E0
E0E0
E0E0
E0E0
E0E0
E0E0
F1E0
FFE0
7EE0
1CE0
00E0
00E0
3FE0
3FC0
3F00
ENDCHAR
STARTCHAR 0120
ENCODING 288
SWIDTH 600 0
DWIDTH 15 0
BBX 11 24 2 0
BITMAP
0E00
1E00
1F00
0E00
0000
0000
1F00
7FC0
FFE0
F0E0
E0E0
E000
E000
E000
E7E0
E7E0
E7E0
E0E0
E0E0
E0E0
F0E0
FFE0
7FC0
1F00
ENDCHAR
STARTCHAR 0121
ENCODING 289
SWIDTH 600 0
DWIDTH 15 0
BBX 11 24 2 -4
BITMAP
0E00
1E00
1F00
0E00
0000
0000
3CE0
7FE0
FFE0
E1E0
E0E0
E0E0
E0E0
E0E0
E0E0
F1E0
FFE0
7EE0
1CE0
00E0
00E0
3FE0
3FC0
3F00
ENDCHAR
STARTCHAR 0122
ENCODING 290
SWIDTH 600 0
DWIDTH 15 0
BBX 11 24 2 -6
BITMAP
1F00
7FC0
FFE0
F0E0
E0E0
E000
E000
E000
E7E0
E7E0
E7E0
E0E0
E0E0
E0E0
F0E0
FFE0
7FC0
1F00
0000
0000
0700
0E00
1C00
1C00
ENDCHAR
STARTCHAR 0123
ENCODING 291
SWIDTH 600 0
DWIDTH 15 0
BBX 11 26 2 -4
BITMAP
0380
0700
0700
0F00
0E00
1E00
0000
0000
3CE0
7FE0
FFE0
E1E0
E0E0
E0E0
E0E0
E0E0
E0E0
F1E0
FFE0
7EE0
1CE0
00E0
00E0
3FE0
3FC0
3F00
ENDCHAR
STARTCHAR 0124
ENCODING 292
SWIDTH 600 0
DWIDTH 15 0
BBX 11 24 2 0
BITMAP
0E00
1F00
3B80
71C0
0000
0000
E0E0
E0E0
E0E0
E0E0
E0E0
E0E0
E0E0
FFE0
FFE0
FFE0
E0E0
E0E0
E0E0
E0E0
E0E0
E0E0
E0E0
E0E0
ENDCHAR
STARTCHAR 0125
ENCODING 293
SWIDTH 600 0
DWIDTH 15 0
BBX 14 25 -1 0
BITMAP
1C00
3E00
7700
E380
0000
0000
0000
1C00
1C00
1C00
1C00
1CF0
1FF8
1FFC
1E3C
1C1C
1C1C
1C1C
1C1C
1C1C
1C1C
1C1C
1C1C
1C1C
1C1C
ENDCHAR
STARTCHAR 0126
ENCODING 294
SWIDTH 600 0
DWIDTH 15 0
BBX 15 18 0 0
BITMAP
3838
3838
FFFE
FFFE
FFFE
3838
3838
3FF8
3FF8
3FF8
3838
3838
3838
3838
3838
3838
3838
3838
ENDCHAR
STARTCHAR 0127
ENCODING 295
SWIDTH 600 0
DWIDTH 15 0
BBX 13 18 0 0
BITMAP
3800
3800
FF80
FF80
3800
39C0
3BF0
3FF0
3C78
3838
3838
3838
3838
3838
3838
3838
3838
3838
ENDCHAR
STARTCHAR 0128
ENCODING 296
SWIDTH 600 0
DWIDTH 15 0
BBX 11 24 2 0
BITMAP
38C0
7CC0
6780
6380
0000
0000
FFE0
FFE0
FFE0
0E00
0E00
0E00
0E00
0E00
0E00
0E00
0E00
0E00
0E00
0E00
0E00
FFE0
FFE0
FFE0
ENDCHAR
STARTCHAR 0129
ENCODING 297
SWIDTH 600 0
DWIDTH 15 0
BBX 12 20 2 0
BITMAP
38C0
7CC0
6780
6380
0000
0000
FF00
FF00
FF00
0700
0700
0700
0700
0700
0700
0700
0700
FFF0
FFF0
FFF0
ENDCHAR
STARTCHAR 012A
ENCODING 298
SWIDTH 600 0
DWIDTH 15 0
BBX 11 24 2 0
BITMAP
7FC0
7FC0
7FC0
0000
0000
0000
FFE0
FFE0
FFE0
0E00
0E00
0E00
0E00
0E00
0E00
0E00
0E00
0E00
0E00
0E00
0E00
FFE0
FFE0
FFE0
ENDCHAR
STARTCHAR 012B
ENCODING 299
SWIDTH 600 0
DWIDTH 15 0
BBX 12 20 2 0
BITMAP
7FC0
7FC0
7FC0
0000
0000
0000
FF00
FF00
FF00
0700
0700
0700
0700
0700
0700
0700
0700
FFF0
FFF0
FFF0
ENDCHAR
STARTCHAR 012C
ENCODING 300
SWIDTH 600 0
DWIDTH 15 0
BBX 11 24 2 0
BITMAP
71C0
71C0
3F80
1F00
0000
0000
FFE0
FFE0
FFE0
0E00
0E00
0E00
0E00
0E00
0E00
0E00
0E00
0E00
0E00
0E00
0E00
FFE0
FFE0
FFE0
ENDCHAR
STARTCHAR 012D
ENCODING 301
SWIDTH 600 0
DWIDTH 15 0
BBX 12 20 2 0
BITMAP
71C0
71C0
3F80
1F00
0000
0000
FF00
FF00
FF00
0700
0700
0700
0700
0700
0700
0700
0700
FFF0
FFF0
FFF0
ENDCHAR
STARTCHAR 012E
ENCODING 302
SWIDTH 600 0
DWIDTH 15 0
BBX 11 24 2 -6
BITMAP
FFE0
FFE0
FFE0
0E00
0E00
0E00
0E00
0E00
0E00
0E00
0E00
0E00
0E00
0E00
0E00
FFE0
FFE0
FFE0
0C00
1800
3800
3F00
1F00
0F00
ENDCHAR
STARTCHAR 012F
ENCODING 303
SWIDTH 600 0
DWIDTH 15 0
BBX 12 26 2 -6
BITMAP
0600
0F00
0F00
0600
0000
0000
FF00
FF00
FF00
0700
0700
0700
0700
0700
0700
0700
0700
FFF0
FFF0
FFF0
0C00
1C00
1C00
1F00
1F00
0700
ENDCHAR
STARTCHAR 0130
ENCODING 304
SWIDTH 600 0
DWIDTH 15 0
BBX 11 24 2 0
BITMAP
0E00
1E00
1F00
0E00
0000
0000
FFE0
FFE0
FFE0
0E00
0E00
0E00
0E00
0E00
0E00
0E00
0E00
0E00
0E00
0E00
0E00
FFE0
FFE0
FFE0
ENDCHAR
STARTCHAR 0131
ENCODING 305
SWIDTH 600 0
DWIDTH 15 0
BBX 12 14 2 0
BITMAP
FF00
FF00
FF00
0700
0700
0700
0700
0700
0700
0700
0700
FFF0
FFF0
FFF0
ENDCHAR
STARTCHAR 0134
ENCODING 308
SWIDTH 600 0
DWIDTH 15 0
BBX 15 24 1 0
BITMAP
0070
00F8
01DC
038E
0000
0000
0070
0070
0070
0070
0070
0070
0070
0070
0070
0070
0070
0070
E070
E0F0
F0E0
7FE0
7FC0
1F80
ENDCHAR
STARTCHAR 0135
ENCODING 309
SWIDTH 600 0
DWIDTH 15 0
BBX 12 24 2 -4
BITMAP
0380
07C0
0EE0
1C70
0000
0000
FF80
FF80
FF80
0380
0380
0380
0380
0380
0380
0380
0380
0380
0380
0380
0380
FF80
FF00
FC00
ENDCHAR
STARTCHAR 0136
ENCODING 310
SWIDTH 600 0
DWIDTH 15 0
BBX 12 24 2 -6
BITMAP
E0F0
E0E0
E1E0
E1C0
E3C0
E380
E380
FF00
FF00
FF00
E780
E380
E3C0
E1C0
E1E0
E0E0
E0F0
E070
0000
0000
0700
0E00
1C00
1C00
ENDCHAR
STARTCHAR 0137
ENCODING 311
SWIDTH 600 0
DWIDTH 15 0
BBX 12 24 2 -6
BITMAP
E000
E000
E000
E000
E0F0
E0E0
E1E0
E3C0
E380
FF80
FF00
FF80
E380
E3C0
E1C0
E1E0
E0E0
E0F0
0000
0000
0700
0E00
1C00
1C00
ENDCHAR
STARTCHAR 0138
ENCODING 312
SWIDTH 600 0
DWIDTH 15 0
BBX 12 14 2 0
BITMAP
E0F0
E0E0
E1E0
E1C0
E380
FF80
FF00
FF80
E380
E3C0
E1C0
E1E0
E0F0
E070
ENDCHAR
STARTCHAR 0139
ENCODING 313
SWIDTH 600 0
DWIDTH 15 0
BBX 11 24 3 0
BITMAP
3800
7000
F000
E000
0000
0000
E000
E000
E000
E000
E000
E000
E000
E000
E000
E000
E000
E000
E000
E000
E000
FFE0
FFE0
FFE0
ENDCHAR
STARTCHAR 013A
ENCODING 314
SWIDTH 600 0
DWIDTH 15 0
BBX 13 24 1 0
BITMAP
0380
0700
0F00
0E00
0000
0000
FE00
FE00
FE00
0E00
0E00
0E00
0E00
0E00
0E00
0E00
0E00
0E00
0E00
0E00
0F00
07F8
07F8
03F8
ENDCHAR
STARTCHAR 013B
ENCODING 315
SWIDTH 600 0
DWIDTH 15 0
BBX 11 24 3 -6
BITMAP
E000
E000
E000
E000
E000
E000
E000
E000
E000
E000
E000
E000
E000
E000
E000
FFE0
FFE0
FFE0
0000
0000
0700
0E00
1C00
1C00
ENDCHAR
STARTCHAR 013C
ENCODING 316
SWIDTH 600 0
DWIDTH 15 0
BBX 13 24 1 -6
BITMAP
FE00
FE00
FE00
0E00
0E00
0E00
0E00
0E00
0E00
0E00
0E00
0E00
0E00
0E00
0F00
07F8
07F8
03F8
0000
0000
01C0
0380
0700
0700
ENDCHAR
STARTCHAR 013D
ENCODING 317
SWIDTH 600 0
DWIDTH 15 0
BBX 11 18 3 0
BITMAP
E380
E380
E300
E300
E000
E000
E000
E000
E000
E000
E000
E000
E000
E000
E000
FFE0
FFE0
FFE0
ENDCHAR
STARTCHAR 013E
ENCODING 318
SWIDTH 600 0
DWIDTH 15 0
BBX 13 18 1 0
BITMAP
FE38
FE38
FE30
0E30
0E00
0E00
0E00
0E00
0E00
0E00
0E00
0E00
0E00
0E00
0F00
07F8
07F8
03F8
ENDCHAR
STARTCHAR 013F
ENCODING 319
SWIDTH 600 0
DWIDTH 15 0
BBX 12 18 3 0
BITMAP
E000
E000
E000
E000
E000
E000
E0E0
E1F0
E1F0
E1F0
E0E0
E000
E000
E000
E000
FFE0
FFE0
FFE0
ENDCHAR
STARTCHAR 0140
ENCODING 320
SWIDTH 600 0
DWIDTH 15 0
BBX 16 18 1 0
BITMAP
FE00
FE00
FE00
0E00
0E00
0E00
0E0E
0E1F
0E1F
0E1F
0E0E
0E00
0E00
0E00
0F00
07F8
07F8
03F8
ENDCHAR
STARTCHAR 0141
ENCODING 321
SWIDTH 600 0
DWIDTH 15 0
BBX 14 18 0 0
BITMAP
1C00
1C00
1C00
1C00
1C40
1CC0
1FC0
1F80
3E00
FC00
FC00
DC00
1C00
1C00
1C00
1FFC
1FFC
1FFC
ENDCHAR
STARTCHAR 0142
ENCODING 322
SWIDTH 600 0
DWIDTH 15 0
BBX 13 18 1 0
BITMAP
FE00
FE00
FE00
0E00
0E20
0EE0
0FE0
0FC0
1F00
7E00
7E00
6E00
0E00
0E00
0F00
07F8
07F8
03F8
ENDCHAR
STARTCHAR 0143
ENCODING 323
SWIDTH 600 0
DWIDTH 15 0
BBX 11 24 2 0
BITMAP
0380
0700
0F00
0E00
0000
0000
F0E0
F0E0
F0E0
F8E0
D8E0
DCE0
FCE0
ECE0
EEE0
EEE0
E6E0
E7E0
E760
E360
E3E0
E1E0
E1E0
E1E0
ENDCHAR
STARTCHAR 0144
ENCODING 324
SWIDTH 600 0
DWIDTH 15 0
BBX 11 20 2 0
BITMAP
0380
0700
0F00
0E00
0000
0000
E780
EFC0
FFE0
F1E0
E0E0
E0E0
E0E0
E0E0
E0E0
E0E0
E0E0
E0E0
E0E0
E0E0
ENDCHAR
STARTCHAR 0145
ENCODING 325
SWIDTH 600 0
DWIDTH 15 0
BBX 11 24 2 -6
BITMAP
F0E0
F0E0
F0E0
F8E0
D8E0
DCE0
FCE0
ECE0
EEE0
EEE0
E6E0
E7E0
E760
E360
E3E0
E1E0
E1E0
E1E0
0000
0000
0700
0E00
1C00
1C00
ENDCHAR
STARTCHAR 0146
ENCODING 326
SWIDTH 600 0
DWIDTH 15 0
BBX 11 20 2 -6
BITMAP
E780
EFC0
FFE0
F1E0
E0E0
E0E0
E0E0
E0E0
E0E0
E0E0
E0E0
E0E0
E0E0
E0E0
0000
0000
0700
0E00
1C00
1C00
ENDCHAR
STARTCHAR 0147
ENCODING 327
SWIDTH 600 0
DWIDTH 15 0
BBX 11 24 2 0
BITMAP
71C0
3B80
1F00
0E00
0000
0000
F0E0
F0E0
F0E0
F8E0
D8E0
DCE0
FCE0
ECE0
EEE0
EEE0
E6E0
E7E0
E760
E360
E3E0
E1E0
E1E0
E1E0
ENDCHAR
STARTCHAR 0148
ENCODING 328
SWIDTH 600 0
DWIDTH 15 0
BBX 11 20 2 0
BITMAP
71C0
3B80
1F00
0E00
0000
0000
E780
EFC0
FFE0
F1E0
E0E0
E0E0
E0E0
E0E0
E0E0
E0E0
E0E0
E0E0
E0E0
E0E0
ENDCHAR
STARTCHAR 0149
ENCODING 329
SWIDTH 600 0
DWIDTH 15 0
BBX 13 20 0 0
BITMAP
3800
7000
E000
E000
0000
0000
39E0
3BF0
3FF8
3C78
3838
3838
3838
3838
3838
3838
3838
3838
3838
3838
ENDCHAR
STARTCHAR 014A
ENCODING 330
SWIDTH 600 0
DWIDTH 15 0
BBX 11 22 2 -4
BITMAP
F0E0
F0E0
F8E0
F8E0
D8E0
DCE0
ECE0
EEE0
EEE0
E7E0
E760
E360
E3E0
E3E0
E1E0
E1E0
E0E0
E0E0
00E0
0FE0
0FC0
0F00
ENDCHAR
STARTCHAR 014B
ENCODING 331
SWIDTH 600 0
DWIDTH 15 0
BBX 11 18 2 -4
BITMAP
E780
EFC0
FFE0
F1E0
E0E0
E0E0
E0E0
E0E0
E0E0
E0E0
E0E0
E0E0
E0E0
E0E0
00E0
0FC0
0FC0
0F00
ENDCHAR
STARTCHAR 014C
ENCODING 332
SWIDTH 600 0
DWIDTH 15 0
BBX 11 24 2 0
BITMAP
7FC0
7FC0
7FC0
0000
0000
0000
1F00
7FC0
FFC0
E0E0
E0E0
E0E0
E0E0
E0E0
E0E0
E0E0
E0E0
E0E0
E0E0
E0E0
E0E0
FFC0
7FC0
1F00
ENDCHAR
STARTCHAR 014D
ENCODING 333
SWIDTH 600 0
DWIDTH 15 0
BBX 11 20 2 0
BITMAP
7FC0
7FC0
7FC0
0000
0000
0000
1F00
7FC0
FFC0
E0E0
E0E0
E0E0
E0E0
E0E0
E0E0
E0E0
E0E0
FFE0
7FC0
1F00
ENDCHAR
STARTCHAR 014E
ENCODING 334
SWIDTH 600 0
DWIDTH 15 0
BBX 11 24 2 0
BITMAP
71C0
71C0
3F80
1F00
0000
0000
1F00
7FC0
FFC0
E0E0
E0E0
E0E0
E0E0
E0E0
E0E0
E0E0
E0E0
E0E0
E0E0
E0E0
E0E0
FFC0
7FC0
1F00
ENDCHAR
STARTCHAR 014F
ENCODING 335
SWIDTH 600 0
DWIDTH 15 0
BBX 11 20 2 0
BITMAP
71C0
71C0
3F80
1F00
0000
0000
1F00
7FC0
FFC0
E0E0
E0E0
E0E0
E0E0
E0E0
E0E0
E0E0
E0E0
FFE0
7FC0
1F00
ENDCHAR
STARTCHAR 0150
ENCODING 336
SWIDTH 600 0
DWIDTH 15 0
BBX 11 24 2 0
BITMAP
1CE0
1CE0
39C0
7380
0000
0000
1F00
7FC0
FFC0
E0E0
E0E0
E0E0
E0E0
E0E0
E0E0
E0E0
E0E0
E0E0
E0E0
E0E0
E0E0
FFC0
7FC0
1F00
ENDCHAR
STARTCHAR 0151
ENCODING 337
SWIDTH 600 0
DWIDTH 15 0
BBX 11 20 2 0
BITMAP
1CE0
1CE0
39C0
7380
0000
0000
1F00
7FC0
FFC0
E0E0
E0E0
E0E0
E0E0
E0E0
E0E0
E0E0
E0E0
FFE0
7FC0
1F00
ENDCHAR
STARTCHAR 0152
ENCODING 338
SWIDTH 600 0
DWIDTH 15 0
BBX 13 18 1 0
BITMAP
3BF8
7FF8
FFF8
E380
E380
E380
E380
E3F8
E3F8
E3F8
E380
E380
E380
E380
E380
FFF8
7FF8
3BF8
ENDCHAR
STARTCHAR 0153
ENCODING 339
SWIDTH 600 0
DWIDTH 15 0
BBX 13 14 1 0
BITMAP
38E0
FDF0
E7B8
C718
C718
C718
C7F8
C7F8
C700
C700
C700
E738
FDF0
38E0
ENDCHAR
STARTCHAR 0154
ENCODING 340
SWIDTH 600 0
DWIDTH 15 0
BBX 12 24 2 0
BITMAP
0380
0700
0F00
0E00
0000
0000
FF00
FFC0
FFE0
E0E0
E0F0
E0F0
E0F0
E1E0
FFE0
FFC0
FF00
E380
E380
E1C0
E1C0
E1E0
E0E0
E0F0
ENDCHAR
STARTCHAR 0155
ENCODING 341
SWIDTH 600 0
DWIDTH 15 0
BBX 12 20 2 0
BITMAP
01C0
0380
0780
0700
0000
0000
E780
EFE0
EFE0
F0F0
F0F0
F070
F000
F000
F000
F000
F000
F000
F000
F000
ENDCHAR
STARTCHAR 0156
ENCODING 342
SWIDTH 600 0
DWIDTH 15 0
BBX 12 24 2 -6
BITMAP
FF00
FFC0
FFE0
E0E0
E0F0
E0F0
E0F0
E1E0
FFE0
FFC0
FF00
E380
E380
E1C0
E1C0
E1E0
E0E0
E0F0
0000
0000
0700
0E00
1C00
1C00
ENDCHAR
STARTCHAR 0157
ENCODING 343
SWIDTH 600 0
DWIDTH 15 0
BBX 13 20 1 -6
BITMAP
73C0
77F0
77F0
7878
7878
7838
7800
7800
7800
7800
7800
7800
7800
7800
0000
0000
3800
7000
E000
E000
ENDCHAR
STARTCHAR 0158
ENCODING 344
SWIDTH 600 0
DWIDTH 15 0
BBX 12 24 2 0
BITMAP
71C0
3B80
1F00
0E00
0000
0000
FF00
FFC0
FFE0
E0E0
E0F0
E0F0
E0F0
E1E0
FFE0
FFC0
FF00
E380
E380
E1C0
E1C0
E1E0
E0E0
E0F0
ENDCHAR
STARTCHAR 0159
ENCODING 345
SWIDTH 600 0
DWIDTH 15 0
BBX 12 20 2 0
BITMAP
38E0
1DC0
0F80
0700
0000
0000
E780
EFE0
EFE0
F0F0
F0F0
F070
F000
F000
F000
F000
F000
F000
F000
F000
ENDCHAR
STARTCHAR 015A
ENCODING 346
SWIDTH 600 0
DWIDTH 15 0
BBX 13 24 1 0
BITMAP
01C0
0380
0780
0700
0000
0000
0F80
3FE0
7FE0
70F0
7070
7000
7800
3F00
3FC0
0FE0
00F0
0070
0078
F078
7070
7FF0
3FE0
0F80
ENDCHAR
STARTCHAR 015B
ENCODING 347
SWIDTH 600 0
DWIDTH 15 0
BBX 11 20 2 0
BITMAP
0380
0700
0F00
0E00
0000
0000
3F80
7FC0
FBE0
E0E0
E000
FC00
7FC0
3FE0
01E0
00E0
E0E0
FBE0
7FC0
3F80
ENDCHAR
STARTCHAR 015C
ENCODING 348
SWIDTH 600 0
DWIDTH 15 0
BBX 13 24 1 0
BITMAP
0700
0F80
1DC0
38E0
0000
0000
0F80
3FE0
7FE0
70F0
7070
7000
7800
3F00
3FC0
0FE0
00F0
0070
0078
F078
7070
7FF0
3FE0
0F80
ENDCHAR
STARTCHAR 015D
ENCODING 349
SWIDTH 600 0
DWIDTH 15 0
BBX 11 20 2 0
BITMAP
0E00
1F00
3B80
71C0
0000
0000
3F80
7FC0
FBE0
E0E0
E000
FC00
7FC0
3FE0
01E0
00E0
E0E0
FBE0
7FC0
3F80
ENDCHAR
STARTCHAR 015E
ENCODING 350
SWIDTH 600 0
DWIDTH 15 0
BBX 13 23 1 -5
BITMAP
0F80
3FE0
7FE0
70F0
7070
7000
7800
3F00
3FC0
0FE0
00F0
0070
0078
F078
7070
7FF0
3FE0
0F80
0600
0380
01C0
0FC0
0F80
ENDCHAR
STARTCHAR 015F
ENCODING 351
SWIDTH 600 0
DWIDTH 15 0
BBX 11 19 2 -5
BITMAP
3F80
7FC0
FFE0
E0E0
E000
F800
7FC0
3FE0
00E0
00E0
E0E0
FFE0
7FE0
3F80
0C00
0700
0380
1F80
1F00
ENDCHAR
STARTCHAR 0160
ENCODING 352
SWIDTH 600 0
DWIDTH 15 0
BBX 13 24 1 0
BITMAP
38E0
1DC0
0F80
0700
0000
0000
0F80
3FE0
7FE0
70F0
7070
7000
7800
3F00
3FC0
0FE0
00F0
0070
0078
F078
7070
7FF0
3FE0
0F80
ENDCHAR
STARTCHAR 0161
ENCODING 353
SWIDTH 600 0
DWIDTH 15 0
BBX 11 20 2 0
BITMAP
71C0
3B80
1F00
0E00
0000
0000
3F80
7FC0
FBE0
E0E0
E000
FC00
7FC0
3FE0
01E0
00E0
E0E0
FBE0
7FC0
3F80
ENDCHAR
STARTCHAR 0162
ENCODING 354
SWIDTH 600 0
DWIDTH 15 0
BBX 13 24 1 -6
BITMAP
FFF8
FFF8
FFF8
0700
0700
0700
0700
0700
0700
0700
0700
0700
0700
0700
0700
0700
0700
0700
0300
03C0
00E0
00E0
07E0
07C0
ENDCHAR
STARTCHAR 0163
ENCODING 355
SWIDTH 600 0
DWIDTH 15 0
BBX 12 24 1 -6
BITMAP
0E00
0E00
0E00
0E00
FFF0
FFF0
FFF0
0E00
0E00
0E00
0E00
0E00
0E00
0E00
0E00
0FF0
0FF0
03F0
0300
03C0
00E0
00E0
07E0
07C0
ENDCHAR
STARTCHAR 0164
ENCODING 356
SWIDTH 600 0
DWIDTH 15 0
BBX 13 24 1 0
BITMAP
38E0
1DC0
0F80
0700
0000
0000
FFF8
FFF8
FFF8
0700
0700
0700
0700
0700
0700
0700
0700
0700
0700
0700
0700
0700
0700
0700
ENDCHAR
STARTCHAR 0165
ENCODING 357
SWIDTH 600 0
DWIDTH 15 0
BBX 12 20 1 0
BITMAP
0070
0070
0E60
0E60
0E00
0E00
FFF0
FFF0
FFF0
0E00
0E00
0E00
0E00
0E00
0E00
0E00
0E00
0FF0
0FF0
03F0
ENDCHAR
STARTCHAR 0166
ENCODING 358
SWIDTH 600 0
DWIDTH 15 0
BBX 13 18 1 0
BITMAP
FFF8
FFF8
FFF8
0700
0700
0700
0700
0700
3FE0
3FE0
3FE0
0700
0700
0700
0700
0700
0700
0700
ENDCHAR
STARTCHAR 0167
ENCODING 359
SWIDTH 600 0
DWIDTH 15 0
BBX 12 18 1 0
BITMAP
0E00
0E00
0E00
0E00
FFF0
FFF0
FFF0
0E00
0E00
0E00
7FE0
7FE0
7FE0
0E00
0E00
0FF0
0FF0
03F0
ENDCHAR
STARTCHAR 0168
ENCODING 360
SWIDTH 600 0
DWIDTH 15 0
BBX 11 24 2 0
BITMAP
38C0
7CC0
6780
6380
0000
0000
E0E0
E0E0
E0E0
E0E0
E0E0
E0E0
E0E0
E0E0
E0E0
E0E0
E0E0
E0E0
E0E0
E0E0
F1E0
FFE0
7FC0
1F00
ENDCHAR
STARTCHAR 0169
ENCODING 361
SWIDTH 600 0
DWIDTH 15 0
BBX 11 20 2 0
BITMAP
38C0
7CC0
6780
6380
0000
0000
E0E0
E0E0
E0E0
E0E0
E0E0
E0E0
E0E0
E0E0
E0E0
E0E0
F1E0
7FC0
7FC0
1F00
ENDCHAR
STARTCHAR 016A
ENCODING 362
SWIDTH 600 0
DWIDTH 15 0
BBX 11 24 2 0
BITMAP
7FC0
7FC0
7FC0
0000
0000
0000
E0E0
E0E0
E0E0
E0E0
E0E0
E0E0
E0E0
E0E0
E0E0
E0E0
E0E0
E0E0
E0E0
E0E0
F1E0
FFE0
7FC0
1F00
ENDCHAR
STARTCHAR 016B
ENCODING 363
SWIDTH 600 0
DWIDTH 15 0
BBX 11 20 2 0
BITMAP
7FC0
7FC0
7FC0
0000
0000
0000
E0E0
E0E0
E0E0
E0E0
E0E0
E0E0
E0E0
E0E0
E0E0
E0E0
F1E0
7FC0
7FC0
1F00
ENDCHAR
STARTCHAR 016C
ENCODING 364
SWIDTH 600 0
DWIDTH 15 0
BBX 11 24 2 0
BITMAP
71C0
71C0
3F80
1F00
0000
0000
E0E0
E0E0
E0E0
E0E0
E0E0
E0E0
E0E0
E0E0
E0E0
E0E0
E0E0
E0E0
E0E0
E0E0
F1E0
FFE0
7FC0
1F00
ENDCHAR
STARTCHAR 016D
ENCODING 365
SWIDTH 600 0
DWIDTH 15 0
BBX 11 20 2 0
BITMAP
71C0
71C0
3F80
1F00
0000
0000
E0E0
E0E0
E0E0
E0E0
E0E0
E0E0
E0E0
E0E0
E0E0
E0E0
F1E0
7FC0
7FC0
1F00
ENDCHAR
STARTCHAR 016E
ENCODING 366
SWIDTH 600 0
DWIDTH 15 0
BBX 11 25 2 0
BITMAP
0E00
1F00
3180
3180
1F00
0E00
0000
E0E0
E0E0
E0E0
E0E0
E0E0
E0E0
E0E0
E0E0
E0E0
E0E0
E0E0
E0E0
E0E0
E0E0
F1E0
FFE0
7FC0
1F00
ENDCHAR
STARTCHAR 016F
ENCODING 367
SWIDTH 600 0
DWIDTH 15 0
BBX 11 21 2 0
BITMAP
0E00
1F00
3180
3180
1F00
0E00
0000
E0E0
E0E0
E0E0
E0E0
E0E0
E0E0
E0E0
E0E0
E0E0
E0E0
F1E0
7FC0
7FC0
1F00
ENDCHAR
STARTCHAR 0170
ENCODING 368
SWIDTH 600 0
DWIDTH 15 0
BBX 11 24 2 0
BITMAP
1CE0
1CE0
39C0
7380
0000
0000
E0E0
E0E0
E0E0
E0E0
E0E0
E0E0
E0E0
E0E0
E0E0
E0E0
E0E0
E0E0
E0E0
E0E0
F1E0
FFE0
7FC0
1F00
ENDCHAR
STARTCHAR 0171
ENCODING 369
SWIDTH 600 0
DWIDTH 15 0
BBX 11 20 2 0
BITMAP
1CE0
1CE0
39C0
7380
0000
0000
E0E0
E0E0
E0E0
E0E0
E0E0
E0E0
E0E0
E0E0
E0E0
E0E0
F1E0
7FC0
7FC0
1F00
ENDCHAR
STARTCHAR 0172
ENCODING 370
SWIDTH 600 0
DWIDTH 15 0
BBX 11 24 2 -6
BITMAP
E0E0
E0E0
E0E0
E0E0
E0E0
E0E0
E0E0
E0E0
E0E0
E0E0
E0E0
E0E0
E0E0
E0E0
E1E0
FFE0
7FC0
1F80
0600
0E00
0E00
0FC0
0FC0
03C0
ENDCHAR
STARTCHAR 0173
ENCODING 371
SWIDTH 600 0
DWIDTH 15 0
BBX 11 20 2 -6
BITMAP
E0E0
E0E0
E0E0
E0E0
E0E0
E0E0
E0E0
E0E0
E0E0
E0E0
F1E0
7FC0
7FC0
1F00
0600
0E00
0E00
0FC0
0FC0
03C0
ENDCHAR
STARTCHAR 0174
ENCODING 372
SWIDTH 600 0
DWIDTH 15 0
BBX 15 24 0 0
BITMAP
0380
07C0
0EE0
1C70
0000
0000
E38E
638E
628C
628C
628C
66CC
76DC
76DC
76DC
76DC
76DC
36D8
3458
3C58
3C78
3C78
3C78
3C78
ENDCHAR
STARTCHAR 0175
ENCODING 373
SWIDTH 600 0
DWIDTH 15 0
BBX 15 20 0 0
BITMAP
0380
07C0
0EE0
1C70
0000
0000
E38E
638C
628C
628C
76CC
76DC
76DC
36D8
36D8
36D8
3C78
3C78
3C78
3C70
ENDCHAR
STARTCHAR 0176
ENCODING 374
SWIDTH 600 0
DWIDTH 15 0
BBX 13 24 1 0
BITMAP
0700
0F80
1DC0
38E0
0000
0000
E038
F078
7070
7070
38E0
38E0
1DC0
1DC0
0D80
0F80
0F80
0700
0700
0700
0700
0700
0700
0700
ENDCHAR
STARTCHAR 0177
ENCODING 375
SWIDTH 600 0
DWIDTH 15 0
BBX 13 24 1 -4
BITMAP
0700
0F80
1DC0
38E0
0000
0000
E038
7078
7070
7870
38E0
38E0
1DE0
1DC0
1DC0
0FC0
0F80
0780
0700
0700
0F00
0E00
0E00
1E00
ENDCHAR
STARTCHAR 0178
ENCODING 376
SWIDTH 600 0
DWIDTH 15 0
BBX 13 24 1 0
BITMAP
38E0
38E0
38E0
38E0
0000
0000
E038
F078
7070
7070
38E0
38E0
1DC0
1DC0
0D80
0F80
0F80
0700
0700
0700
0700
0700
0700
0700
ENDCHAR
STARTCHAR 0179
ENCODING 377
SWIDTH 600 0
DWIDTH 15 0
BBX 11 24 2 0
BITMAP
0380
0700
0F00
0E00
0000
0000
FFE0
FFE0
FFE0
01C0
03C0
0380
0780
0F00
0E00
1E00
1C00
3C00
3800
7000
F000
FFE0
FFE0
FFE0
ENDCHAR
STARTCHAR 017A
ENCODING 378
SWIDTH 600 0
DWIDTH 15 0
BBX 11 20 2 0
BITMAP
0380
0700
0F00
0E00
0000
0000
FFE0
FFE0
FFE0
03C0
0380
0780
0F00
1E00
3C00
7800
7000
FFE0
FFE0
FFE0
ENDCHAR
STARTCHAR 017B
ENCODING 379
SWIDTH 600 0
DWIDTH 15 0
BBX 11 24 2 0
BITMAP
0E00
1E00
1F00
0E00
0000
0000
FFE0
FFE0
FFE0
01C0
03C0
0380
0780
0F00
0E00
1E00
1C00
3C00
3800
7000
F000
FFE0
FFE0
FFE0
ENDCHAR
STARTCHAR 017C
ENCODING 380
SWIDTH 600 0
DWIDTH 15 0
BBX 11 20 2 0
BITMAP
0E00
1E00
1F00
0E00
0000
0000
FFE0
FFE0
FFE0
03C0
0380
0780
0F00
1E00
3C00
7800
7000
FFE0
FFE0
FFE0
ENDCHAR
STARTCHAR 017D
ENCODING 381
SWIDTH 600 0
DWIDTH 15 0
BBX 11 24 2 0
BITMAP
71C0
3B80
1F00
0E00
0000
0000
FFE0
FFE0
FFE0
01C0
03C0
0380
0780
0F00
0E00
1E00
1C00
3C00
3800
7000
F000
FFE0
FFE0
FFE0
ENDCHAR
STARTCHAR 017E
ENCODING 382
SWIDTH 600 0
DWIDTH 15 0
BBX 11 20 2 0
BITMAP
71C0
3B80
1F00
0E00
0000
0000
FFE0
FFE0
FFE0
03C0
0380
0780
0F00
1E00
3C00
7800
7000
FFE0
FFE0
FFE0
ENDCHAR
STARTCHAR 017F
ENCODING 383
SWIDTH 600 0
DWIDTH 15 0
BBX 9 18 4 0
BITMAP
3F80
7F80
FF80
E000
E000
E000
E000
E000
E000
E000
E000
E000
E000
E000
E000
E000
E000
E000
ENDCHAR
STARTCHAR 018F
ENCODING 399
SWIDTH 600 0
DWIDTH 15 0
BBX 11 18 2 0
BITMAP
1F00
7FC0
FFE0
E0E0
E0E0
00E0
00E0
FFE0
FFE0
FFE0
E0E0
E0E0
E0E0
E0E0
F1E0
7FE0
7FC0
1F00
ENDCHAR
STARTCHAR 0190
ENCODING 400
SWIDTH 600 0
DWIDTH 15 0
BBX 13 18 1 0
BITMAP
0F80
3FE0
7FF0
7870
7070
7000
7800
3F80
1F80
7F80
7000
F000
F000
F038
7078
7FF0
3FE0
0FC0
ENDCHAR
STARTCHAR 0192
ENCODING 402
SWIDTH 600 0
DWIDTH 15 0
BBX 14 22 0 -4
BITMAP
01FC
03FC
07FC
0700
0700
0700
0700
7FFC
7FFC
7FFC
0700
0700
0700
0700
0700
0700
0700
0700
0700
FF00
FE00
F800
ENDCHAR
STARTCHAR 019B
ENCODING 411
SWIDTH 600 0
DWIDTH 15 0
BBX 13 18 1 0
BITMAP
1E60
0FE0
0FC0
1F00
7F00
7780
4F80
0F80
0DC0
1DC0
1DC0
3CE0
38E0
38E0
7070
7070
F078
E038
ENDCHAR
STARTCHAR 01A0
ENCODING 416
SWIDTH 600 0
DWIDTH 15 0
BBX 12 21 2 0
BITMAP
0030
0030
0030
1F70
7FF0
FFE0
E0E0
E0E0
E0E0
E0E0
E0E0
E0E0
E0E0
E0E0
E0E0
E0E0
E0E0
E0E0
FFE0
7FC0
1F00
ENDCHAR
STARTCHAR 01A1
ENCODING 417
SWIDTH 600 0
DWIDTH 15 0
BBX 12 16 2 0
BITMAP
0030
0030
1F70
7FF0
FFE0
E0E0
E0E0
E0E0
E0E0
E0E0
E0E0
E0E0
E0E0
FFE0
7FC0
1F00
ENDCHAR
STARTCHAR 01AF
ENCODING 431
SWIDTH 600 0
DWIDTH 15 0
BBX 14 21 2 0
BITMAP
001C
001C
001C
E0F8
E0F8
E0E0
E0E0
E0E0
E0E0
E0E0
E0E0
E0E0
E0E0
E0E0
E0E0
E0E0
E0E0
F1E0
FFE0
7FC0
1F00
ENDCHAR
STARTCHAR 01B0
ENCODING 432
SWIDTH 600 0
DWIDTH 15 0
BBX 14 17 2 0
BITMAP
001C
001C
001C
E1F8
E1F8
E1F0
E1E0
E1E0
E1E0
E1E0
E1E0
E1E0
E1E0
E1C0
FFC0
7F80
1F00
ENDCHAR
STARTCHAR 01CD
ENCODING 461
SWIDTH 600 0
DWIDTH 15 0
BBX 13 24 1 0
BITMAP
38E0
1DC0
0F80
0700
0000
0000
0F80
0F80
0F80
0D80
1DC0
1DC0
1DC0
18C0
38E0
38E0
38E0
3FE0
7FF0
7FF0
7070
F070
E038
E038
ENDCHAR
STARTCHAR 01CE
ENCODING 462
SWIDTH 600 0
DWIDTH 15 0
BBX 12 20 1 0
BITMAP
38E0
1DC0
0F80
0700
0000
0000
0F80
3FE0
7FF0
7070
0070
1FF0
3FF0
7070
7070
F070
70F0
7FF0
7F70
1E70
ENDCHAR
STARTCHAR 01D0
ENCODING 464
SWIDTH 600 0
DWIDTH 15 0
BBX 12 20 2 0
BITMAP
71C0
3B80
1F00
0E00
0000
0000
FF00
FF00
FF00
0700
0700
0700
0700
0700
0700
0700
0700
FFF0
FFF0
FFF0
ENDCHAR
STARTCHAR 01D2
ENCODING 466
SWIDTH 600 0
DWIDTH 15 0
BBX 11 20 2 0
BITMAP
71C0
3B80
1F00
0E00
0000
0000
1F00
7FC0
FFC0
E0E0
E0E0
E0E0
E0E0
E0E0
E0E0
E0E0
E0E0
FFE0
7FC0
1F00
ENDCHAR
STARTCHAR 01D4
ENCODING 468
SWIDTH 600 0
DWIDTH 15 0
BBX 11 20 2 0
BITMAP
71C0
3B80
1F00
0E00
0000
0000
E0E0
E0E0
E0E0
E0E0
E0E0
E0E0
E0E0
E0E0
E0E0
E0E0
F1E0
7FC0
7FC0
1F00
ENDCHAR
STARTCHAR 01D6
ENCODING 470
SWIDTH 600 0
DWIDTH 15 0
BBX 11 26 2 0
BITMAP
7FC0
7FC0
7FC0
0000
0000
0000
71C0
71C0
71C0
71C0
0000
0000
E0E0
E0E0
E0E0
E0E0
E0E0
E0E0
E0E0
E0E0
E0E0
E0E0
F1E0
7FC0
7FC0
1F00
ENDCHAR
STARTCHAR 01D8
ENCODING 472
SWIDTH 600 0
DWIDTH 15 0
BBX 11 26 2 0
BITMAP
0380
0700
0F00
0E00
0000
0000
71C0
71C0
71C0
71C0
0000
0000
E0E0
E0E0
E0E0
E0E0
E0E0
E0E0
E0E0
E0E0
E0E0
E0E0
F1E0
7FC0
7FC0
1F00
ENDCHAR
STARTCHAR 01DA
ENCODING 474
SWIDTH 600 0
DWIDTH 15 0
BBX 11 26 2 0
BITMAP
71C0
3B80
1F00
0E00
0000
0000
71C0
71C0
71C0
71C0
0000
0000
E0E0
E0E0
E0E0
E0E0
E0E0
E0E0
E0E0
E0E0
E0E0
E0E0
F1E0
7FC0
7FC0
1F00
ENDCHAR
STARTCHAR 01DC
ENCODING 476
SWIDTH 600 0
DWIDTH 15 0
BBX 11 26 2 0
BITMAP
3800
1C00
1E00
0E00
0000
0000
71C0
71C0
71C0
71C0
0000
0000
E0E0
E0E0
E0E0
E0E0
E0E0
E0E0
E0E0
E0E0
E0E0
E0E0
F1E0
7FC0
7FC0
1F00
ENDCHAR
STARTCHAR 01E6
ENCODING 486
SWIDTH 600 0
DWIDTH 15 0
BBX 11 24 2 0
BITMAP
71C0
3B80
1F00
0E00
0000
0000
1F00
7FC0
FFE0
F0E0
E0E0
E000
E000
E000
E7E0
E7E0
E7E0
E0E0
E0E0
E0E0
F0E0
FFE0
7FC0
1F00
ENDCHAR
STARTCHAR 01E7
ENCODING 487
SWIDTH 600 0
DWIDTH 15 0
BBX 11 24 2 -4
BITMAP
71C0
3B80
1F00
0E00
0000
0000
3CE0
7FE0
FFE0
E1E0
E0E0
E0E0
E0E0
E0E0
E0E0
F1E0
FFE0
7EE0
1CE0
00E0
00E0
3FE0
3FC0
3F00
ENDCHAR
STARTCHAR 01EA
ENCODING 490
SWIDTH 600 0
DWIDTH 15 0
BBX 11 24 2 -6
BITMAP
1F00
7FC0
FFC0
E0E0
E0E0
E0E0
E0E0
E0E0
E0E0
E0E0
E0E0
E0E0
E0E0
E0E0
E0E0
FFE0
7FC0
1F80
0600
0E00
0E00
0FC0
0FC0
03C0
ENDCHAR
STARTCHAR 01EB
ENCODING 491
SWIDTH 600 0
DWIDTH 15 0
BBX 11 20 2 -6
BITMAP
1F00
7FC0
FFC0
F1E0
E0E0
E0E0
E0E0
E0E0
E0E0
E0E0
E1E0
FFC0
7FC0
1F80
0600
0E00
0E00
0FC0
0FC0
03C0
ENDCHAR
STARTCHAR 01F4
ENCODING 500
SWIDTH 600 0
DWIDTH 15 0
BBX 11 24 2 0
BITMAP
0380
0700
0F00
0E00
0000
0000
1F00
7FC0
FFE0
F0E0
E0E0
E000
E000
E000
E7E0
E7E0
E7E0
E0E0
E0E0
E0E0
F0E0
FFE0
7FC0
1F00
ENDCHAR
STARTCHAR 01F5
ENCODING 501
SWIDTH 600 0
DWIDTH 15 0
BBX 11 24 2 -4
BITMAP
0380
0700
0F00
0E00
0000
0000
3CE0
7FE0
FFE0
E1E0
E0E0
E0E0
E0E0
E0E0
E0E0
F1E0
FFE0
7EE0
1CE0
00E0
00E0
3FE0
3FC0
3F00
ENDCHAR
STARTCHAR 01FC
ENCODING 508
SWIDTH 600 0
DWIDTH 15 0
BBX 14 24 0 0
BITMAP
00E0
01C0
03C0
0380
0000
0000
0FFC
0FFC
1FFC
1DC0
1DC0
1DC0
19C0
39FC
39FC
39FC
39C0
3FC0
7FC0
7FC0
71C0
71FC
71FC
E1FC
ENDCHAR
STARTCHAR 01FD
ENCODING 509
SWIDTH 600 0
DWIDTH 15 0
BBX 13 20 1 0
BITMAP
01C0
0380
0780
0700
0000
0000
38E0
7DF0
E738
E718
0718
0718
3FF8
7FF8
E700
C700
C718
E738
FDF8
38E0
ENDCHAR
STARTCHAR 01FE
ENCODING 510
SWIDTH 600 0
DWIDTH 15 0
BBX 13 24 1 0
BITMAP
01C0
0380
0780
0700
0000
0018
0FB8
3FF0
7FF0
7070
70F0
71F0
71F0
73F0
7370
7770
7E70
7C70
7C70
7870
7870
7FF0
7FE0
EF80
ENDCHAR
STARTCHAR 01FF
ENCODING 511
SWIDTH 600 0
DWIDTH 15 0
BBX 13 20 1 0
BITMAP
01C0
0380
0780
0700
0000
0038
0FB0
3FF0
7FE0
70F0
71F0
73F0
7770
7670
7E70
7C70
7870
7FF0
7FE0
EF80
ENDCHAR
STARTCHAR 0218
ENCODING 536
SWIDTH 600 0
DWIDTH 15 0
BBX 13 24 1 -6
BITMAP
0F80
3FE0
7FE0
70F0
7070
7000
7800
3F00
3FC0
0FE0
00F0
0070
0078
F078
7070
7FF0
3FE0
0F80
0000
0000
0380
0700
0E00
0E00
ENDCHAR
STARTCHAR 0219
ENCODING 537
SWIDTH 600 0
DWIDTH 15 0
BBX 11 20 2 -6
BITMAP
3F80
7FC0
FBE0
E0E0
E000
FC00
7FC0
3FE0
01E0
00E0
E0E0
FBE0
7FC0
3F80
0000
0000
0700
0E00
1C00
1C00
ENDCHAR
STARTCHAR 021A
ENCODING 538
SWIDTH 600 0
DWIDTH 15 0
BBX 13 24 1 -6
BITMAP
FFF8
FFF8
FFF8
0700
0700
0700
0700
0700
0700
0700
0700
0700
0700
0700
0700
0700
0700
0700
0000
0000
0380
0700
0E00
0E00
ENDCHAR
STARTCHAR 021B
ENCODING 539
SWIDTH 600 0
DWIDTH 15 0
BBX 12 24 1 -6
BITMAP
0E00
0E00
0E00
0E00
FFF0
FFF0
FFF0
0E00
0E00
0E00
0E00
0E00
0E00
0E00
0E00
0FF0
0FF0
03F0
0000
0000
00E0
01C0
0380
0380
ENDCHAR
STARTCHAR 0232
ENCODING 562
SWIDTH 600 0
DWIDTH 15 0
BBX 13 24 1 0
BITMAP
3FE0
3FE0
3FE0
0000
0000
0000
E038
F078
7070
7070
38E0
38E0
1DC0
1DC0
0D80
0F80
0F80
0700
0700
0700
0700
0700
0700
0700
ENDCHAR
STARTCHAR 0233
ENCODING 563
SWIDTH 600 0
DWIDTH 15 0
BBX 13 24 1 -4
BITMAP
3FE0
3FE0
3FE0
0000
0000
0000
E038
7078
7070
7870
38E0
38E0
1DE0
1DC0
1DC0
0FC0
0F80
0780
0700
0700
0F00
0E00
0E00
1E00
ENDCHAR
STARTCHAR 0237
ENCODING 567
SWIDTH 600 0
DWIDTH 15 0
BBX 9 18 2 -4
BITMAP
FF80
FF80
FF80
0380
0380
0380
0380
0380
0380
0380
0380
0380
0380
0380
0380
FF80
FF00
FC00
ENDCHAR
STARTCHAR 0259
ENCODING 601
SWIDTH 600 0
DWIDTH 15 0
BBX 11 14 2 0
BITMAP
1F00
7FC0
FFC0
E0E0
00E0
00E0
FFE0
FFE0
E0E0
E0E0
E0E0
7FE0
7FC0
1F00
ENDCHAR
STARTCHAR 02B9
ENCODING 697
SWIDTH 600 0
DWIDTH 15 0
BBX 6 8 4 10
BITMAP
3C
78
78
70
70
F0
E0
E0
ENDCHAR
STARTCHAR 02BA
ENCODING 698
SWIDTH 600 0
DWIDTH 15 0
BBX 13 8 1 10
BITMAP
3C78
3C70
38F0
78F0
70E0
70E0
61C0
E1C0
ENDCHAR
STARTCHAR 02BC
ENCODING 700
SWIDTH 600 0
DWIDTH 15 0
BBX 6 8 4 12
BITMAP
3C
78
78
70
70
F0
E0
E0
ENDCHAR
STARTCHAR 02C6
ENCODING 710
SWIDTH 600 0
DWIDTH 15 0
BBX 9 4 3 16
BITMAP
1C00
3E00
7700
E380
ENDCHAR
STARTCHAR 02C7
ENCODING 711
SWIDTH 600 0
DWIDTH 15 0
BBX 9 4 3 16
BITMAP
E380
7700
3E00
1C00
ENDCHAR
STARTCHAR 02C9
ENCODING 713
SWIDTH 600 0
DWIDTH 15 0
BBX 9 3 3 17
BITMAP
FF80
FF80
FF80
ENDCHAR
STARTCHAR 02D8
ENCODING 728
SWIDTH 600 0
DWIDTH 15 0
BBX 9 4 3 16
BITMAP
E380
E380
7F00
3E00
ENDCHAR
STARTCHAR 02D9
ENCODING 729
SWIDTH 600 0
DWIDTH 15 0
BBX 5 4 5 16
BITMAP
70
F0
F8
70
ENDCHAR
STARTCHAR 02DA
ENCODING 730
SWIDTH 600 0
DWIDTH 15 0
BBX 7 6 4 15
BITMAP
38
7C
C6
C6
7C
38
ENDCHAR
STARTCHAR 02DB
ENCODING 731
SWIDTH 600 0
DWIDTH 15 0
BBX 6 6 4 -5
BITMAP
18
70
60
E0
7C
7C
ENDCHAR
STARTCHAR 02DC
ENCODING 732
SWIDTH 600 0
DWIDTH 15 0
BBX 9 4 3 16
BITMAP
7180
7980
CF00
C700
ENDCHAR
STARTCHAR 02DD
ENCODING 733
SWIDTH 600 0
DWIDTH 15 0
BBX 10 4 3 16
BITMAP
39C0
39C0
7380
E700
ENDCHAR
STARTCHAR 02F3
ENCODING 755
SWIDTH 600 0
DWIDTH 15 0
BBX 7 5 4 -6
BITMAP
38
6C
C6
44
7C
ENDCHAR
STARTCHAR 02F7
ENCODING 759
SWIDTH 600 0
DWIDTH 15 0
BBX 9 4 3 -6
BITMAP
7180
7980
CF00
C700
ENDCHAR
STARTCHAR 0300
ENCODING 768
SWIDTH 600 0
DWIDTH 15 0
BBX 5 4 -11 16
BITMAP
E0
70
78
38
ENDCHAR
STARTCHAR 0301
ENCODING 769
SWIDTH 600 0
DWIDTH 15 0
BBX 5 4 -9 16
BITMAP
38
70
F0
E0
ENDCHAR
STARTCHAR 0302
ENCODING 770
SWIDTH 600 0
DWIDTH 15 0
BBX 9 4 -12 16
BITMAP
1C00
3E00
7700
E380
ENDCHAR
STARTCHAR 0303
ENCODING 771
SWIDTH 600 0
DWIDTH 15 0
BBX 9 4 -12 16
BITMAP
7180
7980
CF00
C700
ENDCHAR
STARTCHAR 0304
ENCODING 772
SWIDTH 600 0
DWIDTH 15 0
BBX 9 3 -12 17
BITMAP
FF80
FF80
FF80
ENDCHAR
STARTCHAR 0306
ENCODING 774
SWIDTH 600 0
DWIDTH 15 0
BBX 9 4 -12 16
BITMAP
E380
E380
7F00
3E00
ENDCHAR
STARTCHAR 0307
ENCODING 775
SWIDTH 600 0
DWIDTH 15 0
BBX 5 4 -10 16
BITMAP
70
F0
F8
70
ENDCHAR
STARTCHAR 0308
ENCODING 776
SWIDTH 600 0
DWIDTH 15 0
BBX 9 4 -12 16
BITMAP
E380
E380
E380
E380
ENDCHAR
STARTCHAR 0309
ENCODING 777
SWIDTH 600 0
DWIDTH 15 0
BBX 5 4 -10 17
BITMAP
F0
F8
18
38
ENDCHAR
STARTCHAR 030A
ENCODING 778
SWIDTH 600 0
DWIDTH 15 0
BBX 7 6 -11 15
BITMAP
38
7C
C6
C6
7C
38
ENDCHAR
STARTCHAR 030B
ENCODING 779
SWIDTH 600 0
DWIDTH 15 0
BBX 10 4 -12 16
BITMAP
39C0
39C0
7380
E700
ENDCHAR
STARTCHAR 030C
ENCODING 780
SWIDTH 600 0
DWIDTH 15 0
BBX 9 4 -12 16
BITMAP
E380
7700
3E00
1C00
ENDCHAR
STARTCHAR 030F
ENCODING 783
SWIDTH 600 0
DWIDTH 15 0
BBX 10 4 -13 16
BITMAP
E700
E700
7380
39C0
ENDCHAR
STARTCHAR 0312
ENCODING 786
SWIDTH 600 0
DWIDTH 15 0
BBX 6 6 -10 16
BITMAP
1C
38
38
78
70
F0
ENDCHAR
STARTCHAR 031B
ENCODING 795
SWIDTH 600 0
DWIDTH 15 0
BBX 4 5 -6 12
BITMAP
30
30
30
F0
E0
ENDCHAR
STARTCHAR 0323
ENCODING 803
SWIDTH 600 0
DWIDTH 15 0
BBX 5 4 -10 -6
BITMAP
70
F0
F8
70
ENDCHAR
STARTCHAR 0325
ENCODING 805
SWIDTH 600 0
DWIDTH 15 0
BBX 7 5 -11 -6
BITMAP
38
6C
C6
44
7C
ENDCHAR
STARTCHAR 0326
ENCODING 806
SWIDTH 600 0
DWIDTH 15 0
BBX 5 4 -10 -6
BITMAP
38
70
E0
E0
ENDCHAR
STARTCHAR 0327
ENCODING 807
SWIDTH 600 0
DWIDTH 15 0
BBX 6 6 -10 -5
BITMAP
60
40
F8
1C
FC
F8
ENDCHAR
STARTCHAR 0328
ENCODING 808
SWIDTH 600 0
DWIDTH 15 0
BBX 6 6 -11 -5
BITMAP
18
70
60
E0
7C
7C
ENDCHAR
STARTCHAR 0336
ENCODING 822
SWIDTH 600 0
DWIDTH 15 0
BBX 17 3 -16 7
BITMAP
FFFF80
FFFF80
FFFF80
ENDCHAR
STARTCHAR 0337
ENCODING 823
SWIDTH 600 0
DWIDTH 15 0
BBX 13 16 -14 -1
BITMAP
0018
0038
0070
0060
00C0
01C0
0380
0300
0700
0E00
0C00
1C00
3800
7000
6000
E000
ENDCHAR
STARTCHAR 0338
ENCODING 824
SWIDTH 600 0
DWIDTH 15 0
BBX 9 19 -12 -3
BITMAP
0180
0180
0300
0300
0300
0600
0600
0C00
0C00
1C00
1800
1800
3000
3000
7000
6000
6000
C000
C000
ENDCHAR
STARTCHAR 0374
ENCODING 884
SWIDTH 600 0
DWIDTH 15 0
BBX 6 8 4 10
BITMAP
3C
78
78
70
70
F0
E0
E0
ENDCHAR
STARTCHAR 0375
ENCODING 885
SWIDTH 600 0
DWIDTH 15 0
BBX 5 8 5 -4
BITMAP
78
70
70
F0
F0
E0
E0
E0
ENDCHAR
STARTCHAR 037E
ENCODING 894
SWIDTH 600 0
DWIDTH 15 0
BBX 5 18 5 -4
BITMAP
70
F8
F8
70
00
00
00
00
00
00
70
70
70
F0
E0
E0
E0
E0
ENDCHAR
STARTCHAR 0384
ENCODING 900
SWIDTH 600 0
DWIDTH 15 0
BBX 6 4 5 16
BITMAP
3C
78
70
E0
ENDCHAR
STARTCHAR 0385
ENCODING 901
SWIDTH 600 0
DWIDTH 15 0
BBX 9 7 3 16
BITMAP
0700
0E00
1C00
E380
E380
E380
E380
ENDCHAR
STARTCHAR 0386
ENCODING 902
SWIDTH 600 0
DWIDTH 15 0
BBX 15 18 -1 0
BITMAP
33E0
73E0
73E0
E360
0770
0770
0770
0630
0E38
0E38
0E38
0FF8
1FFC
1FFC
1C1C
3C1C
380E
380E
ENDCHAR
STARTCHAR 0387
ENCODING 903
SWIDTH 600 0
DWIDTH 15 0
BBX 5 5 5 7
BITMAP
70
F8
F8
F8
70
ENDCHAR
STARTCHAR 0388
ENCODING 904
SWIDTH 600 0
DWIDTH 15 0
BBX 17 18 -4 0
BITMAP
33FF80
73FF80
73FF80
E38000
038000
038000
038000
03FF00
03FF00
03FF00
038000
038000
038000
038000
038000
03FF80
03FF80
03FF80
ENDCHAR
STARTCHAR 0389
ENCODING 905
SWIDTH 600 0
DWIDTH 15 0
BBX 17 18 -4 0
BITMAP
338380
738380
738380
E38380
038380
038380
038380
03FF80
03FF80
03FF80
038380
038380
038380
038380
038380
038380
038380
038380
ENDCHAR
STARTCHAR 038A
ENCODING 906
SWIDTH 600 0
DWIDTH 15 0
BBX 17 18 -4 0
BITMAP
33FF80
73FF80
73FF80
E03800
003800
003800
003800
003800
003800
003800
003800
003800
003800
003800
003800
03FF80
03FF80
03FF80
ENDCHAR
STARTCHAR 038C
ENCODING 908
SWIDTH 600 0
DWIDTH 15 0
BBX 16 18 -3 0
BITMAP
30F8
73FE
77FE
E707
0707
0707
0707
0707
0707
0707
0707
0707
0707
0707
0707
07FE
03FE
00F8
ENDCHAR
STARTCHAR 038E
ENCODING 910
SWIDTH 600 0
DWIDTH 15 0
BBX 18 18 -4 0
BITMAP
3701C0
7783C0
738380
E38380
01C700
01C700
00EE00
00EE00
006C00
007C00
007C00
003800
003800
003800
003800
003800
003800
003800
ENDCHAR
STARTCHAR 038F
ENCODING 911
SWIDTH 600 0
DWIDTH 15 0
BBX 17 18 -3 0
BITMAP
30F800
73FE00
77FF00
E70700
070700
070700
070700
070700
070700
070700
070700
070700
070700
078F00
03DE00
0FDF80
0FDF80
0FDF80
ENDCHAR
STARTCHAR 0390
ENCODING 912
SWIDTH 600 0
DWIDTH 15 0
BBX 13 23 1 0
BITMAP
01C0
0380
0700
38E0
38E0
38E0
38E0
0000
0000
FF00
FF00
FF00
0700
0700
0700
0700
0700
0700
0700
0700
07F8
03F8
01F8
ENDCHAR
STARTCHAR 0391
ENCODING 913
SWIDTH 600 0
DWIDTH 15 0
BBX 13 18 1 0
BITMAP
0F80
0F80
0F80
0D80
1DC0
1DC0
1DC0
18C0
38E0
38E0
38E0
3FE0
7FF0
7FF0
7070
F070
E038
E038
ENDCHAR
STARTCHAR 0392
ENCODING 914
SWIDTH 600 0
DWIDTH 15 0
BBX 12 18 2 0
BITMAP
FF00
FFC0
FFE0
E0E0
E0E0
E0E0
E0E0
FFC0
FF00
FFC0
E1E0
E0E0
E070
E0F0
E0E0
FFE0
FFC0
FF80
ENDCHAR
STARTCHAR 0393
ENCODING 915
SWIDTH 600 0
DWIDTH 15 0
BBX 11 18 3 0
BITMAP
FFE0
FFE0
FFE0
E000
E000
E000
E000
E000
E000
E000
E000
E000
E000
E000
E000
E000
E000
E000
ENDCHAR
STARTCHAR 0394
ENCODING 916
SWIDTH 600 0
DWIDTH 15 0
BBX 13 18 1 0
BITMAP
0F80
0F80
0F80
0D80
1DC0
1DC0
1DC0
18C0
38E0
38E0
38E0
38E0
7070
7070
7070
FFF0
FFF8
FFF8
ENDCHAR
STARTCHAR 0395
ENCODING 917
SWIDTH 600 0
DWIDTH 15 0
BBX 11 18 2 0
BITMAP
FFE0
FFE0
FFE0
E000
E000
E000
E000
FFC0
FFC0
FFC0
E000
E000
E000
E000
E000
FFE0
FFE0
FFE0
ENDCHAR
STARTCHAR 0396
ENCODING 918
SWIDTH 600 0
DWIDTH 15 0
BBX 11 18 2 0
BITMAP
FFE0
FFE0
FFE0
01C0
03C0
0380
0780
0F00
0E00
1E00
1C00
3C00
3800
7000
F000
FFE0
FFE0
FFE0
ENDCHAR
STARTCHAR 0397
ENCODING 919
SWIDTH 600 0
DWIDTH 15 0
BBX 11 18 2 0
BITMAP
E0E0
E0E0
E0E0
E0E0
E0E0
E0E0
E0E0
FFE0
FFE0
FFE0
E0E0
E0E0
E0E0
E0E0
E0E0
E0E0
E0E0
E0E0
ENDCHAR
STARTCHAR 0398
ENCODING 920
SWIDTH 600 0
DWIDTH 15 0
BBX 11 18 2 0
BITMAP
1F00
7FC0
FFE0
E0E0
E0E0
E0E0
E0E0
EEE0
EEE0
EEE0
E0E0
E0E0
E0E0
E0E0
E0E0
FFE0
7FC0
1F00
ENDCHAR
STARTCHAR 0399
ENCODING 921
SWIDTH 600 0
DWIDTH 15 0
BBX 11 18 2 0
BITMAP
FFE0
FFE0
FFE0
0E00
0E00
0E00
0E00
0E00
0E00
0E00
0E00
0E00
0E00
0E00
0E00
FFE0
FFE0
FFE0
ENDCHAR
STARTCHAR 039A
ENCODING 922
SWIDTH 600 0
DWIDTH 15 0
BBX 12 18 2 0
BITMAP
E0F0
E0E0
E1E0
E1C0
E3C0
E380
E380
FF00
FF00
FF00
E780
E380
E3C0
E1C0
E1E0
E0E0
E0F0
E070
ENDCHAR
STARTCHAR 039B
ENCODING 923
SWIDTH 600 0
DWIDTH 15 0
BBX 13 18 1 0
BITMAP
0F80
0F80
0F80
0D80
1DC0
1DC0
1DC0
18C0
38E0
38E0
38E0
38E0
7070
7070
7070
F070
E038
E038
ENDCHAR
STARTCHAR 039C
ENCODING 924
SWIDTH 600 0
DWIDTH 15 0
BBX 13 18 1 0
BITMAP
F8F8
F8F8
F8F8
F8F8
EDB8
EDB8
EDB8
EDB8
E738
E738
E038
E038
E038
E038
E038
E038
E038
E038
ENDCHAR
STARTCHAR 039D
ENCODING 925
SWIDTH 600 0
DWIDTH 15 0
BBX 11 18 2 0
BITMAP
F0E0
F0E0
F0E0
F8E0
D8E0
DCE0
FCE0
ECE0
EEE0
EEE0
E6E0
E7E0
E760
E360
E3E0
E1E0
E1E0
E1E0
ENDCHAR
STARTCHAR 039E
ENCODING 926
SWIDTH 600 0
DWIDTH 15 0
BBX 11 18 2 0
BITMAP
FFE0
FFE0
FFE0
0000
0000
0000
0000
7FC0
7FC0
7FC0
0000
0000
0000
0000
0000
FFE0
FFE0
FFE0
ENDCHAR
STARTCHAR 039F
ENCODING 927
SWIDTH 600 0
DWIDTH 15 0
BBX 11 18 2 0
BITMAP
1F00
7FC0
FFC0
E0E0
E0E0
E0E0
E0E0
E0E0
E0E0
E0E0
E0E0
E0E0
E0E0
E0E0
E0E0
FFC0
7FC0
1F00
ENDCHAR
STARTCHAR 03A0
ENCODING 928
SWIDTH 600 0
DWIDTH 15 0
BBX 11 18 2 0
BITMAP
FFE0
FFE0
FFE0
E0E0
E0E0
E0E0
E0E0
E0E0
E0E0
E0E0
E0E0
E0E0
E0E0
E0E0
E0E0
E0E0
E0E0
E0E0
ENDCHAR
STARTCHAR 03A1
ENCODING 929
SWIDTH 600 0
DWIDTH 15 0
BBX 12 18 2 0
BITMAP
FF80
FFC0
FFE0
E0F0
E070
E070
E070
E0F0
FFE0
FFC0
FF80
E000
E000
E000
E000
E000
E000
E000
ENDCHAR
STARTCHAR 03A3
ENCODING 931
SWIDTH 600 0
DWIDTH 15 0
BBX 12 18 2 0
BITMAP
FFF0
FFF0
FFF0
F000
7800
3C00
1E00
0E00
0700
0F00
0E00
1C00
3C00
7800
F000
FFF0
FFF0
FFF0
ENDCHAR
STARTCHAR 03A4
ENCODING 932
SWIDTH 600 0
DWIDTH 15 0
BBX 13 18 1 0
BITMAP
FFF8
FFF8
FFF8
0700
0700
0700
0700
0700
0700
0700
0700
0700
0700
0700
0700
0700
0700
0700
ENDCHAR
STARTCHAR 03A5
ENCODING 933
SWIDTH 600 0
DWIDTH 15 0
BBX 13 18 1 0
BITMAP
E038
F078
7070
7070
38E0
38E0
1DC0
1DC0
0D80
0F80
0F80
0700
0700
0700
0700
0700
0700
0700
ENDCHAR
STARTCHAR 03A6
ENCODING 934
SWIDTH 600 0
DWIDTH 15 0
BBX 13 20 1 -1
BITMAP
0700
0700
1FC0
7FF0
7FF0
E738
E738
E738
E738
E738
E738
E738
E738
E738
E738
7FF0
7FF0
1FC0
0700
0700
ENDCHAR
STARTCHAR 03A7
ENCODING 935
SWIDTH 600 0
DWIDTH 15 0
BBX 13 18 1 0
BITMAP
F078
7070
78F0
38E0
3DE0
1DC0
0F80
0F80
0700
0F80
0F80
1DC0
1DC0
39E0
38E0
70F0
7070
E038
ENDCHAR
STARTCHAR 03A8
ENCODING 936
SWIDTH 600 0
DWIDTH 15 0
BBX 13 18 1 0
BITMAP
E738
E738
E738
E738
E738
E738
E738
E738
E738
E738
F778
7FF0
3FE0
0700
0700
0700
0700
0700
ENDCHAR
STARTCHAR 03A9
ENCODING 937
SWIDTH 600 0
DWIDTH 15 0
BBX 13 18 1 0
BITMAP
0F80
3FE0
7FF0
7070
7070
7070
7070
7070
7070
7070
7070
7070
7070
78F0
3DE0
FDF8
FDF8
FDF8
ENDCHAR
STARTCHAR 03AA
ENCODING 938
SWIDTH 600 0
DWIDTH 15 0
BBX 11 24 2 0
BITMAP
71C0
71C0
71C0
71C0
0000
0000
FFE0
FFE0
FFE0
0E00
0E00
0E00
0E00
0E00
0E00
0E00
0E00
0E00
0E00
0E00
0E00
FFE0
FFE0
FFE0
ENDCHAR
STARTCHAR 03AB
ENCODING 939
SWIDTH 600 0
DWIDTH 15 0
BBX 13 24 1 0
BITMAP
38E0
38E0
38E0
38E0
0000
0000
E038
F078
7070
7070
38E0
38E0
1DC0
1DC0
0D80
0F80
0F80
0700
0700
0700
0700
0700
0700
0700
ENDCHAR
STARTCHAR 03AC
ENCODING 940
SWIDTH 600 0
DWIDTH 15 0
BBX 11 20 2 0
BITMAP
0380
0700
0F00
0E00
0000
0000
3CE0
7EE0
FFE0
E1E0
E0E0
E0E0
E0E0
E0E0
E0E0
E0E0
E1E0
FFE0
7EE0
3CE0
ENDCHAR
STARTCHAR 03AD
ENCODING 941
SWIDTH 600 0
DWIDTH 15 0
BBX 13 20 1 0
BITMAP
01C0
03C0
0380
0700
0000
0000
1FC0
3FF0
7FF0
7070
7000
3F80
1F80
7F80
7000
F000
F038
7FF0
3FF0
1FC0
ENDCHAR
STARTCHAR 03AE
ENCODING 942
SWIDTH 600 0
DWIDTH 15 0
BBX 11 20 2 0
BITMAP
03C0
0780
0700
0E00
0000
0000
E780
EFC0
FFE0
F1E0
E0E0
E0E0
E0E0
E0E0
E0E0
E0E0
E0E0
E0E0
E0E0
E0E0
ENDCHAR
STARTCHAR 03AF
ENCODING 943
SWIDTH 600 0
DWIDTH 15 0
BBX 13 20 1 0
BITMAP
01E0
03C0
0380
0700
0000
0000
FF00
FF00
FF00
0700
0700
0700
0700
0700
0700
0700
0700
07F8
03F8
01F8
ENDCHAR
STARTCHAR 03B0
ENCODING 944
SWIDTH 600 0
DWIDTH 15 0
BBX 11 23 2 0
BITMAP
0380
0700
0E00
71C0
71C0
71C0
71C0
0000
0000
E0E0
E0E0
E0E0
E0E0
E0E0
E0E0
E0E0
E0E0
E0E0
E0E0
F1E0
7FC0
7FC0
1F00
ENDCHAR
STARTCHAR 03B1
ENCODING 945
SWIDTH 600 0
DWIDTH 15 0
BBX 11 14 2 0
BITMAP
3CE0
7EE0
FFE0
E1E0
E0E0
E0E0
E0E0
E0E0
E0E0
E0E0
E1E0
FFE0
7EE0
3CE0
ENDCHAR
STARTCHAR 03B2
ENCODING 946
SWIDTH 600 0
DWIDTH 15 0
BBX 12 22 2 -4
BITMAP
1F00
7FC0
7FE0
F0E0
E0E0
E0E0
E7C0
E780
E7C0
E1E0
E0F0
E070
E070
E0F0
F0F0
FFE0
FFC0
EF80
E000
E000
E000
E000
ENDCHAR
STARTCHAR 03B3
ENCODING 947
SWIDTH 600 0
DWIDTH 15 0
BBX 13 18 1 -4
BITMAP
E038
7070
7070
7070
38E0
38E0
38E0
1DC0
1DC0
1DC0
0D80
0F80
0700
0700
0700
0700
0700
0700
ENDCHAR
STARTCHAR 03B4
ENCODING 948
SWIDTH 600 0
DWIDTH 15 0
BBX 11 18 2 0
BITMAP
FFE0
FFE0
FFE0
3C00
0E00
3F00
7F80
FFC0
F0E0
E0E0
E0E0
E0E0
E0E0
E0E0
E1E0
7FC0
7FC0
1F00
ENDCHAR
STARTCHAR 03B5
ENCODING 949
SWIDTH 600 0
DWIDTH 15 0
BBX 13 14 1 0
BITMAP
1FC0
3FF0
7FF0
7070
7000
3F80
1F80
7F80
7000
F000
F038
7FF0
3FF0
1FC0
ENDCHAR
STARTCHAR 03B6
ENCODING 950
SWIDTH 600 0
DWIDTH 15 0
BBX 12 23 2 -5
BITMAP
7FF0
7FF0
7FF0
01E0
03C0
0780
1F00
1E00
3C00
7800
7000
7000
F000
7000
7C00
3F80
1FE0
07F0
00F0
0070
00E0
00E0
0040
ENDCHAR
STARTCHAR 03B7
ENCODING 951
SWIDTH 600 0
DWIDTH 15 0
BBX 11 14 2 0
BITMAP
E780
EFC0
FFE0
F1E0
E0E0
E0E0
E0E0
E0E0
E0E0
E0E0
E0E0
E0E0
E0E0
E0E0
ENDCHAR
STARTCHAR 03B8
ENCODING 952
SWIDTH 600 0
DWIDTH 15 0
BBX 11 18 2 0
BITMAP
1F00
7FC0
FFC0
E0E0
E0E0
E0E0
E0E0
FFE0
FFE0
FFE0
E0E0
E0E0
E0E0
E0E0
E1E0
FFE0
7FC0
1F00
ENDCHAR
STARTCHAR 03B9
ENCODING 953
SWIDTH 600 0
DWIDTH 15 0
BBX 13 14 1 0
BITMAP
FF00
FF00
FF00
0700
0700
0700
0700
0700
0700
0700
0700
07F8
03F8
01F8
ENDCHAR
STARTCHAR 03BA
ENCODING 954
SWIDTH 600 0
DWIDTH 15 0
BBX 12 14 2 0
BITMAP
E0F0
E0E0
E1E0
E1C0
E380
FF80
FF00
FF80
E380
E3C0
E1C0
E1E0
E0F0
E070
ENDCHAR
STARTCHAR 03BB
ENCODING 955
SWIDTH 600 0
DWIDTH 15 0
BBX 13 18 1 0
BITMAP
1E00
0E00
0E00
0700
0700
0780
0F80
0F80
0DC0
1DC0
1DC0
3CE0
38E0
38E0
7070
7070
F078
E038
ENDCHAR
STARTCHAR 03BC
ENCODING 956
SWIDTH 600 0
DWIDTH 15 0
BBX 11 18 2 -4
BITMAP
E0E0
E0E0
E0E0
E0E0
E0E0
E0E0
E0E0
E0E0
E0E0
E0E0
F1E0
FFE0
FFE0
EEE0
E000
E000
E000
E000
ENDCHAR
STARTCHAR 03BD
ENCODING 957
SWIDTH 600 0
DWIDTH 15 0
BBX 13 14 1 0
BITMAP
E038
F078
7070
7070
78F0
38E0
38E0
3DE0
1DC0
1DC0
1DC0
0F80
0F80
0F80
ENDCHAR
STARTCHAR 03BE
ENCODING 958
SWIDTH 600 0
DWIDTH 15 0
BBX 12 23 2 -5
BITMAP
1F80
3FC0
7FE0
F0E0
E070
E000
7000
3FC0
1FC0
7FC0
F000
E000
E000
E000
F000
FE00
7FC0
1FE0
03F0
00E0
00E0
01E0
00C0
ENDCHAR
STARTCHAR 03BF
ENCODING 959
SWIDTH 600 0
DWIDTH 15 0
BBX 11 14 2 0
BITMAP
1F00
7FC0
FFC0
E0E0
E0E0
E0E0
E0E0
E0E0
E0E0
E0E0
E0E0
FFE0
7FC0
1F00
ENDCHAR
STARTCHAR 03C0
ENCODING 960
SWIDTH 600 0
DWIDTH 15 0
BBX 14 14 0 0
BITMAP
FFFC
FFFC
FFFC
3870
3870
3870
3870
3870
3870
3870
3870
387C
383C
381C
ENDCHAR
STARTCHAR 03C1
ENCODING 961
SWIDTH 600 0
DWIDTH 15 0
BBX 11 18 2 -4
BITMAP
1F00
7FC0
7FE0
F1E0
E0E0
E0E0
E0E0
E0E0
E0E0
E0E0
F1E0
FFE0
EFC0
E780
E000
E000
E000
E000
ENDCHAR
STARTCHAR 03C2
ENCODING 962
SWIDTH 600 0
DWIDTH 15 0
BBX 11 18 2 -4
BITMAP
1F00
7FC0
7FE0
F0E0
E0E0
E000
E000
E000
E000
F000
F800
7F80
3FC0
07E0
00E0
01C0
01C0
0180
ENDCHAR
STARTCHAR 03C3
ENCODING 963
SWIDTH 600 0
DWIDTH 15 0
BBX 12 14 2 0
BITMAP
1FF0
7FF0
FFF0
F1C0
E0E0
E0E0
E0E0
E0E0
E0E0
E0E0
F1E0
FFC0
7FC0
1F00
ENDCHAR
STARTCHAR 03C4
ENCODING 964
SWIDTH 600 0
DWIDTH 15 0
BBX 12 14 1 0
BITMAP
FFF0
FFF0
FFF0
0E00
0E00
0E00
0E00
0E00
0E00
0E00
0E00
0FF0
07F0
03F0
ENDCHAR
STARTCHAR 03C5
ENCODING 965
SWIDTH 600 0
DWIDTH 15 0
BBX 11 14 2 0
BITMAP
E0E0
E0E0
E0E0
E0E0
E0E0
E0E0
E0E0
E0E0
E0E0
E0E0
F1E0
7FC0
7FC0
1F00
ENDCHAR
STARTCHAR 03C6
ENCODING 966
SWIDTH 600 0
DWIDTH 15 0
BBX 13 18 1 -4
BITMAP
37C0
77F0
77F0
E738
E738
E738
E738
E738
E738
E738
E738
7FF0
7FF0
1FC0
0700
0700
0700
0700
ENDCHAR
STARTCHAR 03C7
ENCODING 967
SWIDTH 600 0
DWIDTH 15 0
BBX 13 14 1 0
BITMAP
7070
78F0
38E0
1DE0
1DC0
0F80
0780
0F80
0F80
1DC0
3DE0
38E0
7070
F078
ENDCHAR
STARTCHAR 03C8
ENCODING 968
SWIDTH 600 0
DWIDTH 15 0
BBX 13 18 1 -4
BITMAP
E738
E738
E738
E738
E738
E738
E738
E738
E738
E738
E738
7FF0
7FF0
1FC0
0700
0700
0700
0700
ENDCHAR
STARTCHAR 03C9
ENCODING 969
SWIDTH 600 0
DWIDTH 15 0
BBX 13 14 1 0
BITMAP
3060
7070
7070
E038
E038
E738
E738
E738
E738
E738
E738
FDF8
7DF0
38E0
ENDCHAR
STARTCHAR 03CA
ENCODING 970
SWIDTH 600 0
DWIDTH 15 0
BBX 13 20 1 0
BITMAP
38E0
38E0
38E0
38E0
0000
0000
FF00
FF00
FF00
0700
0700
0700
0700
0700
0700
0700
0700
07F8
03F8
01F8
ENDCHAR
STARTCHAR 03CB
ENCODING 971
SWIDTH 600 0
DWIDTH 15 0
BBX 11 20 2 0
BITMAP
71C0
71C0
71C0
71C0
0000
0000
E0E0
E0E0
E0E0
E0E0
E0E0
E0E0
E0E0
E0E0
E0E0
E0E0
F1E0
7FC0
7FC0
1F00
ENDCHAR
STARTCHAR 03CC
ENCODING 972
SWIDTH 600 0
DWIDTH 15 0
BBX 11 20 2 0
BITMAP
03C0
0780
0700
0E00
0000
0000
1F00
7FC0
FFC0
E0E0
E0E0
E0E0
E0E0
E0E0
E0E0
E0E0
E0E0
FFE0
7FC0
1F00
ENDCHAR
STARTCHAR 03CD
ENCODING 973
SWIDTH 600 0
DWIDTH 15 0
BBX 11 20 2 0
BITMAP
03C0
0780
0700
0E00
0000
0000
E0E0
E0E0
E0E0
E0E0
E0E0
E0E0
E0E0
E0E0
E0E0
E0E0
F1E0
7FC0
7FC0
1F00
ENDCHAR
STARTCHAR 03CE
ENCODING 974
SWIDTH 600 0
DWIDTH 15 0
BBX 13 20 1 0
BITMAP
03C0
0780
0700
0E00
0000
0000
3060
7070
7070
E038
E038
E738
E738
E738
E738
E738
E738
FDF8
7DF0
38E0
ENDCHAR
STARTCHAR 03CF
ENCODING 975
SWIDTH 600 0
DWIDTH 15 0
BBX 13 22 2 -4
BITMAP
E0F0
E0E0
E1E0
E1C0
E3C0
E380
E780
FF00
FF00
FF00
E380
E380
E3C0
E1C0
E1E0
E0E0
E0F8
E078
0030
01F0
01F0
01C0
ENDCHAR
STARTCHAR 03D5
ENCODING 981
SWIDTH 600 0
DWIDTH 15 0
BBX 13 22 1 -4
BITMAP
0700
0700
0700
0700
1FC0
7FF0
7FF0
E738
E738
E738
E738
E738
E738
E738
E738
7FF0
7FF0
1FC0
0700
0700
0700
0700
ENDCHAR
STARTCHAR 03D6
ENCODING 982
SWIDTH 600 0
DWIDTH 15 0
BBX 15 14 0 0
BITMAP
FFFE
FFFE
FFFE
3018
701C
739C
739C
739C
739C
739C
739C
7EFC
3EF8
1C70
ENDCHAR
STARTCHAR 03D7
ENCODING 983
SWIDTH 600 0
DWIDTH 15 0
BBX 12 18 2 -4
BITMAP
E1E0
E1E0
E3E0
E3E0
E7E0
E6E0
EEE0
EEE0
ECE0
FCE0
F8E0
F8E0
F0F0
F0F0
0070
03F0
03E0
03C0
ENDCHAR
STARTCHAR 0401
ENCODING 1025
SWIDTH 600 0
DWIDTH 15 0
BBX 11 24 2 0
BITMAP
71C0
71C0
71C0
71C0
0000
0000
FFE0
FFE0
FFE0
E000
E000
E000
E000
FFC0
FFC0
FFC0
E000
E000
E000
E000
E000
FFE0
FFE0
FFE0
ENDCHAR
STARTCHAR 0402
ENCODING 1026
SWIDTH 600 0
DWIDTH 15 0
BBX 14 22 0 -4
BITMAP
FF80
FF80
FF80
1C00
1C00
1CF0
1FF8
1FFC
1E3C
1C1C
1C1C
1C1C
1C1C
1C1C
1C1C
1C1C
1C1C
1C1C
003C
01F8
01F0
01E0
ENDCHAR
STARTCHAR 0403
ENCODING 1027
SWIDTH 600 0
DWIDTH 15 0
BBX 11 24 3 0
BITMAP
0380
0700
0F00
0E00
0000
0000
FFE0
FFE0
FFE0
E000
E000
E000
E000
E000
E000
E000
E000
E000
E000
E000
E000
E000
E000
E000
ENDCHAR
STARTCHAR 0404
ENCODING 1028
SWIDTH 600 0
DWIDTH 15 0
BBX 11 18 2 0
BITMAP
1F00
7FC0
7FE0
F0E0
E0E0
E000
E000
FF00
FF00
FF00
E000
E000
E000
E0E0
F0E0
7FE0
7FC0
1F00
ENDCHAR
STARTCHAR 0405
ENCODING 1029
SWIDTH 600 0
DWIDTH 15 0
BBX 13 18 1 0
BITMAP
0F80
3FE0
7FE0
70F0
7070
7000
7800
3F00
3FC0
0FE0
00F0
0070
0078
F078
7070
7FF0
3FE0
0F80
ENDCHAR
STARTCHAR 0406
ENCODING 1030
SWIDTH 600 0
DWIDTH 15 0
BBX 11 18 2 0
BITMAP
FFE0
FFE0
FFE0
0E00
0E00
0E00
0E00
0E00
0E00
0E00
0E00
0E00
0E00
0E00
0E00
FFE0
FFE0
FFE0
ENDCHAR
STARTCHAR 0407
ENCODING 1031
SWIDTH 600 0
DWIDTH 15 0
BBX 11 24 2 0
BITMAP
71C0
71C0
71C0
71C0
0000
0000
FFE0
FFE0
FFE0
0E00
0E00
0E00
0E00
0E00
0E00
0E00
0E00
0E00
0E00
0E00
0E00
FFE0
FFE0
FFE0
ENDCHAR
STARTCHAR 0408
ENCODING 1032
SWIDTH 600 0
DWIDTH 15 0
BBX 12 18 1 0
BITMAP
0070
0070
0070
0070
0070
0070
0070
0070
0070
0070
0070
0070
E070
E0F0
F0E0
7FE0
7FC0
1F80
ENDCHAR
STARTCHAR 0409
ENCODING 1033
SWIDTH 600 0
DWIDTH 15 0
BBX 15 18 0 0
BITMAP
3F80
3F80
3F80
3980
3980
3980
3980
39F0
39FC
39FC
398E
398E
398E
318E
718E
F1FC
F1FC
C1F0
ENDCHAR
STARTCHAR 040A
ENCODING 1034
SWIDTH 600 0
DWIDTH 15 0
BBX 14 18 1 0
BITMAP
E300
E300
E300
E300
E300
E300
E300
FFE0
FFF8
E338
E31C
E31C
E31C
E31C
E31C
E338
E3F8
E3E0
ENDCHAR
STARTCHAR 040B
ENCODING 1035
SWIDTH 600 0
DWIDTH 15 0
BBX 14 18 0 0
BITMAP
FF80
FF80
FF80
1C00
1C00
1C60
1DF8
1FF8
1F3C
1E1C
1C1C
1C1C
1C1C
1C1C
1C1C
1C1C
1C1C
1C1C
ENDCHAR
STARTCHAR 040C
ENCODING 1036
SWIDTH 600 0
DWIDTH 15 0
BBX 12 24 2 0
BITMAP
0380
0700
0F00
0E00
0000
0000
E0F0
E0E0
E1E0
E1C0
E3C0
E380
E380
FF00
FF00
FF00
E780
E380
E3C0
E1C0
E1E0
E0E0
E0F0
E070
ENDCHAR
STARTCHAR 040E
ENCODING 1038
SWIDTH 600 0
DWIDTH 15 0
BBX 13 24 1 0
BITMAP
38E0
38E0
1FC0
0F80
0000
0000
E038
F078
7070
7070
38F0
38E0
3CE0
1DC0
1DC0
0DC0
0F80
0F80
0780
0700
0700
0F00
0E00
0E00
ENDCHAR
STARTCHAR 040F
ENCODING 1039
SWIDTH 600 0
DWIDTH 15 0
BBX 11 21 2 -3
BITMAP
E0E0
E0E0
E0E0
E0E0
E0E0
E0E0
E0E0
E0E0
E0E0
E0E0
E0E0
E0E0
E0E0
E0E0
E0E0
FFE0
FFE0
FFE0
0E00
0E00
0E00
ENDCHAR
STARTCHAR 0410
ENCODING 1040
SWIDTH 600 0
DWIDTH 15 0
BBX 13 18 1 0
BITMAP
0F80
0F80
0F80
0D80
1DC0
1DC0
1DC0
18C0
38E0
38E0
38E0
3FE0
7FF0
7FF0
7070
F070
E038
E038
ENDCHAR
STARTCHAR 0411
ENCODING 1041
SWIDTH 600 0
DWIDTH 15 0
BBX 12 18 2 0
BITMAP
FFE0
FFE0
FFE0
E000
E000
E000
E000
FF00
FFC0
FFE0
E0E0
E0F0
E070
E0F0
E0E0
FFE0
FFC0
FF00
ENDCHAR
STARTCHAR 0412
ENCODING 1042
SWIDTH 600 0
DWIDTH 15 0
BBX 12 18 2 0
BITMAP
FF00
FFC0
FFE0
E0E0
E0E0
E0E0
E0E0
FFC0
FF00
FFC0
E1E0
E0E0
E070
E0F0
E0E0
FFE0
FFC0
FF80
ENDCHAR
STARTCHAR 0413
ENCODING 1043
SWIDTH 600 0
DWIDTH 15 0
BBX 11 18 3 0
BITMAP
FFE0
FFE0
FFE0
E000
E000
E000
E000
E000
E000
E000
E000
E000
E000
E000
E000
E000
E000
E000
ENDCHAR
STARTCHAR 0414
ENCODING 1044
SWIDTH 600 0
DWIDTH 15 0
BBX 13 21 1 -3
BITMAP
3FF0
3FF0
3FF0
3870
3870
3870
3870
3870
3870
3870
3870
3870
3870
7070
7070
FFF8
FFF8
FFF8
C018
C018
C018
ENDCHAR
STARTCHAR 0415
ENCODING 1045
SWIDTH 600 0
DWIDTH 15 0
BBX 11 18 2 0
BITMAP
FFE0
FFE0
FFE0
E000
E000
E000
E000
FFC0
FFC0
FFC0
E000
E000
E000
E000
E000
FFE0
FFE0
FFE0
ENDCHAR
STARTCHAR 0416
ENCODING 1046
SWIDTH 600 0
DWIDTH 15 0
BBX 15 18 0 0
BITMAP
E38E
638C
739C
739C
3398
3BB8
3BB8
1BB0
1FF0
1FF0
3BB0
3BB8
33B8
7398
739C
739C
E38C
E38E
ENDCHAR
STARTCHAR 0417
ENCODING 1047
SWIDTH 600 0
DWIDTH 15 0
BBX 13 18 1 0
BITMAP
0F80
3FE0
7FF0
70F0
7070
0070
00F0
0FE0
0FC0
0FE0
0070
0078
0078
E078
F070
7FF0
3FE0
1F80
ENDCHAR
STARTCHAR 0418
ENCODING 1048
SWIDTH 600 0
DWIDTH 15 0
BBX 11 18 2 0
BITMAP
E1E0
E1E0
E3E0
E3E0
E360
E760
E7E0
E6E0
EEE0
EEE0
ECE0
FCE0
DCE0
D8E0
F8E0
F8E0
F0E0
F0E0
ENDCHAR
STARTCHAR 0419
ENCODING 1049
SWIDTH 600 0
DWIDTH 15 0
BBX 11 24 2 0
BITMAP
71C0
71C0
3F80
1F00
0000
0000
E1E0
E1E0
E3E0
E3E0
E360
E760
E7E0
E6E0
EEE0
EEE0
ECE0
FCE0
DCE0
D8E0
F8E0
F8E0
F0E0
F0E0
ENDCHAR
STARTCHAR 041A
ENCODING 1050
SWIDTH 600 0
DWIDTH 15 0
BBX 12 18 2 0
BITMAP
E0F0
E0E0
E1E0
E1C0
E3C0
E380
E380
FF00
FF00
FF00
E780
E380
E3C0
E1C0
E1E0
E0E0
E0F0
E070
ENDCHAR
STARTCHAR 041B
ENCODING 1051
SWIDTH 600 0
DWIDTH 15 0
BBX 13 18 0 0
BITMAP
1FF8
1FF8
1FF8
1C38
1C38
1C38
1C38
1C38
1C38
1C38
1C38
1C38
1C38
1C38
3C38
F838
F838
E038
ENDCHAR
STARTCHAR 041C
ENCODING 1052
SWIDTH 600 0
DWIDTH 15 0
BBX 13 18 1 0
BITMAP
F8F8
F8F8
F8F8
F8F8
EDB8
EDB8
EDB8
EDB8
E738
E738
E038
E038
E038
E038
E038
E038
E038
E038
ENDCHAR
STARTCHAR 041D
ENCODING 1053
SWIDTH 600 0
DWIDTH 15 0
BBX 11 18 2 0
BITMAP
E0E0
E0E0
E0E0
E0E0
E0E0
E0E0
E0E0
FFE0
FFE0
FFE0
E0E0
E0E0
E0E0
E0E0
E0E0
E0E0
E0E0
E0E0
ENDCHAR
STARTCHAR 041E
ENCODING 1054
SWIDTH 600 0
DWIDTH 15 0
BBX 11 18 2 0
BITMAP
1F00
7FC0
FFC0
E0E0
E0E0
E0E0
E0E0
E0E0
E0E0
E0E0
E0E0
E0E0
E0E0
E0E0
E0E0
FFC0
7FC0
1F00
ENDCHAR
STARTCHAR 041F
ENCODING 1055
SWIDTH 600 0
DWIDTH 15 0
BBX 11 18 2 0
BITMAP
FFE0
FFE0
FFE0
E0E0
E0E0
E0E0
E0E0
E0E0
E0E0
E0E0
E0E0
E0E0
E0E0
E0E0
E0E0
E0E0
E0E0
E0E0
ENDCHAR
STARTCHAR 0420
ENCODING 1056
SWIDTH 600 0
DWIDTH 15 0
BBX 12 18 2 0
BITMAP
FF80
FFC0
FFE0
E0F0
E070
E070
E070
E0F0
FFE0
FFC0
FF80
E000
E000
E000
E000
E000
E000
E000
ENDCHAR
STARTCHAR 0421
ENCODING 1057
SWIDTH 600 0
DWIDTH 15 0
BBX 11 18 2 0
BITMAP
1F00
7FC0
7FE0
F0E0
E0E0
E000
E000
E000
E000
E000
E000
E000
E000
E0E0
F0E0
7FE0
7FC0
1F00
ENDCHAR
STARTCHAR 0422
ENCODING 1058
SWIDTH 600 0
DWIDTH 15 0
BBX 13 18 1 0
BITMAP
FFF8
FFF8
FFF8
0700
0700
0700
0700
0700
0700
0700
0700
0700
0700
0700
0700
0700
0700
0700
ENDCHAR
STARTCHAR 0423
ENCODING 1059
SWIDTH 600 0
DWIDTH 15 0
BBX 13 18 1 0
BITMAP
E038
F078
7070
7070
38F0
38E0
3CE0
1DC0
1DC0
0DC0
0F80
0F80
0780
0700
0700
0F00
0E00
0E00
ENDCHAR
STARTCHAR 0424
ENCODING 1060
SWIDTH 600 0
DWIDTH 15 0
BBX 13 20 1 -1
BITMAP
0700
0700
1FC0
7FF0
7FF0
E738
E738
E738
E738
E738
E738
E738
E738
E738
E738
7FF0
7FF0
1FC0
0700
0700
ENDCHAR
STARTCHAR 0425
ENCODING 1061
SWIDTH 600 0
DWIDTH 15 0
BBX 13 18 1 0
BITMAP
F078
7070
78F0
38E0
3DE0
1DC0
0F80
0F80
0700
0F80
0F80
1DC0
1DC0
39E0
38E0
70F0
7070
E038
ENDCHAR
STARTCHAR 0426
ENCODING 1062
SWIDTH 600 0
DWIDTH 15 0
BBX 12 21 2 -3
BITMAP
E1C0
E1C0
E1C0
E1C0
E1C0
E1C0
E1C0
E1C0
E1C0
E1C0
E1C0
E1C0
E1C0
E1C0
E1C0
FFF0
FFF0
FFF0
0070
0070
0070
ENDCHAR
STARTCHAR 0427
ENCODING 1063
SWIDTH 600 0
DWIDTH 15 0
BBX 12 18 1 0
BITMAP
F070
F070
F070
F070
F070
F070
F070
7070
7070
7FF0
3FF0
0FF0
0070
0070
0070
0070
0070
0070
ENDCHAR
STARTCHAR 0428
ENCODING 1064
SWIDTH 600 0
DWIDTH 15 0
BBX 13 18 1 0
BITMAP
E738
E738
E738
E738
E738
E738
E738
E738
E738
E738
E738
E738
E738
E738
E738
FFF8
FFF8
FFF8
ENDCHAR
STARTCHAR 0429
ENCODING 1065
SWIDTH 600 0
DWIDTH 15 0
BBX 14 21 1 -3
BITMAP
E630
E630
E630
E630
E630
E630
E630
E630
E630
E630
E630
E630
E630
E630
E630
FFFC
FFFC
FFFC
001C
001C
001C
ENDCHAR
STARTCHAR 042A
ENCODING 1066
SWIDTH 600 0
DWIDTH 15 0
BBX 14 18 0 0
BITMAP
FC00
FC00
FC00
1C00
1C00
1C00
1C00
1FE0
1FF0
1FF8
1C3C
1C1C
1C1C
1C1C
1C3C
1FF8
1FF0
1FE0
ENDCHAR
STARTCHAR 042B
ENCODING 1067
SWIDTH 600 0
DWIDTH 15 0
BBX 13 18 1 0
BITMAP
E038
E038
E038
E038
E038
E038
E038
FC38
FF38
EF38
E3B8
E3B8
E3B8
E3B8
E3B8
EF38
FF38
FC38
ENDCHAR
STARTCHAR 042C
ENCODING 1068
SWIDTH 600 0
DWIDTH 15 0
BBX 12 18 2 0
BITMAP
E000
E000
E000
E000
E000
E000
E000
FF80
FFC0
FFE0
E0F0
E070
E070
E070
E0F0
FFE0
FFC0
FF80
ENDCHAR
STARTCHAR 042D
ENCODING 1069
SWIDTH 600 0
DWIDTH 15 0
BBX 11 18 2 0
BITMAP
1F00
7FC0
FFC0
E1E0
E0E0
00E0
00E0
1FE0
1FE0
1FE0
00E0
00E0
00E0
E0E0
E1E0
FFC0
7FC0
1F00
ENDCHAR
STARTCHAR 042E
ENCODING 1070
SWIDTH 600 0
DWIDTH 15 0
BBX 13 18 1 0
BITMAP
E1E0
E3F0
E7F8
E738
E618
E618
E618
FE18
FE18
FE18
E618
E618
E618
E618
E738
E7F8
E3F0
E1E0
ENDCHAR
STARTCHAR 042F
ENCODING 1071
SWIDTH 600 0
DWIDTH 15 0
BBX 12 18 1 0
BITMAP
0FF0
3FF0
7FF0
7070
F070
E070
F070
7070
7FF0
3FF0
0FF0
1C70
1C70
3C70
3870
7870
7070
F070
ENDCHAR
STARTCHAR 0430
ENCODING 1072
SWIDTH 600 0
DWIDTH 15 0
BBX 12 14 1 0
BITMAP
0F80
3FE0
7FF0
7070
0070
1FF0
3FF0
7070
7070
F070
70F0
7FF0
7F70
1E70
ENDCHAR
STARTCHAR 0431
ENCODING 1073
SWIDTH 600 0
DWIDTH 15 0
BBX 11 19 2 0
BITMAP
0040
1FC0
7FC0
7FC0
F000
E000
CF80
DFC0
FFE0
F1E0
E0E0
E0E0
E0E0
E0E0
E0E0
F1E0
FFE0
7FC0
1F00
ENDCHAR
STARTCHAR 0432
ENCODING 1074
SWIDTH 600 0
DWIDTH 15 0
BBX 12 14 2 0
BITMAP
FF80
FFC0
FFE0
E0E0
E0E0
E0E0
FF80
FFC0
E0E0
E0F0
E0F0
FFE0
FFE0
FF80
ENDCHAR
STARTCHAR 0433
ENCODING 1075
SWIDTH 600 0
DWIDTH 15 0
BBX 10 14 3 0
BITMAP
FFC0
FFC0
FFC0
E000
E000
E000
E000
E000
E000
E000
E000
E000
E000
E000
ENDCHAR
STARTCHAR 0434
ENCODING 1076
SWIDTH 600 0
DWIDTH 15 0
BBX 13 17 1 -3
BITMAP
3FF0
3FF0
3FF0
3870
3870
3870
3870
3870
3870
7070
7070
FFF8
FFF8
FFF8
C038
C038
C038
ENDCHAR
STARTCHAR 0435
ENCODING 1077
SWIDTH 600 0
DWIDTH 15 0
BBX 11 14 2 0
BITMAP
1F00
7FC0
FFC0
E0E0
E0E0
E0E0
FFE0
FFE0
E000
E000
E0E0
FFE0
7FC0
1F00
ENDCHAR
STARTCHAR 0436
ENCODING 1078
SWIDTH 600 0
DWIDTH 15 0
BBX 15 14 0 0
BITMAP
E38E
739C
739C
3398
3BB8
3BB8
1FF0
1FF0
3BB8
3BB8
3398
739C
738C
E38E
ENDCHAR
STARTCHAR 0437
ENCODING 1079
SWIDTH 600 0
DWIDTH 15 0
BBX 13 14 1 0
BITMAP
1FC0
7FE0
7FF0
7070
0070
0FE0
0FE0
0FF0
0070
0078
E078
7FF0
7FE0
1FC0
ENDCHAR
STARTCHAR 0438
ENCODING 1080
SWIDTH 600 0
DWIDTH 15 0
BBX 11 14 2 0
BITMAP
E1E0
E1E0
E3E0
E3E0
E7E0
E6E0
EEE0
EEE0
ECE0
FCE0
F8E0
F8E0
F0E0
F0E0
ENDCHAR
STARTCHAR 0439
ENCODING 1081
SWIDTH 600 0
DWIDTH 15 0
BBX 11 20 2 0
BITMAP
71C0
71C0
3F80
1F00
0000
0000
E1E0
E1E0
E3E0
E3E0
E7E0
E6E0
EEE0
EEE0
ECE0
FCE0
F8E0
F8E0
F0E0
F0E0
ENDCHAR
STARTCHAR 043A
ENCODING 1082
SWIDTH 600 0
DWIDTH 15 0
BBX 12 14 2 0
BITMAP
E0F0
E0E0
E1E0
E1C0
E380
FF80
FF00
FF80
E380
E3C0
E1C0
E1E0
E0F0
E070
ENDCHAR
STARTCHAR 043B
ENCODING 1083
SWIDTH 600 0
DWIDTH 15 0
BBX 12 14 1 0
BITMAP
3FF0
3FF0
3FF0
3870
3870
3870
3870
3870
3870
3870
7870
F070
F070
E070
ENDCHAR
STARTCHAR 043C
ENCODING 1084
SWIDTH 600 0
DWIDTH 15 0
BBX 13 14 1 0
BITMAP
F0F8
F8F8
F8F8
F9B8
EDB8
EDB8
EFB8
E738
E738
E038
E038
E038
E038
E038
ENDCHAR
STARTCHAR 043D
ENCODING 1085
SWIDTH 600 0
DWIDTH 15 0
BBX 11 14 2 0
BITMAP
E0E0
E0E0
E0E0
E0E0
E0E0
FFE0
FFE0
FFE0
E0E0
E0E0
E0E0
E0E0
E0E0
E0E0
ENDCHAR
STARTCHAR 043E
ENCODING 1086
SWIDTH 600 0
DWIDTH 15 0
BBX 11 14 2 0
BITMAP
1F00
7FC0
FFC0
E0E0
E0E0
E0E0
E0E0
E0E0
E0E0
E0E0
E0E0
FFE0
7FC0
1F00
ENDCHAR
STARTCHAR 043F
ENCODING 1087
SWIDTH 600 0
DWIDTH 15 0
BBX 11 14 2 0
BITMAP
FFE0
FFE0
FFE0
E0E0
E0E0
E0E0
E0E0
E0E0
E0E0
E0E0
E0E0
E0E0
E0E0
E0E0
ENDCHAR
STARTCHAR 0440
ENCODING 1088
SWIDTH 600 0
DWIDTH 15 0
BBX 11 18 2 -4
BITMAP
E780
EFC0
FFE0
F0E0
E0E0
E0E0
E0E0
E0E0
E0E0
E0E0
F0E0
FFE0
EFC0
E780
E000
E000
E000
E000
ENDCHAR
STARTCHAR 0441
ENCODING 1089
SWIDTH 600 0
DWIDTH 15 0
BBX 11 14 2 0
BITMAP
1F00
7FC0
7FE0
F0E0
E0E0
E000
E000
E000
E000
E0E0
F0E0
7FE0
7FC0
1F00
ENDCHAR
STARTCHAR 0442
ENCODING 1090
SWIDTH 600 0
DWIDTH 15 0
BBX 13 14 1 0
BITMAP
FFF8
FFF8
FFF8
0700
0700
0700
0700
0700
0700
0700
0700
0700
0700
0700
ENDCHAR
STARTCHAR 0443
ENCODING 1091
SWIDTH 600 0
DWIDTH 15 0
BBX 13 18 1 -4
BITMAP
E038
7078
7070
7870
38E0
38E0
1DE0
1DC0
1DC0
0FC0
0F80
0780
0700
0700
0F00
0E00
0E00
1E00
ENDCHAR
STARTCHAR 0444
ENCODING 1092
SWIDTH 600 0
DWIDTH 15 0
BBX 13 22 1 -4
BITMAP
0700
0700
0700
0700
1FC0
7FF0
7FF0
E738
E738
E738
E738
E738
E738
E738
E738
7FF0
7FF0
1FC0
0700
0700
0700
0700
ENDCHAR
STARTCHAR 0445
ENCODING 1093
SWIDTH 600 0
DWIDTH 15 0
BBX 13 14 1 0
BITMAP
7070
78F0
38E0
1DE0
1DC0
0F80
0780
0F80
0F80
1DC0
3DE0
38E0
7070
F078
ENDCHAR
STARTCHAR 0446
ENCODING 1094
SWIDTH 600 0
DWIDTH 15 0
BBX 12 17 2 -3
BITMAP
E1E0
E1E0
E1E0
E1E0
E1E0
E1E0
E1E0
E1E0
E1E0
E1E0
E1E0
FFF0
FFF0
FFF0
0070
0070
0070
ENDCHAR
STARTCHAR 0447
ENCODING 1095
SWIDTH 600 0
DWIDTH 15 0
BBX 11 14 2 0
BITMAP
E0E0
E0E0
E0E0
E0E0
E0E0
E0E0
E0E0
FFE0
7FE0
3FE0
00E0
00E0
00E0
00E0
ENDCHAR
STARTCHAR 0448
ENCODING 1096
SWIDTH 600 0
DWIDTH 15 0
BBX 13 14 1 0
BITMAP
E738
E738
E738
E738
E738
E738
E738
E738
E738
E738
E738
E738
FFF8
FFF8
ENDCHAR
STARTCHAR 0449
ENCODING 1097
SWIDTH 600 0
DWIDTH 15 0
BBX 14 18 1 -4
BITMAP
E630
E630
E630
E630
E630
E630
E630
E630
E630
E630
E630
E630
FFFC
FFFC
001C
001C
001C
001C
ENDCHAR
STARTCHAR 044A
ENCODING 1098
SWIDTH 600 0
DWIDTH 15 0
BBX 13 14 1 0
BITMAP
FC00
FC00
FC00
1C00
1C00
1FE0
1FF0
1FF8
1C38
1C38
1C38
1FF8
1FF0
1FE0
ENDCHAR
STARTCHAR 044B
ENCODING 1099
SWIDTH 600 0
DWIDTH 15 0
BBX 13 14 1 0
BITMAP
E038
E038
E038
E038
E038
FC38
FF38
E738
E3B8
E3B8
E3B8
E738
FF38
FC38
ENDCHAR
STARTCHAR 044C
ENCODING 1100
SWIDTH 600 0
DWIDTH 15 0
BBX 12 14 2 0
BITMAP
E000
E000
E000
E000
E000
FF80
FFE0
FFF0
E070
E070
E070
FFF0
FFE0
FF80
ENDCHAR
STARTCHAR 044D
ENCODING 1101
SWIDTH 600 0
DWIDTH 15 0
BBX 11 14 2 0
BITMAP
1F00
7FC0
FFC0
E1E0
E0E0
0FE0
0FE0
0FE0
00E0
E0E0
E1E0
FFC0
7FC0
1F00
ENDCHAR
STARTCHAR 044E
ENCODING 1102
SWIDTH 600 0
DWIDTH 15 0
BBX 13 14 1 0
BITMAP
E1E0
E7F0
E7F8
E738
E638
FE38
FE38
FE38
E638
E638
E738
E7F8
E3F0
E1E0
ENDCHAR
STARTCHAR 044F
ENCODING 1103
SWIDTH 600 0
DWIDTH 15 0
BBX 11 14 2 0
BITMAP
3FE0
7FE0
FFE0
E0E0
E0E0
E0E0
F0E0
FFE0
7FE0
3FE0
38E0
78E0
F0E0
E0E0
ENDCHAR
STARTCHAR 0451
ENCODING 1105
SWIDTH 600 0
DWIDTH 15 0
BBX 11 20 2 0
BITMAP
71C0
71C0
71C0
71C0
0000
0000
1F00
7FC0
FFC0
E0E0
E0E0
E0E0
FFE0
FFE0
E000
E000
E0E0
FFE0
7FC0
1F00
ENDCHAR
STARTCHAR 0452
ENCODING 1106
SWIDTH 600 0
DWIDTH 15 0
BBX 13 22 0 -4
BITMAP
3800
FF80
FF80
3800
3800
39E0
3BF0
3FF8
3C78
3838
3838
3838
3838
3838
3838
3838
3838
3838
0078
03F0
03F0
03C0
ENDCHAR
STARTCHAR 0453
ENCODING 1107
SWIDTH 600 0
DWIDTH 15 0
BBX 10 20 3 0
BITMAP
0380
0700
0F00
0E00
0000
0000
FFC0
FFC0
FFC0
E000
E000
E000
E000
E000
E000
E000
E000
E000
E000
E000
ENDCHAR
STARTCHAR 0454
ENCODING 1108
SWIDTH 600 0
DWIDTH 15 0
BBX 11 14 2 0
BITMAP
1F00
7FC0
7FE0
F0E0
E0E0
FE00
FE00
FE00
E000
E0E0
F0E0
7FE0
7FC0
1F00
ENDCHAR
STARTCHAR 0455
ENCODING 1109
SWIDTH 600 0
DWIDTH 15 0
BBX 11 14 2 0
BITMAP
3F80
7FC0
FBE0
E0E0
E000
FC00
7FC0
3FE0
01E0
00E0
E0E0
FBE0
7FC0
3F80
ENDCHAR
STARTCHAR 0456
ENCODING 1110
SWIDTH 600 0
DWIDTH 15 0
BBX 12 20 2 0
BITMAP
0E00
1E00
1F00
0E00
0000
0000
FF00
FF00
FF00
0700
0700
0700
0700
0700
0700
0700
0700
FFF0
FFF0
FFF0
ENDCHAR
STARTCHAR 0457
ENCODING 1111
SWIDTH 600 0
DWIDTH 15 0
BBX 12 20 2 0
BITMAP
71C0
71C0
71C0
71C0
0000
0000
FF00
FF00
FF00
0700
0700
0700
0700
0700
0700
0700
0700
FFF0
FFF0
FFF0
ENDCHAR
STARTCHAR 0458
ENCODING 1112
SWIDTH 600 0
DWIDTH 15 0
BBX 10 24 2 -4
BITMAP
0380
0780
07C0
0380
0000
0000
FF80
FF80
FF80
0380
0380
0380
0380
0380
0380
0380
0380
0380
0380
0380
0380
FF80
FF00
FC00
ENDCHAR
STARTCHAR 0459
ENCODING 1113
SWIDTH 600 0
DWIDTH 15 0
BBX 15 14 0 0
BITMAP
3F80
3F80
3F80
3980
3980
39F8
39FC
39FC
398E
398E
318E
F1FE
F1FC
C1F8
ENDCHAR
STARTCHAR 045A
ENCODING 1114
SWIDTH 600 0
DWIDTH 15 0
BBX 14 14 1 0
BITMAP
E300
E300
E300
E300
E300
FFF0
FFF8
E338
E31C
E31C
E31C
E33C
E3F8
E3F0
ENDCHAR
STARTCHAR 045B
ENCODING 1115
SWIDTH 600 0
DWIDTH 15 0
BBX 13 18 0 0
BITMAP
3800
3800
FF80
FF80
3800
39C0
3BF0
3FF0
3C78
3838
3838
3838
3838
3838
3838
3838
3838
3838
ENDCHAR
STARTCHAR 045C
ENCODING 1116
SWIDTH 600 0
DWIDTH 15 0
BBX 12 20 2 0
BITMAP
0380
0700
0F00
0E00
0000
0000
E0F0
E0E0
E1E0
E1C0
E380
FF80
FF00
FF80
E380
E3C0
E1C0
E1E0
E0F0
E070
ENDCHAR
STARTCHAR 045E
ENCODING 1118
SWIDTH 600 0
DWIDTH 15 0
BBX 13 24 1 -4
BITMAP
38E0
38E0
1FC0
0F80
0000
0000
E038
7078
7070
7870
38E0
38E0
1DE0
1DC0
1DC0
0FC0
0F80
0780
0700
0700
0F00
0E00
0E00
1E00
ENDCHAR
STARTCHAR 045F
ENCODING 1119
SWIDTH 600 0
DWIDTH 15 0
BBX 11 17 2 -3
BITMAP
E0E0
E0E0
E0E0
E0E0
E0E0
E0E0
E0E0
E0E0
E0E0
E0E0
E0E0
FFE0
FFE0
FFE0
0E00
0E00
0E00
ENDCHAR
STARTCHAR 0490
ENCODING 1168
SWIDTH 600 0
DWIDTH 15 0
BBX 11 21 3 0
BITMAP
00E0
00E0
00E0
FFE0
FFE0
FFE0
E000
E000
E000
E000
E000
E000
E000
E000
E000
E000
E000
E000
E000
E000
E000
ENDCHAR
STARTCHAR 0491
ENCODING 1169
SWIDTH 600 0
DWIDTH 15 0
BBX 10 17 3 0
BITMAP
01C0
01C0
01C0
FFC0
FFC0
FFC0
E000
E000
E000
E000
E000
E000
E000
E000
E000
E000
E000
ENDCHAR
STARTCHAR 0492
ENCODING 1170
SWIDTH 600 0
DWIDTH 15 0
BBX 13 18 1 0
BITMAP
3FF8
3FF8
3FF8
3800
3800
3800
3800
FF80
FF80
FF80
3800
3800
3800
3800
3800
3800
3800
3800
ENDCHAR
STARTCHAR 0493
ENCODING 1171
SWIDTH 600 0
DWIDTH 15 0
BBX 13 14 1 0
BITMAP
3FF8
3FF8
3FF8
3C00
3C00
3C00
FFC0
FFC0
FFC0
3C00
3C00
3C00
3C00
3C00
ENDCHAR
STARTCHAR 049A
ENCODING 1178
SWIDTH 600 0
DWIDTH 15 0
BBX 13 21 2 -3
BITMAP
E0E0
E0E0
E1E0
E1C0
E3C0
E380
E780
FF00
FF00
FF00
E700
E380
E380
E3C0
E1C0
E1F8
E0F8
E0F8
0038
0038
0038
ENDCHAR
STARTCHAR 049B
ENCODING 1179
SWIDTH 600 0
DWIDTH 15 0
BBX 13 17 2 -3
BITMAP
E0F0
E0E0
E1C0
E3C0
E380
FF80
FF00
FF00
E780
E3C0
E1C0
E1F8
E0F8
E0F8
0038
0038
0038
ENDCHAR
STARTCHAR 04A2
ENCODING 1186
SWIDTH 600 0
DWIDTH 15 0
BBX 12 21 2 -3
BITMAP
E0E0
E0E0
E0E0
E0E0
E0E0
E0E0
E0E0
FFE0
FFE0
FFE0
E0E0
E0E0
E0E0
E0E0
E0E0
E0F0
E0F0
E0F0
0030
0030
0030
ENDCHAR
STARTCHAR 04A3
ENCODING 1187
SWIDTH 600 0
DWIDTH 15 0
BBX 12 17 2 -3
BITMAP
E0E0
E0E0
E0E0
E0E0
E0E0
E0E0
FFE0
FFE0
FFE0
E0E0
E0E0
E0F0
E0F0
E0F0
0030
0030
0030
ENDCHAR
STARTCHAR 04AE
ENCODING 1198
SWIDTH 600 0
DWIDTH 15 0
BBX 13 18 1 0
BITMAP
E038
F078
7070
7070
38E0
38E0
1DC0
1DC0
0D80
0F80
0F80
0700
0700
0700
0700
0700
0700
0700
ENDCHAR
STARTCHAR 04AF
ENCODING 1199
SWIDTH 600 0
DWIDTH 15 0
BBX 13 18 1 -4
BITMAP
E038
7070
7070
7070
38E0
38E0
38E0
1DC0
1DC0
1DC0
0D80
0F80
0700
0700
0700
0700
0700
0700
ENDCHAR
STARTCHAR 04B0
ENCODING 1200
SWIDTH 600 0
DWIDTH 15 0
BBX 13 18 1 0
BITMAP
E038
F078
7070
7870
38E0
38E0
1DC0
1DC0
0F80
0F80
0700
3FE0
3FE0
0700
0700
0700
0700
0700
ENDCHAR
STARTCHAR 04B1
ENCODING 1201
SWIDTH 600 0
DWIDTH 15 0
BBX 13 18 1 -4
BITMAP
E038
7070
7070
7070
38E0
38E0
38E0
1DC0
1DC0
1DC0
0D80
0F80
0F80
0700
3FE0
3FE0
0700
0700
ENDCHAR
STARTCHAR 04B6
ENCODING 1206
SWIDTH 600 0
DWIDTH 15 0
BBX 13 21 1 -3
BITMAP
E070
E070
E070
E070
E070
E070
E070
E070
F070
7FF0
3FF0
1FF0
0070
0070
0070
0078
0078
0078
0038
0038
0038
ENDCHAR
STARTCHAR 04B7
ENCODING 1207
SWIDTH 600 0
DWIDTH 15 0
BBX 13 17 1 -3
BITMAP
E070
E070
E070
E070
E070
F070
7070
7FF0
3FF0
1FF0
0070
0078
0078
0078
0038
0038
0038
ENDCHAR
STARTCHAR 04BA
ENCODING 1210
SWIDTH 600 0
DWIDTH 15 0
BBX 12 18 2 0
BITMAP
E000
E000
E000
E000
E000
E000
FF00
FFC0
FFE0
E0E0
E0E0
E0F0
E0F0
E0F0
E0F0
E0F0
E0F0
E0F0
ENDCHAR
STARTCHAR 04BB
ENCODING 1211
SWIDTH 600 0
DWIDTH 15 0
BBX 11 14 2 0
BITMAP
E000
E000
E000
E000
E000
FF80
FFC0
FFE0
E0E0
E0E0
E0E0
E0E0
E0E0
E0E0
ENDCHAR
STARTCHAR 04D8
ENCODING 1240
SWIDTH 600 0
DWIDTH 15 0
BBX 11 18 2 0
BITMAP
1F00
7FC0
FFE0
E1E0
E0E0
00E0
00E0
FFE0
FFE0
FFE0
E0E0
E0E0
E0E0
E0E0
E1E0
FFE0
7FC0
1F00
ENDCHAR
STARTCHAR 04D9
ENCODING 1241
SWIDTH 600 0
DWIDTH 15 0
BBX 11 14 2 0
BITMAP
1F00
7FC0
FFC0
E0E0
00E0
00E0
FFE0
FFE0
E0E0
E0E0
E0E0
7FE0
7FC0
1F00
ENDCHAR
STARTCHAR 04DC
ENCODING 1244
SWIDTH 600 0
DWIDTH 15 0
BBX 15 24 0 0
BITMAP
1C70
1C70
1C70
1C70
0000
0000
E38E
638C
739C
739C
3398
3BB8
3BB8
1BB0
1FF0
1FF0
3BB0
3BB8
33B8
7398
739C
739C
E38C
E38E
ENDCHAR
STARTCHAR 04DD
ENCODING 1245
SWIDTH 600 0
DWIDTH 15 0
BBX 15 20 0 0
BITMAP
1C70
1C70
1C70
1C70
0000
0000
E38E
739C
739C
3398
3BB8
3BB8
1FF0
1FF0
3BB8
3BB8
3398
739C
738C
E38E
ENDCHAR
STARTCHAR 04DE
ENCODING 1246
SWIDTH 600 0
DWIDTH 15 0
BBX 13 24 1 0
BITMAP
38E0
38E0
38E0
38E0
0000
0000
0F80
3FE0
7FF0
70F0
7070
0070
00F0
0FE0
0FC0
0FE0
0070
0078
0078
E078
F070
7FF0
3FE0
1F80
ENDCHAR
STARTCHAR 04DF
ENCODING 1247
SWIDTH 600 0
DWIDTH 15 0
BBX 13 20 1 0
BITMAP
38E0
38E0
38E0
38E0
0000
0000
1FC0
7FE0
7FF0
7070
0070
0FE0
0FE0
0FF0
0070
0078
E078
7FF0
7FE0
1FC0
ENDCHAR
STARTCHAR 04E4
ENCODING 1252
SWIDTH 600 0
DWIDTH 15 0
BBX 11 24 2 0
BITMAP
71C0
71C0
71C0
71C0
0000
0000
E1E0
E1E0
E3E0
E3E0
E360
E760
E7E0
E6E0
EEE0
EEE0
ECE0
FCE0
DCE0
D8E0
F8E0
F8E0
F0E0
F0E0
ENDCHAR
STARTCHAR 04E5
ENCODING 1253
SWIDTH 600 0
DWIDTH 15 0
BBX 11 20 2 0
BITMAP
71C0
71C0
71C0
71C0
0000
0000
E1E0
E1E0
E3E0
E3E0
E7E0
E6E0
EEE0
EEE0
ECE0
FCE0
F8E0
F8E0
F0E0
F0E0
ENDCHAR
STARTCHAR 04E6
ENCODING 1254
SWIDTH 600 0
DWIDTH 15 0
BBX 11 24 2 0
BITMAP
71C0
71C0
71C0
71C0
0000
0000
1F00
7FC0
FFC0
E0E0
E0E0
E0E0
E0E0
E0E0
E0E0
E0E0
E0E0
E0E0
E0E0
E0E0
E0E0
FFC0
7FC0
1F00
ENDCHAR
STARTCHAR 04E7
ENCODING 1255
SWIDTH 600 0
DWIDTH 15 0
BBX 11 20 2 0
BITMAP
71C0
71C0
71C0
71C0
0000
0000
1F00
7FC0
FFC0
E0E0
E0E0
E0E0
E0E0
E0E0
E0E0
E0E0
E0E0
FFE0
7FC0
1F00
ENDCHAR
STARTCHAR 04E8
ENCODING 1256
SWIDTH 600 0
DWIDTH 15 0
BBX 11 18 2 0
BITMAP
1F00
7FC0
FFE0
E0E0
E0E0
E0E0
E0E0
FFE0
FFE0
FFE0
E0E0
E0E0
E0E0
E0E0
E0E0
FFE0
7FC0
1F00
ENDCHAR
STARTCHAR 04E9
ENCODING 1257
SWIDTH 600 0
DWIDTH 15 0
BBX 11 14 2 0
BITMAP
1F00
7FC0
FFC0
E0E0
E0E0
FFE0
FFE0
FFE0
E0E0
E0E0
E0E0
FFC0
7FC0
1F00
ENDCHAR
STARTCHAR 04F4
ENCODING 1268
SWIDTH 600 0
DWIDTH 15 0
BBX 12 24 1 0
BITMAP
38E0
38E0
38E0
38E0
0000
0000
F070
F070
F070
F070
F070
F070
F070
7070
7070
7FF0
3FF0
0FF0
0070
0070
0070
0070
0070
0070
ENDCHAR
STARTCHAR 04F5
ENCODING 1269
SWIDTH 600 0
DWIDTH 15 0
BBX 11 20 2 0
BITMAP
71C0
71C0
71C0
71C0
0000
0000
E0E0
E0E0
E0E0
E0E0
E0E0
E0E0
E0E0
FFE0
7FE0
3FE0
00E0
00E0
00E0
00E0
ENDCHAR
STARTCHAR 0AEA
ENCODING 2794
SWIDTH 600 0
DWIDTH 15 0
BBX 11 17 2 0
BITMAP
E0E0
F1E0
7BC0
3F80
1F00
0E00
1F00
3F80
7BC0
F1C0
E0E0
E0E0
E0E0
E1E0
FFE0
7FC0
1F00
ENDCHAR
STARTCHAR 1E80
ENCODING 7808
SWIDTH 600 0
DWIDTH 15 0
BBX 15 24 0 0
BITMAP
0E00
0700
0780
0380
0000
0000
E38E
638E
628C
628C
628C
66CC
76DC
76DC
76DC
76DC
76DC
36D8
3458
3C58
3C78
3C78
3C78
3C78
ENDCHAR
STARTCHAR 1E81
ENCODING 7809
SWIDTH 600 0
DWIDTH 15 0
BBX 15 20 0 0
BITMAP
0E00
0700
0780
0380
0000
0000
E38E
638C
628C
628C
76CC
76DC
76DC
36D8
36D8
36D8
3C78
3C78
3C78
3C70
ENDCHAR
STARTCHAR 1E82
ENCODING 7810
SWIDTH 600 0
DWIDTH 15 0
BBX 15 24 0 0
BITMAP
00E0
01C0
03C0
0380
0000
0000
E38E
638E
628C
628C
628C
66CC
76DC
76DC
76DC
76DC
76DC
36D8
3458
3C58
3C78
3C78
3C78
3C78
ENDCHAR
STARTCHAR 1E83
ENCODING 7811
SWIDTH 600 0
DWIDTH 15 0
BBX 15 20 0 0
BITMAP
00E0
01C0
03C0
0380
0000
0000
E38E
638C
628C
628C
76CC
76DC
76DC
36D8
36D8
36D8
3C78
3C78
3C78
3C70
ENDCHAR
STARTCHAR 1E84
ENCODING 7812
SWIDTH 600 0
DWIDTH 15 0
BBX 15 24 0 0
BITMAP
1C70
1C70
1C70
1C70
0000
0000
E38E
638E
628C
628C
628C
66CC
76DC
76DC
76DC
76DC
76DC
36D8
3458
3C58
3C78
3C78
3C78
3C78
ENDCHAR
STARTCHAR 1E85
ENCODING 7813
SWIDTH 600 0
DWIDTH 15 0
BBX 15 20 0 0
BITMAP
1C70
1C70
1C70
1C70
0000
0000
E38E
638C
628C
628C
76CC
76DC
76DC
36D8
36D8
36D8
3C78
3C78
3C78
3C70
ENDCHAR
STARTCHAR 1E9E
ENCODING 7838
SWIDTH 600 0
DWIDTH 15 0
BBX 12 18 2 0
BITMAP
1FE0
7FE0
7FE0
E0E0
E1C0
E380
E700
E700
E7C0
E7E0
E0E0
E0F0
E070
E0F0
E0F0
EFE0
EFC0
EF80
ENDCHAR
STARTCHAR 1EA0
ENCODING 7840
SWIDTH 600 0
DWIDTH 15 0
BBX 13 24 1 -6
BITMAP
0F80
0F80
0F80
0D80
1DC0
1DC0
1DC0
18C0
38E0
38E0
38E0
3FE0
7FF0
7FF0
7070
F070
E038
E038
0000
0000
0700
0F00
0F80
0700
ENDCHAR
STARTCHAR 1EA1
ENCODING 7841
SWIDTH 600 0
DWIDTH 15 0
BBX 12 20 1 -6
BITMAP
0F80
3FE0
7FF0
7070
0070
1FF0
3FF0
7070
7070
F070
70F0
7FF0
7F70
1E70
0000
0000
0700
0F00
0F80
0700
ENDCHAR
STARTCHAR 1EA2
ENCODING 7842
SWIDTH 600 0
DWIDTH 15 0
BBX 13 25 1 0
BITMAP
0F00
0F80
0180
0380
0000
0000
0000
0F80
0F80
0F80
0D80
1DC0
1DC0
1DC0
18C0
38E0
38E0
38E0
3FE0
7FF0
7FF0
7070
F070
E038
E038
ENDCHAR
STARTCHAR 1EA3
ENCODING 7843
SWIDTH 600 0
DWIDTH 15 0
BBX 12 21 1 0
BITMAP
0F00
0F80
0180
0380
0000
0000
0000
0F80
3FE0
7FF0
7070
0070
1FF0
3FF0
7070
7070
F070
70F0
7FF0
7F70
1E70
ENDCHAR
STARTCHAR 1EA4
ENCODING 7844
SWIDTH 600 0
DWIDTH 15 0
BBX 15 26 1 0
BITMAP
000E
001C
0038
0F80
1DC0
38E0
0000
0000
0F80
0F80
0F80
0D80
1DC0
1DC0
1DC0
18C0
38E0
38E0
38E0
3FE0
7FF0
7FF0
7070
F070
E038
E038
ENDCHAR
STARTCHAR 1EA5
ENCODING 7845
SWIDTH 600 0
DWIDTH 15 0
BBX 16 23 1 0
BITMAP
000F
001E
001C
0738
0F80
1DC0
38E0
0000
0000
0F80
3FE0
7FF0
7070
0070
1FF0
3FF0
7070
7070
F070
70F0
7FF0
7F70
1E70
ENDCHAR
STARTCHAR 1EA6
ENCODING 7846
SWIDTH 600 0
DWIDTH 15 0
BBX 13 26 1 0
BITMAP
00E0
0070
0038
0F80
1DC0
38E0
0000
0000
0F80
0F80
0F80
0D80
1DC0
1DC0
1DC0
18C0
38E0
38E0
38E0
3FE0
7FF0
7FF0
7070
F070
E038
E038
ENDCHAR
STARTCHAR 1EA7
ENCODING 7847
SWIDTH 600 0
DWIDTH 15 0
BBX 13 22 1 0
BITMAP
00E0
0070
0038
0F80
1DC0
38E0
0000
0000
0F80
3FE0
7FF0
7070
0070
1FF0
3FF0
7070
7070
F070
70F0
7FF0
7F70
1E70
ENDCHAR
STARTCHAR 1EA8
ENCODING 7848
SWIDTH 600 0
DWIDTH 15 0
BBX 13 26 1 0
BITMAP
0070
0078
0018
0FB8
1FC0
1DC0
0000
0000
0F80
0F80
0F80
0D80
1DC0
1DC0
1DC0
18C0
38E0
38E0
38E0
3FE0
7FF0
7FF0
7070
F070
E038
E038
ENDCHAR
STARTCHAR 1EA9
ENCODING 7849
SWIDTH 600 0
DWIDTH 15 0
BBX 13 24 1 0
BITMAP
0070
0078
0018
0038
0730
0F80
1DC0
0000
0000
0000
0F80
3FE0
7FF0
7070
0070
1FF0
3FF0
7070
7070
F070
70F0
7FF0
7F70
1E70
ENDCHAR
STARTCHAR 1EAA
ENCODING 7850
SWIDTH 600 0
DWIDTH 15 0
BBX 13 26 1 0
BITMAP
1E60
3FE0
31C0
0F80
1DC0
38E0
0000
0000
0F80
0F80
0F80
0D80
1DC0
1DC0
1DC0
18C0
38E0
38E0
38E0
3FE0
7FF0
7FF0
7070
F070
E038
E038
ENDCHAR
STARTCHAR 1EAB
ENCODING 7851
SWIDTH 600 0
DWIDTH 15 0
BBX 12 24 1 0
BITMAP
1E60
3FE0
33C0
0000
0F80
0F80
1DC0
0000
0000
0000
0F80
3FE0
7FF0
7070
0070
1FF0
3FF0
7070
7070
F070
70F0
7FF0
7F70
1E70
ENDCHAR
STARTCHAR 1EAC
ENCODING 7852
SWIDTH 600 0
DWIDTH 15 0
BBX 13 30 1 -6
BITMAP
0700
0F80
1DC0
38E0
0000
0000
0F80
0F80
0F80
0D80
1DC0
1DC0
1DC0
18C0
38E0
38E0
38E0
3FE0
7FF0
7FF0
7070
F070
E038
E038
0000
0000
0700
0F00
0F80
0700
ENDCHAR
STARTCHAR 1EAD
ENCODING 7853
SWIDTH 600 0
DWIDTH 15 0
BBX 12 26 1 -6
BITMAP
0700
0F80
1DC0
38E0
0000
0000
0F80
3FE0
7FF0
7070
0070
1FF0
3FF0
7070
7070
F070
70F0
7FF0
7F70
1E70
0000
0000
0700
0F00
0F80
0700
ENDCHAR
STARTCHAR 1EAE
ENCODING 7854
SWIDTH 600 0
DWIDTH 15 0
BBX 13 26 1 0
BITMAP
01C0
0380
3760
3060
3FE0
1F80
0000
0000
0F80
0F80
0F80
0D80
1DC0
1DC0
1DC0
18C0
38E0
38E0
38E0
3FE0
7FF0
7FF0
7070
F070
E038
E038
ENDCHAR
STARTCHAR 1EAF
ENCODING 7855
SWIDTH 600 0
DWIDTH 15 0
BBX 12 23 1 0
BITMAP
01C0
0380
0300
3060
38E0
1FC0
0F80
0000
0000
0F80
3FE0
7FF0
7070
0070
1FF0
3FF0
7070
7070
F070
70F0
7FF0
7F70
1E70
ENDCHAR
STARTCHAR 1EB0
ENCODING 7856
SWIDTH 600 0
DWIDTH 15 0
BBX 13 26 1 0
BITMAP
0C00
0E00
3760
3060
3FE0
1F80
0000
0000
0F80
0F80
0F80
0D80
1DC0
1DC0
1DC0
18C0
38E0
38E0
38E0
3FE0
7FF0
7FF0
7070
F070
E038
E038
ENDCHAR
STARTCHAR 1EB1
ENCODING 7857
SWIDTH 600 0
DWIDTH 15 0
BBX 12 23 1 0
BITMAP
1C00
0C00
0600
3060
38E0
1FC0
0F80
0000
0000
0F80
3FE0
7FF0
7070
0070
1FF0
3FF0
7070
7070
F070
70F0
7FF0
7F70
1E70
ENDCHAR
STARTCHAR 1EB2
ENCODING 7858
SWIDTH 600 0
DWIDTH 15 0
BBX 13 26 1 0
BITMAP
0F00
0F80
0300
3060
3FE0
1FC0
0000
0000
0F80
0F80
0F80
0D80
1DC0
1DC0
1DC0
18C0
38E0
38E0
38E0
3FE0
7FF0
7FF0
7070
F070
E038
E038
ENDCHAR
STARTCHAR 1EB3
ENCODING 7859
SWIDTH 600 0
DWIDTH 15 0
BBX 12 24 1 0
BITMAP
0F00
0F80
0180
0300
0000
38E0
1FC0
0F80
0000
0000
0F80
3FE0
7FF0
7070
0070
1FF0
3FF0
7070
7070
F070
70F0
7FF0
7F70
1E70
ENDCHAR
STARTCHAR 1EB4
ENCODING 7860
SWIDTH 600 0
DWIDTH 15 0
BBX 13 26 1 0
BITMAP
1E60
3FE0
31C0
3060
3FE0
1FC0
0000
0000
0F80
0F80
0F80
0D80
1DC0
1DC0
1DC0
18C0
38E0
38E0
38E0
3FE0
7FF0
7FF0
7070
F070
E038
E038
ENDCHAR
STARTCHAR 1EB5
ENCODING 7861
SWIDTH 600 0
DWIDTH 15 0
BBX 12 24 1 0
BITMAP
0C60
1E60
33C0
3180
0000
38E0
1FC0
0F80
0000
0000
0F80
3FE0
7FF0
7070
0070
1FF0
3FF0
7070
7070
F070
70F0
7FF0
7F70
1E70
ENDCHAR
STARTCHAR 1EB6
ENCODING 7862
SWIDTH 600 0
DWIDTH 15 0
BBX 13 30 1 -6
BITMAP
38E0
38E0
1FC0
0F80
0000
0000
0F80
0F80
0F80
0D80
1DC0
1DC0
1DC0
18C0
38E0
38E0
38E0
3FE0
7FF0
7FF0
7070
F070
E038
E038
0000
0000
0700
0F00
0F80
0700
ENDCHAR
STARTCHAR 1EB7
ENCODING 7863
SWIDTH 600 0
DWIDTH 15 0
BBX 12 26 1 -6
BITMAP
38E0
38E0
1FC0
0F80
0000
0000
0F80
3FE0
7FF0
7070
0070
1FF0
3FF0
7070
7070
F070
70F0
7FF0
7F70
1E70
0000
0000
0700
0F00
0F80
0700
ENDCHAR
STARTCHAR 1EB8
ENCODING 7864
SWIDTH 600 0
DWIDTH 15 0
BBX 11 24 2 -6
BITMAP
FFE0
FFE0
FFE0
E000
E000
E000
E000
FFC0
FFC0
FFC0
E000
E000
E000
E000
E000
FFE0
FFE0
FFE0
0000
0000
0E00
1E00
1F00
0E00
ENDCHAR
STARTCHAR 1EB9
ENCODING 7865
SWIDTH 600 0
DWIDTH 15 0
BBX 11 20 2 -6
BITMAP
1F00
7FC0
FFC0
E0E0
E0E0
E0E0
FFE0
FFE0
E000
E000
E0E0
FFE0
7FC0
1F00
0000
0000
0E00
1E00
1F00
0E00
ENDCHAR
STARTCHAR 1EBA
ENCODING 7866
SWIDTH 600 0
DWIDTH 15 0
BBX 11 25 2 0
BITMAP
1E00
1F00
0300
0700
0000
0000
0000
FFE0
FFE0
FFE0
E000
E000
E000
E000
FFC0
FFC0
FFC0
E000
E000
E000
E000
E000
FFE0
FFE0
FFE0
ENDCHAR
STARTCHAR 1EBB
ENCODING 7867
SWIDTH 600 0
DWIDTH 15 0
BBX 11 21 2 0
BITMAP
1E00
1F00
0300
0700
0000
0000
0000
1F00
7FC0
FFC0
E0E0
E0E0
E0E0
FFE0
FFE0
E000
E000
E0E0
FFE0
7FC0
1F00
ENDCHAR
STARTCHAR 1EBC
ENCODING 7868
SWIDTH 600 0
DWIDTH 15 0
BBX 11 24 2 0
BITMAP
38C0
7CC0
6780
6380
0000
0000
FFE0
FFE0
FFE0
E000
E000
E000
E000
FFC0
FFC0
FFC0
E000
E000
E000
E000
E000
FFE0
FFE0
FFE0
ENDCHAR
STARTCHAR 1EBD
ENCODING 7869
SWIDTH 600 0
DWIDTH 15 0
BBX 11 20 2 0
BITMAP
38C0
7CC0
6780
6380
0000
0000
1F00
7FC0
FFC0
E0E0
E0E0
E0E0
FFE0
FFE0
E000
E000
E0E0
FFE0
7FC0
1F00
ENDCHAR
STARTCHAR 1EBE
ENCODING 7870
SWIDTH 600 0
DWIDTH 15 0
BBX 14 26 2 0
BITMAP
001C
0038
0070
1F00
3B80
71C0
0000
0000
FFE0
FFE0
FFE0
E000
E000
E000
E000
FFC0
FFC0
FFC0
E000
E000
E000
E000
E000
FFE0
FFE0
FFE0
ENDCHAR
STARTCHAR 1EBF
ENCODING 7871
SWIDTH 600 0
DWIDTH 15 0
BBX 15 23 2 0
BITMAP
001E
003C
0038
0E70
1F00
3B80
71C0
0000
0000
1F00
7FC0
FFC0
E0E0
E0E0
E0E0
FFE0
FFE0
E000
E000
E0E0
FFE0
7FC0
1F00
ENDCHAR
STARTCHAR 1EC0
ENCODING 7872
SWIDTH 600 0
DWIDTH 15 0
BBX 12 26 2 0
BITMAP
01C0
00E0
0070
1F00
3B80
71C0
0000
0000
FFE0
FFE0
FFE0
E000
E000
E000
E000
FFC0
FFC0
FFC0
E000
E000
E000
E000
E000
FFE0
FFE0
FFE0
ENDCHAR
STARTCHAR 1EC1
ENCODING 7873
SWIDTH 600 0
DWIDTH 15 0
BBX 12 22 2 0
BITMAP
01C0
00E0
0070
1F00
3B80
71C0
0000
0000
1F00
7FC0
FFC0
E0E0
E0E0
E0E0
FFE0
FFE0
E000
E000
E0E0
FFE0
7FC0
1F00
ENDCHAR
STARTCHAR 1EC2
ENCODING 7874
SWIDTH 600 0
DWIDTH 15 0
BBX 12 26 2 0
BITMAP
00E0
00F0
0030
1F70
3F80
3B80
0000
0000
FFE0
FFE0
FFE0
E000
E000
E000
E000
FFC0
FFC0
FFC0
E000
E000
E000
E000
E000
FFE0
FFE0
FFE0
ENDCHAR
STARTCHAR 1EC3
ENCODING 7875
SWIDTH 600 0
DWIDTH 15 0
BBX 12 24 2 0
BITMAP
00E0
00F0
0030
0070
0E60
1F00
3B80
0000
0000
0000
1F00
7FC0
FFC0
E0E0
E0E0
E0E0
FFE0
FFE0
E000
E000
E0E0
FFE0
7FC0
1F00
ENDCHAR
STARTCHAR 1EC4
ENCODING 7876
SWIDTH 600 0
DWIDTH 15 0
BBX 11 26 2 0
BITMAP
3CC0
7FC0
6380
1F00
3B80
71C0
0000
0000
FFE0
FFE0
FFE0
E000
E000
E000
E000
FFC0
FFC0
FFC0
E000
E000
E000
E000
E000
FFE0
FFE0
FFE0
ENDCHAR
STARTCHAR 1EC5
ENCODING 7877
SWIDTH 600 0
DWIDTH 15 0
BBX 11 24 2 0
BITMAP
3CC0
7FC0
6780
0000
1F00
1F00
3B80
0000
0000
0000
1F00
7FC0
FFC0
E0E0
E0E0
E0E0
FFE0
FFE0
E000
E000
E0E0
FFE0
7FC0
1F00
ENDCHAR
STARTCHAR 1EC6
ENCODING 7878
SWIDTH 600 0
DWIDTH 15 0
BBX 11 30 2 -6
BITMAP
0E00
1F00
3B80
71C0
0000
0000
FFE0
FFE0
FFE0
E000
E000
E000
E000
FFC0
FFC0
FFC0
E000
E000
E000
E000
E000
FFE0
FFE0
FFE0
0000
0000
0E00
1E00
1F00
0E00
ENDCHAR
STARTCHAR 1EC7
ENCODING 7879
SWIDTH 600 0
DWIDTH 15 0
BBX 11 26 2 -6
BITMAP
0E00
1F00
3B80
71C0
0000
0000
1F00
7FC0
FFC0
E0E0
E0E0
E0E0
FFE0
FFE0
E000
E000
E0E0
FFE0
7FC0
1F00
0000
0000
0E00
1E00
1F00
0E00
ENDCHAR
STARTCHAR 1EC8
ENCODING 7880
SWIDTH 600 0
DWIDTH 15 0
BBX 11 25 2 0
BITMAP
1E00
1F00
0300
0700
0000
0000
0000
FFE0
FFE0
FFE0
0E00
0E00
0E00
0E00
0E00
0E00
0E00
0E00
0E00
0E00
0E00
0E00
FFE0
FFE0
FFE0
ENDCHAR
STARTCHAR 1EC9
ENCODING 7881
SWIDTH 600 0
DWIDTH 15 0
BBX 12 21 2 0
BITMAP
1E00
1F00
0300
0700
0000
0000
0000
FF00
FF00
FF00
0700
0700
0700
0700
0700
0700
0700
0700
FFF0
FFF0
FFF0
ENDCHAR
STARTCHAR 1ECA
ENCODING 7882
SWIDTH 600 0
DWIDTH 15 0
BBX 11 24 2 -6
BITMAP
FFE0
FFE0
FFE0
0E00
0E00
0E00
0E00
0E00
0E00
0E00
0E00
0E00
0E00
0E00
0E00
FFE0
FFE0
FFE0
0000
0000
0E00
1E00
1F00
0E00
ENDCHAR
STARTCHAR 1ECB
ENCODING 7883
SWIDTH 600 0
DWIDTH 15 0
BBX 12 26 2 -6
BITMAP
0E00
1E00
1F00
0E00
0000
0000
FF00
FF00
FF00
0700
0700
0700
0700
0700
0700
0700
0700
FFF0
FFF0
FFF0
0000
0000
0E00
1E00
1F00
0E00
ENDCHAR
STARTCHAR 1ECC
ENCODING 7884
SWIDTH 600 0
DWIDTH 15 0
BBX 11 24 2 -6
BITMAP
1F00
7FC0
FFC0
E0E0
E0E0
E0E0
E0E0
E0E0
E0E0
E0E0
E0E0
E0E0
E0E0
E0E0
E0E0
FFC0
7FC0
1F00
0000
0000
0E00
1E00
1F00
0E00
ENDCHAR
STARTCHAR 1ECD
ENCODING 7885
SWIDTH 600 0
DWIDTH 15 0
BBX 11 20 2 -6
BITMAP
1F00
7FC0
FFC0
E0E0
E0E0
E0E0
E0E0
E0E0
E0E0
E0E0
E0E0
FFE0
7FC0
1F00
0000
0000
0E00
1E00
1F00
0E00
ENDCHAR
STARTCHAR 1ECE
ENCODING 7886
SWIDTH 600 0
DWIDTH 15 0
BBX 11 25 2 0
BITMAP
1E00
1F00
0300
0700
0000
0000
0000
1F00
7FC0
FFC0
E0E0
E0E0
E0E0
E0E0
E0E0
E0E0
E0E0
E0E0
E0E0
E0E0
E0E0
E0E0
FFC0
7FC0
1F00
ENDCHAR
STARTCHAR 1ECF
ENCODING 7887
SWIDTH 600 0
DWIDTH 15 0
BBX 11 21 2 0
BITMAP
1E00
1F00
0300
0700
0000
0000
0000
1F00
7FC0
FFC0
E0E0
E0E0
E0E0
E0E0
E0E0
E0E0
E0E0
E0E0
FFE0
7FC0
1F00
ENDCHAR
STARTCHAR 1ED0
ENCODING 7888
SWIDTH 600 0
DWIDTH 15 0
BBX 14 26 2 0
BITMAP
001C
0038
0070
1F00
3B80
71C0
0000
0000
1F00
7FC0
FFC0
E0E0
E0E0
E0E0
E0E0
E0E0
E0E0
E0E0
E0E0
E0E0
E0E0
E0E0
E0E0
FFC0
7FC0
1F00
ENDCHAR
STARTCHAR 1ED1
ENCODING 7889
SWIDTH 600 0
DWIDTH 15 0
BBX 15 23 2 0
BITMAP
001E
003C
0038
0E70
1F00
3B80
71C0
0000
0000
1F00
7FC0
FFC0
E0E0
E0E0
E0E0
E0E0
E0E0
E0E0
E0E0
E0E0
FFE0
7FC0
1F00
ENDCHAR
STARTCHAR 1ED2
ENCODING 7890
SWIDTH 600 0
DWIDTH 15 0
BBX 12 26 2 0
BITMAP
01C0
00E0
0070
1F00
3B80
71C0
0000
0000
1F00
7FC0
FFC0
E0E0
E0E0
E0E0
E0E0
E0E0
E0E0
E0E0
E0E0
E0E0
E0E0
E0E0
E0E0
FFC0
7FC0
1F00
ENDCHAR
STARTCHAR 1ED3
ENCODING 7891
SWIDTH 600 0
DWIDTH 15 0
BBX 12 22 2 0
BITMAP
01C0
00E0
0070
1F00
3B80
71C0
0000
0000
1F00
7FC0
FFC0
E0E0
E0E0
E0E0
E0E0
E0E0
E0E0
E0E0
E0E0
FFE0
7FC0
1F00
ENDCHAR
STARTCHAR 1ED4
ENCODING 7892
SWIDTH 600 0
DWIDTH 15 0
BBX 12 26 2 0
BITMAP
00E0
00F0
0030
1F70
3F80
3B80
0000
0000
1F00
7FC0
FFC0
E0E0
E0E0
E0E0
E0E0
E0E0
E0E0
E0E0
E0E0
E0E0
E0E0
E0E0
E0E0
FFC0
7FC0
1F00
ENDCHAR
STARTCHAR 1ED5
ENCODING 7893
SWIDTH 600 0
DWIDTH 15 0
BBX 12 24 2 0
BITMAP
00E0
00F0
0030
0070
0E60
1F00
3B80
0000
0000
0000
1F00
7FC0
FFC0
E0E0
E0E0
E0E0
E0E0
E0E0
E0E0
E0E0
E0E0
FFE0
7FC0
1F00
ENDCHAR
STARTCHAR 1ED6
ENCODING 7894
SWIDTH 600 0
DWIDTH 15 0
BBX 11 26 2 0
BITMAP
3CC0
7FC0
6380
1F00
3B80
71C0
0000
0000
1F00
7FC0
FFC0
E0E0
E0E0
E0E0
E0E0
E0E0
E0E0
E0E0
E0E0
E0E0
E0E0
E0E0
E0E0
FFC0
7FC0
1F00
ENDCHAR
STARTCHAR 1ED7
ENCODING 7895
SWIDTH 600 0
DWIDTH 15 0
BBX 11 24 2 0
BITMAP
3CC0
7FC0
6780
0000
1F00
1F00
3B80
0000
0000
0000
1F00
7FC0
FFC0
E0E0
E0E0
E0E0
E0E0
E0E0
E0E0
E0E0
E0E0
FFE0
7FC0
1F00
ENDCHAR
STARTCHAR 1ED8
ENCODING 7896
SWIDTH 600 0
DWIDTH 15 0
BBX 11 30 2 -6
BITMAP
0E00
1F00
3B80
71C0
0000
0000
1F00
7FC0
FFC0
E0E0
E0E0
E0E0
E0E0
E0E0
E0E0
E0E0
E0E0
E0E0
E0E0
E0E0
E0E0
FFC0
7FC0
1F00
0000
0000
0E00
1E00
1F00
0E00
ENDCHAR
STARTCHAR 1ED9
ENCODING 7897
SWIDTH 600 0
DWIDTH 15 0
BBX 11 26 2 -6
BITMAP
0E00
1F00
3B80
71C0
0000
0000
1F00
7FC0
FFC0
E0E0
E0E0
E0E0
E0E0
E0E0
E0E0
E0E0
E0E0
FFE0
7FC0
1F00
0000
0000
0E00
1E00
1F00
0E00
ENDCHAR
STARTCHAR 1EDA
ENCODING 7898
SWIDTH 600 0
DWIDTH 15 0
BBX 12 24 2 0
BITMAP
0380
0700
0F00
0E30
0030
0030
1F70
7FF0
FFE0
E0E0
E0E0
E0E0
E0E0
E0E0
E0E0
E0E0
E0E0
E0E0
E0E0
E0E0
E0E0
FFE0
7FC0
1F00
ENDCHAR
STARTCHAR 1EDB
ENCODING 7899
SWIDTH 600 0
DWIDTH 15 0
BBX 12 20 2 0
BITMAP
0380
0700
0F00
0E00
0030
0030
1F70
7FF0
FFE0
E0E0
E0E0
E0E0
E0E0
E0E0
E0E0
E0E0
E0E0
FFE0
7FC0
1F00
ENDCHAR
STARTCHAR 1EDC
ENCODING 7900
SWIDTH 600 0
DWIDTH 15 0
BBX 12 24 2 0
BITMAP
3800
1C00
1E00
0E30
0030
0030
1F70
7FF0
FFE0
E0E0
E0E0
E0E0
E0E0
E0E0
E0E0
E0E0
E0E0
E0E0
E0E0
E0E0
E0E0
FFE0
7FC0
1F00
ENDCHAR
STARTCHAR 1EDD
ENCODING 7901
SWIDTH 600 0
DWIDTH 15 0
BBX 12 20 2 0
BITMAP
3800
1C00
1E00
0E00
0030
0030
1F70
7FF0
FFE0
E0E0
E0E0
E0E0
E0E0
E0E0
E0E0
E0E0
E0E0
FFE0
7FC0
1F00
ENDCHAR
STARTCHAR 1EDE
ENCODING 7902
SWIDTH 600 0
DWIDTH 15 0
BBX 12 25 2 0
BITMAP
1E00
1F00
0300
0700
0030
0030
0030
1F70
7FF0
FFE0
E0E0
E0E0
E0E0
E0E0
E0E0
E0E0
E0E0
E0E0
E0E0
E0E0
E0E0
E0E0
FFE0
7FC0
1F00
ENDCHAR
STARTCHAR 1EDF
ENCODING 7903
SWIDTH 600 0
DWIDTH 15 0
BBX 12 21 2 0
BITMAP
1E00
1F00
0300
0700
0000
0030
0030
1F70
7FF0
FFE0
E0E0
E0E0
E0E0
E0E0
E0E0
E0E0
E0E0
E0E0
FFE0
7FC0
1F00
ENDCHAR
STARTCHAR 1EE0
ENCODING 7904
SWIDTH 600 0
DWIDTH 15 0
BBX 12 24 2 0
BITMAP
38C0
7CC0
6780
63B0
0030
0030
1F70
7FF0
FFE0
E0E0
E0E0
E0E0
E0E0
E0E0
E0E0
E0E0
E0E0
E0E0
E0E0
E0E0
E0E0
FFE0
7FC0
1F00
ENDCHAR
STARTCHAR 1EE1
ENCODING 7905
SWIDTH 600 0
DWIDTH 15 0
BBX 12 20 2 0
BITMAP
38C0
7CC0
6780
6380
0030
0030
1F70
7FF0
FFE0
E0E0
E0E0
E0E0
E0E0
E0E0
E0E0
E0E0
E0E0
FFE0
7FC0
1F00
ENDCHAR
STARTCHAR 1EE2
ENCODING 7906
SWIDTH 600 0
DWIDTH 15 0
BBX 12 27 2 -6
BITMAP
0030
0030
0030
1F70
7FF0
FFE0
E0E0
E0E0
E0E0
E0E0
E0E0
E0E0
E0E0
E0E0
E0E0
E0E0
E0E0
E0E0
FFE0
7FC0
1F00
0000
0000
0E00
1E00
1F00
0E00
ENDCHAR
STARTCHAR 1EE3
ENCODING 7907
SWIDTH 600 0
DWIDTH 15 0
BBX 12 22 2 -6
BITMAP
0030
0030
1F70
7FF0
FFE0
E0E0
E0E0
E0E0
E0E0
E0E0
E0E0
E0E0
E0E0
FFE0
7FC0
1F00
0000
0000
0E00
1E00
1F00
0E00
ENDCHAR
STARTCHAR 1EE4
ENCODING 7908
SWIDTH 600 0
DWIDTH 15 0
BBX 11 24 2 -6
BITMAP
E0E0
E0E0
E0E0
E0E0
E0E0
E0E0
E0E0
E0E0
E0E0
E0E0
E0E0
E0E0
E0E0
E0E0
F1E0
FFE0
7FC0
1F00
0000
0000
0E00
1E00
1F00
0E00
ENDCHAR
STARTCHAR 1EE5
ENCODING 7909
SWIDTH 600 0
DWIDTH 15 0
BBX 11 20 2 -6
BITMAP
E0E0
E0E0
E0E0
E0E0
E0E0
E0E0
E0E0
E0E0
E0E0
E0E0
F1E0
7FC0
7FC0
1F00
0000
0000
0E00
1E00
1F00
0E00
ENDCHAR
STARTCHAR 1EE6
ENCODING 7910
SWIDTH 600 0
DWIDTH 15 0
BBX 11 25 2 0
BITMAP
1E00
1F00
0300
0700
0000
0000
0000
E0E0
E0E0
E0E0
E0E0
E0E0
E0E0
E0E0
E0E0
E0E0
E0E0
E0E0
E0E0
E0E0
E0E0
F1E0
FFE0
7FC0
1F00
ENDCHAR
STARTCHAR 1EE7
ENCODING 7911
SWIDTH 600 0
DWIDTH 15 0
BBX 11 21 2 0
BITMAP
1E00
1F00
0300
0700
0000
0000
0000
E0E0
E0E0
E0E0
E0E0
E0E0
E0E0
E0E0
E0E0
E0E0
E0E0
F1E0
7FC0
7FC0
1F00
ENDCHAR
STARTCHAR 1EE8
ENCODING 7912
SWIDTH 600 0
DWIDTH 15 0
BBX 14 24 2 0
BITMAP
0380
0700
0F00
0E1C
001C
001C
E0F8
E0F8
E0E0
E0E0
E0E0
E0E0
E0E0
E0E0
E0E0
E0E0
E0E0
E0E0
E0E0
E0E0
F1E0
FFE0
7FC0
1F00
ENDCHAR
STARTCHAR 1EE9
ENCODING 7913
SWIDTH 600 0
DWIDTH 15 0
BBX 14 20 2 0
BITMAP
0380
0700
0F00
0E1C
001C
001C
E1F8
E1F8
E1F0
E1E0
E1E0
E1E0
E1E0
E1E0
E1E0
E1E0
E1C0
FFC0
7F80
1F00
ENDCHAR
STARTCHAR 1EEA
ENCODING 7914
SWIDTH 600 0
DWIDTH 15 0
BBX 14 24 2 0
BITMAP
3800
1C00
1E00
0E1C
001C
001C
E0F8
E0F8
E0E0
E0E0
E0E0
E0E0
E0E0
E0E0
E0E0
E0E0
E0E0
E0E0
E0E0
E0E0
F1E0
FFE0
7FC0
1F00
ENDCHAR
STARTCHAR 1EEB
ENCODING 7915
SWIDTH 600 0
DWIDTH 15 0
BBX 14 20 2 0
BITMAP
7000
3800
3C00
1C1C
001C
001C
E1F8
E1F8
E1F0
E1E0
E1E0
E1E0
E1E0
E1E0
E1E0
E1E0
E1C0
FFC0
7F80
1F00
ENDCHAR
STARTCHAR 1EEC
ENCODING 7916
SWIDTH 600 0
DWIDTH 15 0
BBX 14 25 2 0
BITMAP
1E00
1F00
0300
0700
001C
001C
001C
E0F8
E0F8
E0E0
E0E0
E0E0
E0E0
E0E0
E0E0
E0E0
E0E0
E0E0
E0E0
E0E0
E0E0
F1E0
FFE0
7FC0
1F00
ENDCHAR
STARTCHAR 1EED
ENCODING 7917
SWIDTH 600 0
DWIDTH 15 0
BBX 14 21 2 0
BITMAP
1E00
1F00
0300
0700
001C
001C
001C
E1F8
E1F8
E1F0
E1E0
E1E0
E1E0
E1E0
E1E0
E1E0
E1E0
E1C0
FFC0
7F80
1F00
ENDCHAR
STARTCHAR 1EEE
ENCODING 7918
SWIDTH 600 0
DWIDTH 15 0
BBX 14 24 2 0
BITMAP
38C0
7CC0
6780
639C
001C
001C
E0F8
E0F8
E0E0
E0E0
E0E0
E0E0
E0E0
E0E0
E0E0
E0E0
E0E0
E0E0
E0E0
E0E0
F1E0
FFE0
7FC0
1F00
ENDCHAR
STARTCHAR 1EEF
ENCODING 7919
SWIDTH 600 0
DWIDTH 15 0
BBX 14 20 2 0
BITMAP
38C0
7CC0
6780
639C
001C
001C
E1F8
E1F8
E1F0
E1E0
E1E0
E1E0
E1E0
E1E0
E1E0
E1E0
E1C0
FFC0
7F80
1F00
ENDCHAR
STARTCHAR 1EF0
ENCODING 7920
SWIDTH 600 0
DWIDTH 15 0
BBX 14 27 2 -6
BITMAP
001C
001C
001C
E0F8
E0F8
E0E0
E0E0
E0E0
E0E0
E0E0
E0E0
E0E0
E0E0
E0E0
E0E0
E0E0
E0E0
F1E0
FFE0
7FC0
1F00
0000
0000
0E00
1E00
1F00
0E00
ENDCHAR
STARTCHAR 1EF1
ENCODING 7921
SWIDTH 600 0
DWIDTH 15 0
BBX 14 23 2 -6
BITMAP
001C
001C
001C
E1F8
E1F8
E1F0
E1E0
E1E0
E1E0
E1E0
E1E0
E1E0
E1E0
E1C0
FFC0
7F80
1F00
0000
0000
0E00
1E00
1F00
0E00
ENDCHAR
STARTCHAR 1EF2
ENCODING 7922
SWIDTH 600 0
DWIDTH 15 0
BBX 13 24 1 0
BITMAP
1C00
0E00
0F00
0700
0000
0000
E038
F078
7070
7070
38E0
38E0
1DC0
1DC0
0D80
0F80
0F80
0700
0700
0700
0700
0700
0700
0700
ENDCHAR
STARTCHAR 1EF3
ENCODING 7923
SWIDTH 600 0
DWIDTH 15 0
BBX 13 24 1 -4
BITMAP
1C00
0E00
0F00
0700
0000
0000
E038
7078
7070
7870
38E0
38E0
1DE0
1DC0
1DC0
0FC0
0F80
0780
0700
0700
0F00
0E00
0E00
1E00
ENDCHAR
STARTCHAR 1EF4
ENCODING 7924
SWIDTH 600 0
DWIDTH 15 0
BBX 13 24 1 -6
BITMAP
E038
F078
7070
7070
38E0
38E0
1DC0
1DC0
0D80
0F80
0F80
0700
0700
0700
0700
0700
0700
0700
0000
0000
0700
0F00
0F80
0700
ENDCHAR
STARTCHAR 1EF5
ENCODING 7925
SWIDTH 600 0
DWIDTH 15 0
BBX 14 20 1 -6
BITMAP
E038
7078
7070
7870
38E0
38E0
1DE0
1DC0
1DC0
0FC0
0F80
0780
0700
0700
0F00
0E00
0E38
1E78
007C
0038
ENDCHAR
STARTCHAR 1EF6
ENCODING 7926
SWIDTH 600 0
DWIDTH 15 0
BBX 13 25 1 0
BITMAP
0F00
0F80
0180
0380
0000
0000
0000
E038
F078
7070
7070
38E0
38E0
1DC0
1DC0
0D80
0F80
0F80
0700
0700
0700
0700
0700
0700
0700
ENDCHAR
STARTCHAR 1EF7
ENCODING 7927
SWIDTH 600 0
DWIDTH 15 0
BBX 13 25 1 -4
BITMAP
0F00
0F80
0180
0380
0000
0000
0000
E038
7078
7070
7870
38E0
38E0
1DE0
1DC0
1DC0
0FC0
0F80
0780
0700
0700
0F00
0E00
0E00
1E00
ENDCHAR
STARTCHAR 1EF8
ENCODING 7928
SWIDTH 600 0
DWIDTH 15 0
BBX 13 24 1 0
BITMAP
1C60
3E60
33C0
31C0
0000
0000
E038
F078
7070
7070
38E0
38E0
1DC0
1DC0
0D80
0F80
0F80
0700
0700
0700
0700
0700
0700
0700
ENDCHAR
STARTCHAR 1EF9
ENCODING 7929
SWIDTH 600 0
DWIDTH 15 0
BBX 13 24 1 -4
BITMAP
1C60
3E60
33C0
31C0
0000
0000
E038
7078
7070
7870
38E0
38E0
1DE0
1DC0
1DC0
0FC0
0F80
0780
0700
0700
0F00
0E00
0E00
1E00
ENDCHAR
STARTCHAR 2001
ENCODING 8193
SWIDTH 600 0
DWIDTH 15 0
BBX 0 0 0 0
BITMAP
ENDCHAR
STARTCHAR 200B
ENCODING 8203
SWIDTH 600 0
DWIDTH 15 0
BBX 0 0 0 0
BITMAP
ENDCHAR
STARTCHAR 2010
ENCODING 8208
SWIDTH 600 0
DWIDTH 15 0
BBX 9 3 3 7
BITMAP
FF80
FF80
FF80
ENDCHAR
STARTCHAR 2013
ENCODING 8211
SWIDTH 600 0
DWIDTH 15 0
BBX 11 3 2 7
BITMAP
FFE0
FFE0
FFE0
ENDCHAR
STARTCHAR 2014
ENCODING 8212
SWIDTH 600 0
DWIDTH 15 0
BBX 15 3 0 7
BITMAP
FFFE
FFFE
FFFE
ENDCHAR
STARTCHAR 2016
ENCODING 8214
SWIDTH 600 0
DWIDTH 15 0
BBX 9 23 3 -3
BITMAP
E380
E380
E380
E380
E380
E380
E380
E380
E380
E380
E380
E380
E380
E380
E380
E380
E380
E380
E380
E380
E380
E380
E380
ENDCHAR
STARTCHAR 2018
ENCODING 8216
SWIDTH 600 0
DWIDTH 15 0
BBX 5 8 5 10
BITMAP
78
70
70
E0
E0
E0
E0
70
ENDCHAR
STARTCHAR 2019
ENCODING 8217
SWIDTH 600 0
DWIDTH 15 0
BBX 5 8 5 11
BITMAP
70
38
38
38
38
70
70
F0
ENDCHAR
STARTCHAR 201A
ENCODING 8218
SWIDTH 600 0
DWIDTH 15 0
BBX 5 8 5 -4
BITMAP
70
38
38
38
38
70
70
F0
ENDCHAR
STARTCHAR 201B
ENCODING 8219
SWIDTH 600 0
DWIDTH 15 0
BBX 5 8 5 10
BITMAP
70
E0
E0
E0
E0
70
70
78
ENDCHAR
STARTCHAR 201C
ENCODING 8220
SWIDTH 600 0
DWIDTH 15 0
BBX 11 8 2 10
BITMAP
39E0
71C0
71C0
F380
E380
E380
E380
71C0
ENDCHAR
STARTCHAR 201D
ENCODING 8221
SWIDTH 600 0
DWIDTH 15 0
BBX 11 8 2 11
BITMAP
71C0
38E0
38E0
38E0
38E0
71C0
71C0
F3C0
ENDCHAR
STARTCHAR 201E
ENCODING 8222
SWIDTH 600 0
DWIDTH 15 0
BBX 11 8 2 -4
BITMAP
71C0
38E0
38E0
38E0
38E0
71C0
71C0
F3C0
ENDCHAR
STARTCHAR 201F
ENCODING 8223
SWIDTH 600 0
DWIDTH 15 0
BBX 11 8 2 10
BITMAP
71C0
E380
E380
E380
F380
71C0
71C0
39E0
ENDCHAR
STARTCHAR 2020
ENCODING 8224
SWIDTH 600 0
DWIDTH 15 0
BBX 11 23 2 -3
BITMAP
0E00
0E00
0E00
0E00
0E00
FFE0
FFE0
FFE0
0E00
0E00
0E00
0E00
0E00
0E00
0E00
0E00
0E00
0E00
0E00
0E00
0E00
0E00
0E00
ENDCHAR
STARTCHAR 2021
ENCODING 8225
SWIDTH 600 0
DWIDTH 15 0
BBX 11 23 2 -3
BITMAP
0E00
0E00
0E00
0E00
0E00
FFE0
FFE0
FFE0
0E00
0E00
0E00
0E00
0E00
0E00
FFE0
FFE0
FFE0
0E00
0E00
0E00
0E00
0E00
0E00
ENDCHAR
STARTCHAR 2022
ENCODING 8226
SWIDTH 600 0
DWIDTH 15 0
BBX 7 6 4 6
BITMAP
38
7C
FE
FE
7C
38
ENDCHAR
STARTCHAR 2024
ENCODING 8228
SWIDTH 600 0
DWIDTH 15 0
BBX 5 5 5 0
BITMAP
70
F8
F8
F8
70
ENDCHAR
STARTCHAR 2026
ENCODING 8230
SWIDTH 600 0
DWIDTH 15 0
BBX 13 5 1 0
BITMAP
6730
E738
E738
E738
6730
ENDCHAR
STARTCHAR 2030
ENCODING 8240
SWIDTH 600 0
DWIDTH 15 0
BBX 16 18 0 0
BITMAP
7830
FC30
CC60
CC60
CCC0
FD80
7980
0300
0700
0600
0C00
0DDE
1BFE
3333
3333
6333
6332
C1DE
ENDCHAR
STARTCHAR 2032
ENCODING 8242
SWIDTH 600 0
DWIDTH 15 0
BBX 5 8 5 11
BITMAP
78
70
70
F0
F0
E0
E0
E0
ENDCHAR
STARTCHAR 2033
ENCODING 8243
SWIDTH 600 0
DWIDTH 15 0
BBX 11 8 2 11
BITMAP
79E0
71C0
71C0
F3C0
F3C0
E380
E380
E380
ENDCHAR
STARTCHAR 2034
ENCODING 8244
SWIDTH 600 0
DWIDTH 15 0
BBX 15 8 0 10
BITMAP
7BDE
739C
739C
F7BC
F7BC
E738
E738
E738
ENDCHAR
STARTCHAR 2039
ENCODING 8249
SWIDTH 600 0
DWIDTH 15 0
BBX 7 12 4 1
BITMAP
0E
1C
3C
78
70
E0
E0
70
78
3C
1C
0E
ENDCHAR
STARTCHAR 203A
ENCODING 8250
SWIDTH 600 0
DWIDTH 15 0
BBX 7 12 4 1
BITMAP
E0
70
78
3C
1C
0E
0E
1C
3C
38
70
E0
ENDCHAR
STARTCHAR 203C
ENCODING 8252
SWIDTH 600 0
DWIDTH 15 0
BBX 11 18 2 0
BITMAP
71C0
71C0
71C0
71C0
71C0
71C0
71C0
71C0
71C0
71C0
71C0
71C0
71C0
0000
0000
71C0
FBE0
71C0
ENDCHAR
STARTCHAR 203D
ENCODING 8253
SWIDTH 600 0
DWIDTH 15 0
BBX 10 18 3 0
BITMAP
FC00
FF00
FF80
0380
39C0
39C0
3B80
3F80
3F00
3E00
3000
3000
3000
0000
0000
3000
7800
3800
ENDCHAR
STARTCHAR 203E
ENCODING 8254
SWIDTH 600 0
DWIDTH 15 0
BBX 15 3 0 18
BITMAP
FFFE
FFFE
FFFE
ENDCHAR
STARTCHAR 203F
ENCODING 8255
SWIDTH 600 0
DWIDTH 15 0
BBX 15 5 0 -4
BITMAP
E00E
E00E
F83E
7FFC
3FF8
ENDCHAR
STARTCHAR 2044
ENCODING 8260
SWIDTH 600 0
DWIDTH 15 0
BBX 15 18 0 0
BITMAP
000E
001C
0018
0038
0070
0060
00E0
01C0
0180
0300
0700
0E00
0C00
1C00
3800
3000
7000
E000
ENDCHAR
STARTCHAR 2045
ENCODING 8261
SWIDTH 600 0
DWIDTH 15 0
BBX 7 24 5 -3
BITMAP
FE
FE
FE
E0
E0
E0
E0
E0
E0
E0
FE
FE
FE
E0
E0
E0
E0
E0
E0
E0
E0
FE
FE
FE
ENDCHAR
STARTCHAR 2046
ENCODING 8262
SWIDTH 600 0
DWIDTH 15 0
BBX 7 24 3 -3
BITMAP
FE
FE
FE
0E
0E
0E
0E
0E
0E
0E
FE
FE
FE
0E
0E
0E
0E
0E
0E
0E
0E
FE
FE
FE
ENDCHAR
STARTCHAR 2070
ENCODING 8304
SWIDTH 600 0
DWIDTH 15 0
BBX 9 11 3 10
BITMAP
3E00
7F00
E380
C180
C180
C180
C180
C180
E380
7F00
3E00
ENDCHAR
STARTCHAR 2074
ENCODING 8308
SWIDTH 600 0
DWIDTH 15 0
BBX 8 11 3 10
BITMAP
0E
0C
18
38
33
63
E3
FF
FF
03
03
ENDCHAR
STARTCHAR 2075
ENCODING 8309
SWIDTH 600 0
DWIDTH 15 0
BBX 9 11 3 10
BITMAP
7F00
7F00
6000
6000
7E00
7F00
0380
0180
E380
7F00
3E00
ENDCHAR
STARTCHAR 2076
ENCODING 8310
SWIDTH 600 0
DWIDTH 15 0
BBX 9 11 3 10
BITMAP
0C00
1800
1800
3400
7F00
6380
C180
C180
E380
7F00
3E00
ENDCHAR
STARTCHAR 2077
ENCODING 8311
SWIDTH 600 0
DWIDTH 15 0
BBX 9 11 3 10
BITMAP
FF80
FF80
E380
E300
0700
0600
0E00
0C00
1C00
1800
3800
ENDCHAR
STARTCHAR 2078
ENCODING 8312
SWIDTH 600 0
DWIDTH 15 0
BBX 9 11 3 10
BITMAP
3E00
7F00
E380
6300
3E00
7F00
E380
C180
E380
7F00
3E00
ENDCHAR
STARTCHAR 2079
ENCODING 8313
SWIDTH 600 0
DWIDTH 15 0
BBX 9 11 3 10
BITMAP
3E00
7F00
E380
C180
E380
7F00
3F00
0600
0C00
1C00
1800
ENDCHAR
STARTCHAR 207A
ENCODING 8314
SWIDTH 600 0
DWIDTH 15 0
BBX 7 7 4 8
BITMAP
38
38
FE
FE
38
38
38
ENDCHAR
STARTCHAR 207C
ENCODING 8316
SWIDTH 600 0
DWIDTH 15 0
BBX 7 6 4 11
BITMAP
FE
FE
00
00
FE
FE
ENDCHAR
STARTCHAR 2080
ENCODING 8320
SWIDTH 600 0
DWIDTH 15 0
BBX 9 11 3 -3
BITMAP
3E00
7F00
E380
C180
C180
C180
C180
C180
E380
7F00
3E00
ENDCHAR
STARTCHAR 2081
ENCODING 8321
SWIDTH 600 0
DWIDTH 15 0
BBX 8 11 4 -3
BITMAP
38
F8
D8
18
18
18
18
18
18
FF
FF
ENDCHAR
STARTCHAR 2082
ENCODING 8322
SWIDTH 600 0
DWIDTH 15 0
BBX 8 11 4 -3
BITMAP
7C
FE
C6
C7
06
0E
1C
70
E0
FF
FF
ENDCHAR
STARTCHAR 2083
ENCODING 8323
SWIDTH 600 0
DWIDTH 15 0
BBX 9 11 3 -3
BITMAP
7F00
7F00
0700
0C00
0E00
0700
0380
C180
E380
7F00
3E00
ENDCHAR
STARTCHAR 2084
ENCODING 8324
SWIDTH 600 0
DWIDTH 15 0
BBX 8 11 3 -3
BITMAP
0E
0C
18
38
33
63
E3
FF
FF
03
03
ENDCHAR
STARTCHAR 2085
ENCODING 8325
SWIDTH 600 0
DWIDTH 15 0
BBX 9 11 3 -3
BITMAP
7F00
7F00
6000
6000
7E00
7F00
0380
0180
E380
7F00
3E00
ENDCHAR
STARTCHAR 2086
ENCODING 8326
SWIDTH 600 0
DWIDTH 15 0
BBX 9 11 3 -3
BITMAP
0C00
1800
1800
3400
7F00
6380
C180
C180
E380
7F00
3E00
ENDCHAR
STARTCHAR 2087
ENCODING 8327
SWIDTH 600 0
DWIDTH 15 0
BBX 9 11 3 -3
BITMAP
FF80
FF80
E380
E300
0700
0600
0E00
0C00
1C00
1800
3800
ENDCHAR
STARTCHAR 2088
ENCODING 8328
SWIDTH 600 0
DWIDTH 15 0
BBX 9 11 3 -3
BITMAP
3E00
7F00
E380
6300
3E00
7F00
E380
C180
E380
7F00
3E00
ENDCHAR
STARTCHAR 2089
ENCODING 8329
SWIDTH 600 0
DWIDTH 15 0
BBX 9 11 3 -3
BITMAP
3E00
7F00
E380
C180
E380
7F00
3F00
0600
0C00
1C00
1800
ENDCHAR
STARTCHAR 20AB
ENCODING 8363
SWIDTH 600 0
DWIDTH 15 0
BBX 13 21 2 -3
BITMAP
00E0
00E0
07F8
07F8
00E0
00E0
3CE0
7EE0
FFE0
E1E0
E0E0
E0E0
E0E0
E1E0
FFE0
7EE0
3CE0
0000
FFE0
FFE0
FFE0
ENDCHAR
STARTCHAR 20AC
ENCODING 8364
SWIDTH 600 0
DWIDTH 15 0
BBX 13 18 0 0
BITMAP
07C0
1FF0
1FF8
3C38
3838
3800
FF80
FF80
3800
3800
FF80
FF80
3800
3838
3C38
1FF8
1FF0
07C0
ENDCHAR
STARTCHAR 20AE
ENCODING 8366
SWIDTH 600 0
DWIDTH 15 0
BBX 13 18 1 0
BITMAP
FFF8
FFF8
FFF8
0700
0700
0710
07F0
0FF0
7F80
7F00
4770
07F0
3FE0
7F00
7700
0700
0700
0700
ENDCHAR
STARTCHAR 20B4
ENCODING 8372
SWIDTH 600 0
DWIDTH 15 0
BBX 13 18 1 0
BITMAP
0FC0
3FE0
3FF0
7070
0060
FFF8
FFF8
FFF8
0000
FFF8
FFF8
FFF8
3800
7070
70F0
7FE0
3FE0
0F80
ENDCHAR
STARTCHAR 20BD
ENCODING 8381
SWIDTH 600 0
DWIDTH 15 0
BBX 13 18 1 0
BITMAP
7FC0
7FE0
7FF0
7878
7838
7838
7838
7878
FFF0
FFE0
FF80
7800
FFC0
FFC0
FFC0
7800
7800
7800
ENDCHAR
STARTCHAR 20BF
ENCODING 8383
SWIDTH 600 0
DWIDTH 15 0
BBX 12 25 2 -3
BITMAP
3200
3200
3200
3200
FF00
FFC0
FFE0
E0E0
E0E0
E0E0
E0E0
FFC0
FF00
FFC0
E1E0
E0F0
E070
E0F0
E0E0
FFE0
FFC0
FF80
3200
3200
3200
ENDCHAR
STARTCHAR 2102
ENCODING 8450
SWIDTH 600 0
DWIDTH 15 0
BBX 11 19 2 0
BITMAP
1F00
60C0
6040
A020
A020
A020
A000
A000
A000
A000
A000
A000
A000
A020
A020
A020
6040
60C0
1F00
ENDCHAR
STARTCHAR 210D
ENCODING 8461
SWIDTH 600 0
DWIDTH 15 0
BBX 11 18 2 0
BITMAP
E0E0
A0A0
A0A0
A0A0
A0A0
A0A0
A0A0
A0A0
BFA0
A0A0
A0A0
A0A0
A0A0
A0A0
A0A0
A0A0
A0A0
E0E0
ENDCHAR
STARTCHAR 2113
ENCODING 8467
SWIDTH 600 0
DWIDTH 15 0
BBX 12 19 1 0
BITMAP
0380
0FE0
1FE0
1CF0
1C70
1C70
1C70
1CF0
1CE0
1FE0
1FC0
FF00
7C00
7C00
1C00
1C40
1FF0
0FE0
07C0
ENDCHAR
STARTCHAR 2115
ENCODING 8469
SWIDTH 600 0
DWIDTH 15 0
BBX 11 18 2 0
BITMAP
F020
9020
D820
C820
A820
A420
B420
9220
9220
8920
8920
85A0
84A0
86A0
8260
8360
8120
81E0
ENDCHAR
STARTCHAR 2116
ENCODING 8470
SWIDTH 600 0
DWIDTH 15 0
BBX 14 18 1 0
BITMAP
E738
E77C
E76C
E76C
F76C
F76C
F76C
F76C
DB6C
DB7C
DB38
DB00
CF00
CF00
CF00
CF00
C700
C700
ENDCHAR
STARTCHAR 2119
ENCODING 8473
SWIDTH 600 0
DWIDTH 15 0
BBX 12 18 2 0
BITMAP
FF80
A0C0
A0A0
A0B0
A0B0
A0B0
A0B0
A0A0
A0C0
BF80
A000
A000
A000
A000
A000
A000
A000
E000
ENDCHAR
STARTCHAR 211A
ENCODING 8474
SWIDTH 600 0
DWIDTH 15 0
BBX 11 23 2 -4
BITMAP
1F00
6080
60C0
A0A0
A0A0
A0A0
A0A0
A0A0
A0A0
A0A0
A0A0
A0A0
A0A0
A0A0
A0A0
A0A0
60C0
60C0
1F00
0180
0080
00C0
0060
ENDCHAR
STARTCHAR 211D
ENCODING 8477
SWIDTH 600 0
DWIDTH 15 0
BBX 12 18 2 0
BITMAP
FF80
A0C0
A0A0
A0A0
A090
A090
A0A0
A0A0
A0C0
BF80
AD00
A480
A680
A240
A340
A120
A1A0
E0F0
ENDCHAR
STARTCHAR 2122
ENCODING 8482
SWIDTH 600 0
DWIDTH 15 0
BBX 14 9 0 9
BITMAP
FECC
10CC
10F4
10B4
10B4
1084
1084
1084
1084
ENDCHAR
STARTCHAR 2124
ENCODING 8484
SWIDTH 600 0
DWIDTH 15 0
BBX 11 18 2 0
BITMAP
FFE0
0120
0140
0240
02C0
0480
0580
0900
0B00
1200
1200
2400
2400
6800
4800
D000
9000
FFE0
ENDCHAR
STARTCHAR 212E
ENCODING 8494
SWIDTH 600 0
DWIDTH 15 0
BBX 13 19 1 0
BITMAP
0F80
38C0
2020
6030
6030
6030
E030
E038
E038
FFF8
E000
E000
E000
6000
6000
6010
2030
3060
0F80
ENDCHAR
STARTCHAR 2140
ENCODING 8512
SWIDTH 600 0
DWIDTH 15 0
BBX 13 23 1 -4
BITMAP
FFF8
D000
4800
2C00
2400
1200
1A00
0900
0500
0480
0240
0140
0240
0280
0480
0900
0B00
1200
3400
2400
4800
5800
FFF8
ENDCHAR
STARTCHAR 218A
ENCODING 8586
SWIDTH 600 0
DWIDTH 15 0
BBX 11 18 2 0
BITMAP
FFE0
FFE0
FFE0
03C0
0780
0F00
1E00
3C00
7800
7000
F000
E000
E0E0
E0E0
F0E0
FFE0
7FC0
1F00
ENDCHAR
STARTCHAR 218B
ENCODING 8587
SWIDTH 600 0
DWIDTH 15 0
BBX 11 18 2 0
BITMAP
1F00
7FC0
FFE0
F0E0
E0E0
E000
E000
E000
F000
7F00
3F00
0F00
1E00
3C00
7800
FFE0
FFE0
FFE0
ENDCHAR
STARTCHAR 2190
ENCODING 8592
SWIDTH 600 0
DWIDTH 15 0
BBX 15 15 0 1
BITMAP
0380
0780
0F00
1E00
1C00
3800
7FFE
FFFE
7FFE
3800
3C00
1E00
0E00
0700
0380
ENDCHAR
STARTCHAR 2191
ENCODING 8593
SWIDTH 600 0
DWIDTH 15 0
BBX 13 18 1 0
BITMAP
0700
0F80
1FC0
3FE0
7FF0
F778
E718
8708
0700
0700
0700
0700
0700
0700
0700
0700
0700
0700
ENDCHAR
STARTCHAR 2192
ENCODING 8594
SWIDTH 600 0
DWIDTH 15 0
BBX 15 15 0 1
BITMAP
0380
03C0
01E0
00F0
0070
0038
FFFC
FFFE
FFFC
0038
0078
00F0
00E0
01C0
0380
ENDCHAR
STARTCHAR 2193
ENCODING 8595
SWIDTH 600 0
DWIDTH 15 0
BBX 13 18 1 0
BITMAP
0700
0700
0700
0700
0700
0700
0700
0700
0700
0700
8708
E738
F778
7FF0
3FE0
1FC0
0F80
0700
ENDCHAR
STARTCHAR 2194
ENCODING 8596
SWIDTH 600 0
DWIDTH 15 0
BBX 19 15 -2 1
BITMAP
07BC00
0F1E00
0E0E00
1C0700
3C0780
7803C0
7FFFC0
FFFFE0
FFFFE0
7001C0
380380
1C0700
1E0F00
0F1E00
071C00
ENDCHAR
STARTCHAR 2195
ENCODING 8597
SWIDTH 600 0
DWIDTH 15 0
BBX 13 26 1 -4
BITMAP
0700
0F80
1FC0
3FE0
7FF0
F778
E718
8708
0700
0700
0700
0700
0700
0700
0700
0700
0700
8708
C718
E738
F778
7FF0
3FE0
1FC0
0F80
0200
ENDCHAR
STARTCHAR 2196
ENCODING 8598
SWIDTH 600 0
DWIDTH 15 0
BBX 12 13 2 6
BITMAP
FFC0
FFC0
FFE0
F800
FC00
DE00
CF00
C780
C3C0
C1E0
C0F0
0070
0020
ENDCHAR
STARTCHAR 2197
ENCODING 8599
SWIDTH 600 0
DWIDTH 15 0
BBX 13 13 1 6
BITMAP
3FF8
7FF8
7FF8
01F8
03F8
07B8
0F38
1E38
3C38
7838
F830
F020
6000
ENDCHAR
STARTCHAR 2198
ENCODING 8600
SWIDTH 600 0
DWIDTH 15 0
BBX 13 12 1 0
BITMAP
6020
F030
7838
3C38
1E38
0F38
07B8
03F8
01F8
FFF8
7FF8
3FF8
ENDCHAR
STARTCHAR 2199
ENCODING 8601
SWIDTH 600 0
DWIDTH 15 0
BBX 13 12 1 0
BITMAP
2030
6078
E0F0
E1E0
E3C0
E780
EF00
FE00
FC00
FFF8
FFF0
FFE0
ENDCHAR
STARTCHAR 219D
ENCODING 8605
SWIDTH 600 0
DWIDTH 15 0
BBX 15 7 0 4
BITMAP
00FC
00FE
381E
7C36
EE66
C7E6
C3C6
ENDCHAR
STARTCHAR 219E
ENCODING 8606
SWIDTH 600 0
DWIDTH 15 0
BBX 15 9 0 3
BITMAP
0C70
18E0
31C0
6380
FFFE
FFFE
6380
31C0
18E0
ENDCHAR
STARTCHAR 21A0
ENCODING 8608
SWIDTH 600 0
DWIDTH 15 0
BBX 15 9 0 3
BITMAP
1C60
0E30
0718
038C
FFFE
FFFE
038C
0718
0E30
ENDCHAR
STARTCHAR 21A2
ENCODING 8610
SWIDTH 600 0
DWIDTH 15 0
BBX 15 9 0 3
BITMAP
0C0E
181C
3038
6070
FFE0
FFE0
6030
3038
181C
ENDCHAR
STARTCHAR 21A3
ENCODING 8611
SWIDTH 600 0
DWIDTH 15 0
BBX 15 9 0 3
BITMAP
E060
7030
3818
1C0C
0FFE
0FFE
1C0C
3818
7030
ENDCHAR
STARTCHAR 21A5
ENCODING 8613
SWIDTH 600 0
DWIDTH 15 0
BBX 9 14 3 0
BITMAP
1C00
3E00
7F00
FF80
DD80
1C00
1C00
1C00
1C00
1C00
1C00
1C00
FF80
FF80
ENDCHAR
STARTCHAR 21A6
ENCODING 8614
SWIDTH 600 0
DWIDTH 15 0
BBX 15 9 0 3
BITMAP
C060
C030
C018
C00C
FFFE
FFFE
C00C
C018
C030
ENDCHAR
STARTCHAR 21A7
ENCODING 8615
SWIDTH 600 0
DWIDTH 15 0
BBX 9 13 3 1
BITMAP
FF80
FF80
1C00
1C00
1C00
1C00
1C00
1C00
9C80
DD80
FF80
7F00
1E00
ENDCHAR
STARTCHAR 21A9
ENCODING 8617
SWIDTH 600 0
DWIDTH 15 0
BBX 15 16 0 2
BITMAP
00E0
00F8
00FC
001C
000E
0E0E
0C0E
1C0E
381C
7FFC
FFF8
7FE0
3800
3800
1C00
0E00
ENDCHAR
STARTCHAR 21AA
ENCODING 8618
SWIDTH 600 0
DWIDTH 15 0
BBX 15 16 0 2
BITMAP
0E00
3E00
7E00
7000
E000
E0E0
E060
E070
7038
7FFC
3FFE
0FFC
0038
0038
0070
00E0
ENDCHAR
STARTCHAR 21AD
ENCODING 8621
SWIDTH 600 0
DWIDTH 15 0
BBX 15 9 0 2
BITMAP
1830
3398
779C
ECCE
FC7E
F83E
701C
3838
1830
ENDCHAR
STARTCHAR 21BE
ENCODING 8638
SWIDTH 600 0
DWIDTH 15 0
BBX 7 25 6 -4
BITMAP
80
C0
E0
D0
C8
C6
C2
C0
C0
C0
C0
C0
C0
C0
C0
C0
C0
C0
C0
C0
C0
C0
C0
C0
C0
ENDCHAR
STARTCHAR 21C9
ENCODING 8649
SWIDTH 600 0
DWIDTH 15 0
BBX 15 16 0 -1
BITMAP
0038
0018
000C
FFFE
FFFE
000C
0018
0038
0038
0018
000C
FFFE
FFFE
000C
0018
0038
ENDCHAR
STARTCHAR 21D0
ENCODING 8656
SWIDTH 600 0
DWIDTH 15 0
BBX 15 15 0 1
BITMAP
0300
0700
0E00
1C00
1FFE
3FFE
7000
E000
E000
7000
3FFE
1FFE
1C00
0E00
0700
ENDCHAR
STARTCHAR 21D1
ENCODING 8657
SWIDTH 600 0
DWIDTH 15 0
BBX 15 25 0 -4
BITMAP
0440
0C60
1C70
2448
4444
8442
0440
0440
0440
0440
0440
0440
0440
0440
0440
0440
0440
0440
0440
0440
0440
0440
0440
0440
0440
ENDCHAR
STARTCHAR 21D2
ENCODING 8658
SWIDTH 600 0
DWIDTH 15 0
BBX 15 15 0 1
BITMAP
0180
01C0
00E0
0070
FFF0
FFF8
001C
000E
000E
001C
FFF8
FFF0
0070
00E0
01C0
ENDCHAR
STARTCHAR 21D3
ENCODING 8659
SWIDTH 600 0
DWIDTH 15 0
BBX 15 25 0 -4
BITMAP
0440
0440
0440
0440
0440
0440
0440
0440
0440
0440
0440
0440
0440
0440
0440
0440
0440
0440
0440
8442
4444
2448
1470
0C60
0440
ENDCHAR
STARTCHAR 21D4
ENCODING 8660
SWIDTH 600 0
DWIDTH 15 0
BBX 19 15 -2 1
BITMAP
031800
071C00
0E0E00
1C0700
1FFF00
3FFF80
7001C0
E000E0
E000E0
7001C0
3FFF80
1FFF00
1C0700
0E0E00
071C00
ENDCHAR
STARTCHAR 21DB
ENCODING 8667
SWIDTH 600 0
DWIDTH 15 0
BBX 15 15 0 1
BITMAP
0180
00C0
FFE0
FFF0
0030
0018
001C
FFFE
FFFE
001C
0038
FFF0
FFE0
00C0
01C0
ENDCHAR
STARTCHAR 21DE
ENCODING 8670
SWIDTH 600 0
DWIDTH 15 0
BBX 11 19 2 0
BITMAP
0400
0E00
1F00
3F80
7FC0
FE20
0E00
0E00
0E00
FFE0
FFE0
0E00
0E00
FFE0
FFE0
0E00
0E00
0E00
0E00
ENDCHAR
STARTCHAR 21DF
ENCODING 8671
SWIDTH 600 0
DWIDTH 15 0
BBX 11 20 2 -1
BITMAP
0E00
0E00
0E00
0E00
0E00
FFE0
FFE0
0E00
0E00
FFE0
FFE0
0E00
0E00
0E00
7FC0
3F80
1F80
1F00
0E00
0400
ENDCHAR
STARTCHAR 21E5
ENCODING 8677
SWIDTH 600 0
DWIDTH 15 0
BBX 15 11 0 3
BITMAP
0E0E
070E
030E
018E
FFCE
FFEE
FFCE
01CE
038E
070E
0E0E
ENDCHAR
STARTCHAR 21E7
ENCODING 8679
SWIDTH 600 0
DWIDTH 15 0
BBX 13 20 1 0
BITMAP
0200
0700
0D00
0880
1040
2020
4010
F8F8
18C0
18C0
18C0
18C0
18C0
18C0
18C0
18C0
18C0
18C0
18C0
0F80
ENDCHAR
STARTCHAR 21E8
ENCODING 8680
SWIDTH 600 0
DWIDTH 15 0
BBX 15 14 0 1
BITMAP
0100
0180
0140
0120
FF10
8008
8004
8006
800C
FF10
0120
0140
0180
0100
ENDCHAR
STARTCHAR 21EA
ENCODING 8682
SWIDTH 600 0
DWIDTH 15 0
BBX 13 20 1 0
BITMAP
0200
0700
0D00
0880
1040
2020
4010
F8F8
18C0
18C0
18C0
18C0
1FC0
0000
0000
1FC0
18C0
18C0
18C0
0F80
ENDCHAR
STARTCHAR 2200
ENCODING 8704
SWIDTH 600 0
DWIDTH 15 0
BBX 13 18 1 0
BITMAP
E038
E038
7078
7070
7FF0
7FF0
3FE0
38E0
38E0
38E0
1DC0
1DC0
1DC0
1DC0
0D80
0F80
0F80
0F80
ENDCHAR
STARTCHAR 2201
ENCODING 8705
SWIDTH 600 0
DWIDTH 15 0
BBX 9 14 3 0
BITMAP
3E00
7F00
7F80
F380
E380
E000
E000
E000
E000
E380
E380
7F80
7F00
3E00
ENDCHAR
STARTCHAR 2202
ENCODING 8706
SWIDTH 600 0
DWIDTH 15 0
BBX 11 19 2 0
BITMAP
3C00
1E00
0F00
0780
03C0
01C0
00E0
7EE0
7FE0
F1E0
E0E0
E0E0
E0E0
E0E0
E0E0
E0E0
FBC0
7FC0
1F00
ENDCHAR
STARTCHAR 2203
ENCODING 8707
SWIDTH 600 0
DWIDTH 15 0
BBX 11 18 2 0
BITMAP
FFE0
FFE0
FFE0
00E0
00E0
00E0
00E0
7FE0
7FE0
7FE0
00E0
00E0
00E0
00E0
00E0
FFE0
FFE0
FFE0
ENDCHAR
STARTCHAR 2204
ENCODING 8708
SWIDTH 600 0
DWIDTH 15 0
BBX 11 23 2 -2
BITMAP
00C0
00C0
01C0
FFE0
FFE0
FFE0
03E0
03E0
06E0
06E0
7FE0
7FE0
7FE0
18E0
18E0
18E0
30E0
30E0
FFE0
FFE0
FFE0
C000
C000
ENDCHAR
STARTCHAR 2205
ENCODING 8709
SWIDTH 600 0
DWIDTH 15 0
BBX 15 18 0 0
BITMAP
000C
07D8
1FF8
3FF8
787C
F07C
E0CE
E1CE
E18E
E30E
E70E
E60E
FC1E
7C3C
3FF8
3FF0
77C0
6000
ENDCHAR
STARTCHAR 2206
ENCODING 8710
SWIDTH 600 0
DWIDTH 15 0
BBX 13 18 1 0
BITMAP
0F80
0F80
0F80
0D80
1DC0
1DC0
1DC0
18C0
38E0
38E0
38E0
38E0
7070
7070
7070
FFF0
FFF8
FFF8
ENDCHAR
STARTCHAR 2207
ENCODING 8711
SWIDTH 600 0
DWIDTH 15 0
BBX 13 18 1 1
BITMAP
FFF8
FFF8
FFF8
7070
7070
7070
7870
38E0
38E0
38E0
38E0
1DC0
1DC0
1DC0
1DC0
0F80
0F80
0F80
ENDCHAR
STARTCHAR 2208
ENCODING 8712
SWIDTH 600 0
DWIDTH 15 0
BBX 13 15 1 2
BITMAP
1FF8
3FF8
7FF8
F000
E000
E000
FFF8
FFF8
FFF8
E000
E000
F000
7FF8
7FF8
1FF8
ENDCHAR
STARTCHAR 2209
ENCODING 8713
SWIDTH 600 0
DWIDTH 15 0
BBX 13 21 1 -1
BITMAP
0060
0060
00C0
0FF8
3FF8
7FF8
F180
E180
E300
FFF8
FFF8
FFF8
E600
E600
FC00
7FF8
7FF8
1FF8
1800
3000
3000
ENDCHAR
STARTCHAR 220A
ENCODING 8714
SWIDTH 600 0
DWIDTH 15 0
BBX 7 7 4 5
BITMAP
7E
C0
80
FE
80
C0
7E
ENDCHAR
STARTCHAR 220B
ENCODING 8715
SWIDTH 600 0
DWIDTH 15 0
BBX 13 15 1 2
BITMAP
FFC0
FFE0
FFF0
0078
0038
0038
FFF8
FFF8
FFF8
0038
0038
0078
FFF0
FFF0
FFC0
ENDCHAR
STARTCHAR 220C
ENCODING 8716
SWIDTH 600 0
DWIDTH 15 0
BBX 13 21 1 -1
BITMAP
0060
0060
00C0
FFC0
FFE0
FFF0
01F8
01B8
0338
FFF8
FFF8
FFF8
0638
0E38
0C78
FFF0
FFF0
FFC0
1800
3000
3000
ENDCHAR
STARTCHAR 220E
ENCODING 8718
SWIDTH 600 0
DWIDTH 15 0
BBX 9 13 3 0
BITMAP
FF80
FF80
FF80
FF80
FF80
FF80
FF80
FF80
FF80
FF80
FF80
FF80
FF80
ENDCHAR
STARTCHAR 220F
ENCODING 8719
SWIDTH 600 0
DWIDTH 15 0
BBX 13 23 1 -5
BITMAP
FFF8
FFF8
FFF8
7070
7070
7070
7070
7070
7070
7070
7070
7070
7070
7070
7070
7070
7070
7070
7070
7070
7070
7070
7070
ENDCHAR
STARTCHAR 2210
ENCODING 8720
SWIDTH 600 0
DWIDTH 15 0
BBX 13 23 1 -4
BITMAP
7070
7070
7070
7070
7070
7070
7070
7070
7070
7070
7070
7070
7070
7070
7070
7070
7070
7070
7070
7070
FFF8
FFF8
FFF8
ENDCHAR
STARTCHAR 2211
ENCODING 8721
SWIDTH 600 0
DWIDTH 15 0
BBX 13 23 1 -4
BITMAP
FFF8
FFF8
FFF8
7000
7800
3C00
1E00
0E00
0F00
0780
0380
01C0
03C0
0780
0700
0F00
1E00
3C00
3800
7800
FFF8
FFF8
FFF8
ENDCHAR
STARTCHAR 2212
ENCODING 8722
SWIDTH 600 0
DWIDTH 15 0
BBX 9 3 3 7
BITMAP
FF80
FF80
FF80
ENDCHAR
STARTCHAR 2213
ENCODING 8723
SWIDTH 600 0
DWIDTH 15 0
BBX 12 14 2 0
BITMAP
FFE0
FFE0
0E00
0E00
0E00
0E00
0E00
FFF0
FFF0
FFF0
0E00
0E00
0E00
0E00
ENDCHAR
STARTCHAR 2215
ENCODING 8725
SWIDTH 600 0
DWIDTH 15 0
BBX 15 18 0 0
BITMAP
000E
001C
0018
0038
0070
0060
00E0
01C0
0180
0300
0700
0E00
0C00
1C00
3800
3000
7000
E000
ENDCHAR
STARTCHAR 2218
ENCODING 8728
SWIDTH 600 0
DWIDTH 15 0
BBX 5 6 5 5
BITMAP
70
88
88
88
88
70
ENDCHAR
STARTCHAR 2219
ENCODING 8729
SWIDTH 600 0
DWIDTH 15 0
BBX 5 5 5 6
BITMAP
70
F8
F8
F8
70
ENDCHAR
STARTCHAR 221A
ENCODING 8730
SWIDTH 600 0
DWIDTH 15 0
BBX 15 19 0 0
BITMAP
000E
000E
001C
001C
001C
F81C
F838
FC38
1C38
1C70
0C70
0E70
0E60
0EE0
06E0
07E0
07C0
07C0
03C0
ENDCHAR
STARTCHAR 221E
ENCODING 8734
SWIDTH 600 0
DWIDTH 15 0
BBX 13 9 1 4
BITMAP
3870
FDF8
CF18
C718
C718
C718
C718
FDF8
78F0
ENDCHAR
STARTCHAR 2223
ENCODING 8739
SWIDTH 600 0
DWIDTH 15 0
BBX 3 19 6 0
BITMAP
E0
E0
E0
E0
E0
E0
E0
E0
E0
E0
E0
E0
E0
E0
E0
E0
E0
E0
E0
ENDCHAR
STARTCHAR 2224
ENCODING 8740
SWIDTH 600 0
DWIDTH 15 0
BBX 11 19 2 0
BITMAP
0E00
0E00
0E00
0E00
0EE0
0FC0
0F80
0F00
0F00
0E00
0E00
1E00
3E00
3E00
6E00
CE00
0E00
0E00
0E00
ENDCHAR
STARTCHAR 2225
ENCODING 8741
SWIDTH 600 0
DWIDTH 15 0
BBX 9 19 3 0
BITMAP
E380
E380
E380
E380
E380
E380
E380
E380
E380
E380
E380
E380
E380
E380
E380
E380
E380
E380
E380
ENDCHAR
STARTCHAR 2227
ENCODING 8743
SWIDTH 600 0
DWIDTH 15 0
BBX 13 13 1 1
BITMAP
0F80
0F80
0F80
1DC0
1DC0
1DC0
3DE0
38E0
38E0
7070
7070
7070
E038
ENDCHAR
STARTCHAR 2228
ENCODING 8744
SWIDTH 600 0
DWIDTH 15 0
BBX 13 13 1 1
BITMAP
E038
F078
7070
7070
78F0
38E0
38E0
1DC0
1DC0
1DC0
0F80
0F80
0F80
ENDCHAR
STARTCHAR 2229
ENCODING 8745
SWIDTH 600 0
DWIDTH 15 0
BBX 15 18 0 1
BITMAP
07C0
3FF8
7FFC
783C
701C
F01E
F01E
F01E
F01E
F01E
F01E
F01E
F01E
F01E
F01E
F01E
F01E
F01E
ENDCHAR
STARTCHAR 222A
ENCODING 8746
SWIDTH 600 0
DWIDTH 15 0
BBX 15 19 0 0
BITMAP
F01E
F01E
F01E
F01E
F01E
F01E
F01E
F01E
F01E
F01E
F01E
F01E
F01E
F01E
701C
701C
7FFC
3FF8
0FE0
ENDCHAR
STARTCHAR 222B
ENCODING 8747
SWIDTH 600 0
DWIDTH 15 0
BBX 14 23 0 -4
BITMAP
00FC
03FC
03FC
0780
0700
0700
0700
0700
0700
0700
0700
0700
0700
0700
0700
0700
0700
0700
0700
0700
FF00
FE00
F800
ENDCHAR
STARTCHAR 2234
ENCODING 8756
SWIDTH 600 0
DWIDTH 15 0
BBX 15 14 0 0
BITMAP
0380
07C0
0380
0100
0000
0000
0000
0000
0000
0000
2008
701C
F83E
701C
ENDCHAR
STARTCHAR 2235
ENCODING 8757
SWIDTH 600 0
DWIDTH 15 0
BBX 15 14 0 0
BITMAP
701C
F83E
701C
2008
0000
0000
0000
0000
0000
0000
0100
0380
07C0
0380
ENDCHAR
STARTCHAR 2236
ENCODING 8758
SWIDTH 600 0
DWIDTH 15 0
BBX 5 14 5 0
BITMAP
70
F8
F8
70
00
00
00
00
00
00
70
F8
F8
70
ENDCHAR
STARTCHAR 2237
ENCODING 8759
SWIDTH 600 0
DWIDTH 15 0
BBX 13 13 1 0
BITMAP
7070
F8F8
F8F8
78F0
2020
0000
0000
0000
2020
78F0
F8F8
F8F8
7070
ENDCHAR
STARTCHAR 2238
ENCODING 8760
SWIDTH 600 0
DWIDTH 15 0
BBX 9 9 3 4
BITMAP
1C00
3E00
3E00
1C00
0000
0000
FF80
FF80
FF80
ENDCHAR
STARTCHAR 2239
ENCODING 8761
SWIDTH 600 0
DWIDTH 15 0
BBX 15 11 0 2
BITMAP
001C
001E
001E
001C
FF80
FF80
0000
001C
001E
001E
001C
ENDCHAR
STARTCHAR 223C
ENCODING 8764
SWIDTH 600 0
DWIDTH 15 0
BBX 13 6 1 6
BITMAP
3C38
7E38
FF38
E7F8
E3F0
E1E0
ENDCHAR
STARTCHAR 223E
ENCODING 8766
SWIDTH 600 0
DWIDTH 15 0
BBX 13 8 1 4
BITMAP
7C30
FE38
CE18
C718
C718
E3B8
E3F8
61F0
ENDCHAR
STARTCHAR 2243
ENCODING 8771
SWIDTH 600 0
DWIDTH 15 0
BBX 13 11 1 4
BITMAP
3C00
7E38
FF38
E7F8
E3F0
E1E0
0000
0000
FFF8
FFF8
FFF8
ENDCHAR
STARTCHAR 2245
ENCODING 8773
SWIDTH 600 0
DWIDTH 15 0
BBX 13 17 1 1
BITMAP
3C38
7E38
FF38
E7F8
E3F0
E1E0
0000
0000
FFF8
FFF8
FFF8
0000
0000
0000
FFF8
FFF8
FFF8
ENDCHAR
STARTCHAR 2247
ENCODING 8775
SWIDTH 600 0
DWIDTH 15 0
BBX 13 22 1 -2
BITMAP
0060
0060
3CE0
7EF8
E7F8
E7F8
E3F0
01E0
0300
0300
FFF8
FFF8
FFF8
0600
0C00
0C00
FFF8
FFF8
FFF8
1800
3000
3000
ENDCHAR
STARTCHAR 2248
ENCODING 8776
SWIDTH 600 0
DWIDTH 15 0
BBX 13 13 1 2
BITMAP
3C38
7E38
FF38
E7F8
E3F0
E1E0
0000
3C38
7E38
FF38
E7F8
E3F0
E1E0
ENDCHAR
STARTCHAR 2249
ENCODING 8777
SWIDTH 600 0
DWIDTH 15 0
BBX 13 21 1 -1
BITMAP
0060
0060
00C0
00C0
00C0
0180
7DB8
7FB8
E738
E3F0
E3F0
0600
3E38
7E38
FF38
EFF8
EFF0
F9E0
1800
1800
3000
ENDCHAR
STARTCHAR 224B
ENCODING 8779
SWIDTH 600 0
DWIDTH 15 0
BBX 13 16 1 0
BITMAP
7E38
7FF8
E7F0
E1E0
0000
0000
7E38
7FF8
E7F0
E1E0
0000
0000
7E38
7FF8
E7F0
E1E0
ENDCHAR
STARTCHAR 224D
ENCODING 8781
SWIDTH 600 0
DWIDTH 15 0
BBX 15 12 0 3
BITMAP
E00E
701C
701C
7FFC
3FF0
0000
0000
0000
3FF8
7FFC
701C
F01E
ENDCHAR
STARTCHAR 2254
ENCODING 8788
SWIDTH 600 0
DWIDTH 15 0
BBX 15 12 0 2
BITMAP
7000
F3FE
F3FE
F3FE
7000
0000
0000
7000
F3FE
F3FE
F3FE
7000
ENDCHAR
STARTCHAR 2257
ENCODING 8791
SWIDTH 600 0
DWIDTH 15 0
BBX 11 18 2 1
BITMAP
0E00
1F00
3180
3180
3180
1F00
0E00
0000
0000
FFE0
FFE0
FFE0
0000
0000
0000
FFE0
FFE0
FFE0
ENDCHAR
STARTCHAR 225F
ENCODING 8799
SWIDTH 600 0
DWIDTH 15 0
BBX 11 19 2 1
BITMAP
1F00
1F80
0180
0180
0F00
0C00
0000
0C00
0C00
0000
FFE0
FFE0
FFE0
0000
0000
0000
FFE0
FFE0
FFE0
ENDCHAR
STARTCHAR 2260
ENCODING 8800
SWIDTH 600 0
DWIDTH 15 0
BBX 11 21 2 -1
BITMAP
00C0
00C0
0180
0180
0180
0300
0300
FFE0
FFE0
FFE0
0600
0C00
0C00
FFE0
FFE0
FFE0
1800
3000
3000
6000
6000
ENDCHAR
STARTCHAR 2261
ENCODING 8801
SWIDTH 600 0
DWIDTH 15 0
BBX 11 15 2 1
BITMAP
FFE0
FFE0
FFE0
0000
0000
0000
FFE0
FFE0
FFE0
0000
0000
0000
FFE0
FFE0
FFE0
ENDCHAR
STARTCHAR 2262
ENCODING 8802
SWIDTH 600 0
DWIDTH 15 0
BBX 11 21 2 -2
BITMAP
00C0
0180
0180
FFE0
FFE0
FFE0
0300
0600
0600
FFE0
FFE0
FFE0
0C00
0C00
1800
FFE0
FFE0
FFE0
3000
3000
6000
ENDCHAR
STARTCHAR 2263
ENCODING 8803
SWIDTH 600 0
DWIDTH 15 0
BBX 11 15 2 1
BITMAP
FFE0
FFE0
0000
0000
0000
FFE0
FFE0
0000
0000
FFE0
FFE0
0000
0000
FFE0
FFE0
ENDCHAR
STARTCHAR 2264
ENCODING 8804
SWIDTH 600 0
DWIDTH 15 0
BBX 11 18 2 0
BITMAP
0020
01E0
07E0
1F80
7E00
F800
E000
F000
7E00
1F80
07E0
01E0
0060
0000
0000
FFE0
FFE0
FFE0
ENDCHAR
STARTCHAR 2265
ENCODING 8805
SWIDTH 600 0
DWIDTH 15 0
BBX 11 18 2 0
BITMAP
8000
F000
FC00
3F00
0FC0
03E0
00E0
01E0
0FC0
3F00
FC00
F000
C000
0000
0000
FFE0
FFE0
FFE0
ENDCHAR
STARTCHAR 226A
ENCODING 8810
SWIDTH 600 0
DWIDTH 15 0
BBX 15 13 0 2
BITMAP
0102
0306
0F1E
1E3C
78F0
F1E0
C180
E1C0
78E0
3C78
0E3C
070E
0306
ENDCHAR
STARTCHAR 226B
ENCODING 8811
SWIDTH 600 0
DWIDTH 15 0
BBX 15 13 0 2
BITMAP
8100
C180
F1E0
78F0
1E3C
0F1E
0306
070E
0E3C
3C78
78E0
E1C0
C180
ENDCHAR
STARTCHAR 226C
ENCODING 8812
SWIDTH 600 0
DWIDTH 15 0
BBX 7 16 4 -1
BITMAP
E6
38
3C
44
C6
C2
82
82
82
82
82
C2
44
6C
38
EE
ENDCHAR
STARTCHAR 226D
ENCODING 8813
SWIDTH 600 0
DWIDTH 15 0
BBX 15 16 0 1
BITMAP
0060
0060
E06E
70DC
70DC
7FFC
3FF8
0180
0380
0300
3FF8
7FFC
761C
761C
0C00
0C00
ENDCHAR
STARTCHAR 226E
ENCODING 8814
SWIDTH 600 0
DWIDTH 15 0
BBX 11 20 2 -2
BITMAP
00C0
0180
0180
03A0
03E0
03E0
0FC0
3F00
FE00
FC00
FC00
FC00
3F00
1FC0
1BE0
30E0
3020
3000
6000
6000
ENDCHAR
STARTCHAR 226F
ENCODING 8815
SWIDTH 600 0
DWIDTH 15 0
BBX 11 20 2 -2
BITMAP
00C0
0180
0180
0380
E300
FB00
7E00
1F80
07E0
0DE0
0CE0
0FE0
1F80
7E00
F800
F000
B000
3000
6000
6000
ENDCHAR
STARTCHAR 2270
ENCODING 8816
SWIDTH 600 0
DWIDTH 15 0
BBX 11 22 2 -2
BITMAP
00C0
00C0
00E0
01E0
07E0
1F80
7F00
FB00
E300
FE00
7E00
1F80
0FE0
0DE0
0C60
1800
1800
FFE0
FFE0
FFE0
7000
6000
ENDCHAR
STARTCHAR 2271
ENCODING 8817
SWIDTH 600 0
DWIDTH 15 0
BBX 11 22 2 -2
BITMAP
00C0
00C0
80C0
F180
FD80
3F80
0FC0
03E0
03E0
07E0
0FC0
3F00
FC00
FC00
CC00
1800
1800
FFE0
FFE0
FFE0
7000
6000
ENDCHAR
STARTCHAR 2272
ENCODING 8818
SWIDTH 600 0
DWIDTH 15 0
BBX 11 18 2 0
BITMAP
0020
01E0
07E0
1F80
7E00
F800
E000
F000
7E00
1F80
07E0
01E0
0060
0000
7860
FEE0
EFE0
C3C0
ENDCHAR
STARTCHAR 2273
ENCODING 8819
SWIDTH 600 0
DWIDTH 15 0
BBX 11 18 2 0
BITMAP
8000
E000
FC00
7F00
0FC0
03E0
00E0
01E0
07E0
3F00
FC00
F000
C000
0000
7860
FEE0
EFE0
C3C0
ENDCHAR
STARTCHAR 227A
ENCODING 8826
SWIDTH 600 0
DWIDTH 15 0
BBX 12 14 1 2
BITMAP
0070
0070
0070
00E0
01E0
0F80
FF00
F000
FF00
0FC0
01E0
00E0
0070
0070
ENDCHAR
STARTCHAR 227B
ENCODING 8827
SWIDTH 600 0
DWIDTH 15 0
BBX 12 13 2 2
BITMAP
E000
E000
7000
7800
3F00
0FF0
01F0
0FF0
3F80
7800
7000
E000
E000
ENDCHAR
STARTCHAR 227C
ENCODING 8828
SWIDTH 600 0
DWIDTH 15 0
BBX 12 18 1 0
BITMAP
0070
0070
00E0
01E0
0FC0
FF00
F800
FF00
3F80
03C0
00E0
0070
0070
0070
0000
FFF0
FFF0
FFF0
ENDCHAR
STARTCHAR 2282
ENCODING 8834
SWIDTH 600 0
DWIDTH 15 0
BBX 13 12 1 3
BITMAP
1FF8
7FF8
7FF8
F000
E000
E000
E000
E000
F000
7FF8
7FF8
1FF8
ENDCHAR
STARTCHAR 2283
ENCODING 8835
SWIDTH 600 0
DWIDTH 15 0
BBX 13 12 1 3
BITMAP
FFC0
FFF0
FFF0
0078
0038
0038
0038
0038
0078
FFF0
FFF0
FFC0
ENDCHAR
STARTCHAR 2284
ENCODING 8836
SWIDTH 600 0
DWIDTH 15 0
BBX 13 21 1 -1
BITMAP
0060
0060
00C0
00C0
00C0
1FF8
7FF8
7FF8
F300
E300
E300
E600
E600
F600
7FF8
7FF8
1FF8
1800
1800
1800
3000
ENDCHAR
STARTCHAR 2285
ENCODING 8837
SWIDTH 600 0
DWIDTH 15 0
BBX 13 21 1 -1
BITMAP
0060
0060
00C0
00C0
00C0
FFC0
FFF0
FFF0
0378
0338
0338
0638
0638
0678
FFF0
FFF0
FFC0
1800
1800
1800
3000
ENDCHAR
STARTCHAR 2286
ENCODING 8838
SWIDTH 600 0
DWIDTH 15 0
BBX 13 17 1 0
BITMAP
1FF8
7FF8
7FF8
F000
E000
E000
E000
E000
F000
7FF8
7FF8
1FF8
0000
0000
FFF8
FFF8
FFF8
ENDCHAR
STARTCHAR 2287
ENCODING 8839
SWIDTH 600 0
DWIDTH 15 0
BBX 13 17 1 0
BITMAP
FFC0
FFF0
FFF0
0078
0038
0038
0038
0038
0078
FFF0
FFF0
FFC0
0000
0000
FFF8
FFF8
FFF8
ENDCHAR
STARTCHAR 2288
ENCODING 8840
SWIDTH 600 0
DWIDTH 15 0
BBX 13 23 1 -2
BITMAP
0030
0030
0060
0060
1FF8
7FF8
7FF8
F1C0
E180
E180
E300
E300
F700
7FF8
7FF8
1FF8
0C00
0C00
FFF8
FFF8
FFF8
3000
3000
ENDCHAR
STARTCHAR 2289
ENCODING 8841
SWIDTH 600 0
DWIDTH 15 0
BBX 13 23 1 -2
BITMAP
0030
0030
0060
0060
FFE0
FFF0
FFF0
01F8
01B8
01B8
0338
0338
0778
FFF0
FFF0
FFC0
0C00
0C00
FFF8
FFF8
FFF8
3000
3000
ENDCHAR
STARTCHAR 228E
ENCODING 8846
SWIDTH 600 0
DWIDTH 15 0
BBX 11 19 2 0
BITMAP
8020
8020
8020
8020
8020
8020
8020
8020
8020
8020
8420
8420
8420
BFA0
8420
8420
C460
60C0
3F80
ENDCHAR
STARTCHAR 228F
ENCODING 8847
SWIDTH 600 0
DWIDTH 15 0
BBX 13 12 1 2
BITMAP
FFF8
FFF8
FFF8
E000
E000
E000
E000
E000
E000
FFF8
FFF8
FFF8
ENDCHAR
STARTCHAR 2290
ENCODING 8848
SWIDTH 600 0
DWIDTH 15 0
BBX 13 12 1 2
BITMAP
FFF8
FFF8
FFF8
0038
0038
0038
0038
0038
0038
FFF8
FFF8
FFF8
ENDCHAR
STARTCHAR 2291
ENCODING 8849
SWIDTH 600 0
DWIDTH 15 0
BBX 13 17 1 0
BITMAP
FFF8
FFF8
FFF8
E000
E000
E000
E000
E000
E000
FFF8
FFF8
FFF8
0000
0000
FFF8
FFF8
FFF8
ENDCHAR
STARTCHAR 2292
ENCODING 8850
SWIDTH 600 0
DWIDTH 15 0
BBX 13 17 1 0
BITMAP
FFF8
FFF8
FFF8
0038
0038
0038
0038
0038
0038
FFF8
FFF8
FFF8
0000
0000
FFF8
FFF8
FFF8
ENDCHAR
STARTCHAR 2293
ENCODING 8851
SWIDTH 600 0
DWIDTH 15 0
BBX 13 13 1 1
BITMAP
FFF8
FFF8
FFF8
E038
E038
E038
E038
E038
E038
E038
E038
E038
E038
ENDCHAR
STARTCHAR 2294
ENCODING 8852
SWIDTH 600 0
DWIDTH 15 0
BBX 13 14 1 0
BITMAP
E038
E038
E038
E038
E038
E038
E038
E038
E038
E038
E038
FFF8
FFF8
FFF8
ENDCHAR
STARTCHAR 2295
ENCODING 8853
SWIDTH 600 0
DWIDTH 15 0
BBX 15 15 0 1
BITMAP
07C0
1FF0
2388
4384
C386
8382
FFFE
FFFE
FFFE
8382
C386
4384
638C
3BB8
0FE0
ENDCHAR
STARTCHAR 2296
ENCODING 8854
SWIDTH 600 0
DWIDTH 15 0
BBX 15 15 0 1
BITMAP
07C0
1830
2008
4004
C006
8002
9FF2
9FF2
9FF2
8002
C006
4004
600C
3838
0FE0
ENDCHAR
STARTCHAR 2297
ENCODING 8855
SWIDTH 600 0
DWIDTH 15 0
BBX 15 16 0 1
BITMAP
0780
1FF0
3838
783C
7C7C
DEF6
8FE2
87C2
87C2
8FE2
9EF2
FC7E
783C
3018
1FF0
07C0
ENDCHAR
STARTCHAR 2298
ENCODING 8856
SWIDTH 600 0
DWIDTH 15 0
BBX 15 16 0 1
BITMAP
0780
1FF0
3838
603C
4064
C0C6
81C2
8182
8302
8702
8602
CC06
7C0C
3818
1FF0
07C0
ENDCHAR
STARTCHAR 2299
ENCODING 8857
SWIDTH 600 0
DWIDTH 15 0
BBX 15 15 0 0
BITMAP
07C0
1830
2008
4004
C006
8002
8382
8382
8102
8002
C006
4004
600C
3838
0FE0
ENDCHAR
STARTCHAR 229B
ENCODING 8859
SWIDTH 600 0
DWIDTH 15 0
BBX 15 16 0 1
BITMAP
0100
0FE0
3398
638C
4384
FBBE
FDFE
9FF2
8382
86C2
CEE6
DC76
7C7C
3838
1FF0
07C0
ENDCHAR
STARTCHAR 229C
ENCODING 8860
SWIDTH 600 0
DWIDTH 15 0
BBX 15 16 0 1
BITMAP
0780
1FF0
3838
600C
7FFC
FFFE
FFFE
8002
8002
FFFE
FFFE
FFFE
600C
3018
1FF0
07C0
ENDCHAR
STARTCHAR 229D
ENCODING 8861
SWIDTH 600 0
DWIDTH 15 0
BBX 15 16 0 1
BITMAP
0780
1FF0
3838
600C
4004
C006
8002
FFFE
FFFE
FFFE
8002
C006
600C
3018
1FF0
07C0
ENDCHAR
STARTCHAR 229E
ENCODING 8862
SWIDTH 600 0
DWIDTH 15 0
BBX 15 15 0 1
BITMAP
FFFE
F01E
F83E
BC7A
9EF2
8FE2
87C2
87C2
8FC2
8FE2
9EF2
BC7A
F83E
F01E
FFFE
ENDCHAR
STARTCHAR 229F
ENCODING 8863
SWIDTH 600 0
DWIDTH 15 0
BBX 15 15 0 1
BITMAP
FFFE
8002
8002
8002
8002
8002
9FF2
9FF2
9FF2
8002
8002
8002
8002
8002
FFFE
ENDCHAR
STARTCHAR 22A0
ENCODING 8864
SWIDTH 600 0
DWIDTH 15 0
BBX 15 15 0 1
BITMAP
FFFE
8382
8382
8382
8382
8382
FFFE
FFFE
FFFE
8382
8382
8382
8382
8382
FFFE
ENDCHAR
STARTCHAR 22A1
ENCODING 8865
SWIDTH 600 0
DWIDTH 15 0
BBX 15 15 0 1
BITMAP
FFFE
8002
8002
8002
8002
8002
8102
8382
8382
8002
8002
8002
8002
8002
FFFE
ENDCHAR
STARTCHAR 22A2
ENCODING 8866
SWIDTH 600 0
DWIDTH 15 0
BBX 15 15 0 0
BITMAP
E000
E000
E000
E000
E000
E000
FFFE
FFFE
FFFE
E000
E000
E000
E000
E000
E000
ENDCHAR
STARTCHAR 22A3
ENCODING 8867
SWIDTH 600 0
DWIDTH 15 0
BBX 15 15 0 0
BITMAP
000E
000E
000E
000E
000E
000E
FFFE
FFFE
FFFE
000E
000E
000E
000E
000E
000E
ENDCHAR
STARTCHAR 22A4
ENCODING 8868
SWIDTH 600 0
DWIDTH 15 0
BBX 15 15 0 0
BITMAP
FFFE
FFFE
FFFE
0380
0380
0380
0380
0380
0380
0380
0380
0380
0380
0380
0380
ENDCHAR
STARTCHAR 22A5
ENCODING 8869
SWIDTH 600 0
DWIDTH 15 0
BBX 15 15 0 0
BITMAP
0380
0380
0380
0380
0380
0380
0380
0380
0380
0380
0380
0380
FFFE
FFFE
FFFE
ENDCHAR
STARTCHAR 22B4
ENCODING 8884
SWIDTH 600 0
DWIDTH 15 0
BBX 11 18 2 0
BITMAP
0020
01E0
07E0
1FE0
7E60
F860
E060
F060
7E60
1FE0
07E0
01E0
0060
0000
0000
FFE0
FFE0
FFE0
ENDCHAR
STARTCHAR 22B8
ENCODING 8888
SWIDTH 600 0
DWIDTH 15 0
BBX 15 5 0 6
BITMAP
001C
0026
FFE2
0026
001C
ENDCHAR
STARTCHAR 22BB
ENCODING 8891
SWIDTH 600 0
DWIDTH 15 0
BBX 13 17 1 0
BITMAP
E038
7070
7070
7070
38E0
38E0
3DE0
1DC0
1DC0
1DC0
0F80
0F80
0F80
0000
7FF0
7FF0
7FF0
ENDCHAR
STARTCHAR 22BC
ENCODING 8892
SWIDTH 600 0
DWIDTH 15 0
BBX 13 17 1 3
BITMAP
FFF8
FFF8
FFF8
0000
0000
0F80
0F80
0F80
1DC0
1DC0
3DC0
38E0
38E0
78F0
7070
7070
F078
ENDCHAR
STARTCHAR 22BD
ENCODING 8893
SWIDTH 600 0
DWIDTH 15 0
BBX 13 17 1 3
BITMAP
FFF8
FFF8
FFF8
0000
0000
E038
7070
7070
7070
38E0
38E0
3DE0
1DC0
1DC0
1DC0
0F80
0F80
ENDCHAR
STARTCHAR 22C2
ENCODING 8898
SWIDTH 600 0
DWIDTH 15 0
BBX 15 18 0 1
BITMAP
07C0
3FF8
7FFC
783C
701C
F01E
F01E
F01E
F01E
F01E
F01E
F01E
F01E
F01E
F01E
F01E
F01E
F01E
ENDCHAR
STARTCHAR 22C3
ENCODING 8899
SWIDTH 600 0
DWIDTH 15 0
BBX 15 19 0 0
BITMAP
F01E
F01E
F01E
F01E
F01E
F01E
F01E
F01E
F01E
F01E
F01E
F01E
F01E
F01E
701C
701C
7FFC
3FF8
0FE0
ENDCHAR
STARTCHAR 22C4
ENCODING 8900
SWIDTH 600 0
DWIDTH 15 0
BBX 7 7 4 5
BITMAP
10
38
6C
C6
44
28
10
ENDCHAR
STARTCHAR 22C6
ENCODING 8902
SWIDTH 600 0
DWIDTH 15 0
BBX 5 5 5 6
BITMAP
20
20
F8
70
50
ENDCHAR
STARTCHAR 22C8
ENCODING 8904
SWIDTH 600 0
DWIDTH 15 0
BBX 15 14 0 2
BITMAP
8002
C006
A01A
9832
8C62
86C2
8382
8382
86C2
8C62
9832
B01A
C006
8002
ENDCHAR
STARTCHAR 22C9
ENCODING 8905
SWIDTH 600 0
DWIDTH 15 0
BBX 15 14 0 2
BITMAP
8002
C004
A008
9830
8C60
86C0
8380
8380
86C0
8C60
9830
B018
C004
8002
ENDCHAR
STARTCHAR 22CA
ENCODING 8906
SWIDTH 600 0
DWIDTH 15 0
BBX 15 14 0 2
BITMAP
8002
4006
301A
1832
0C62
06C2
0382
0382
06C2
0C62
1832
301A
4006
8002
ENDCHAR
STARTCHAR 22CE
ENCODING 8910
SWIDTH 600 0
DWIDTH 15 0
BBX 13 14 1 0
BITMAP
8008
E038
F078
78F0
39C0
1DC0
0D80
0D80
0F00
0700
0700
0700
0700
0700
ENDCHAR
STARTCHAR 22D0
ENCODING 8912
SWIDTH 600 0
DWIDTH 15 0
BBX 13 15 1 2
BITMAP
1FF8
3FF8
7000
E000
C7F8
CFF8
CC00
CC00
CC00
CFF8
C7F8
E000
7000
3FF8
1FF8
ENDCHAR
STARTCHAR 22E2
ENCODING 8930
SWIDTH 600 0
DWIDTH 15 0
BBX 13 23 1 -2
BITMAP
0030
0070
0060
0060
FFF8
FFF8
FFF8
E180
E180
E180
E300
E300
E700
FFF8
FFF8
FFF8
0C00
0C00
FFF8
FFF8
FFF8
3000
3000
ENDCHAR
STARTCHAR 22EE
ENCODING 8942
SWIDTH 600 0
DWIDTH 15 0
BBX 3 15 6 1
BITMAP
E0
E0
E0
E0
00
E0
E0
E0
E0
00
00
E0
E0
E0
E0
ENDCHAR
STARTCHAR 22EF
ENCODING 8943
SWIDTH 600 0
DWIDTH 15 0
BBX 15 4 0 6
BITMAP
E38E
F39E
F39E
E38E
ENDCHAR
STARTCHAR 22F0
ENCODING 8944
SWIDTH 600 0
DWIDTH 15 0
BBX 15 15 0 1
BITMAP
000E
001E
001E
000E
0000
0380
0380
0380
0380
0000
0000
E000
F000
F000
E000
ENDCHAR
STARTCHAR 22F1
ENCODING 8945
SWIDTH 600 0
DWIDTH 15 0
BBX 15 15 0 1
BITMAP
E000
F000
F000
E000
0000
0380
0380
0380
0380
0000
0000
000E
001E
001E
000E
ENDCHAR
STARTCHAR 2302
ENCODING 8962
SWIDTH 600 0
DWIDTH 15 0
BBX 11 14 2 0
BITMAP
0400
0E00
1B00
3180
60C0
C060
8020
8020
8020
8020
8020
8020
8020
FFE0
ENDCHAR
STARTCHAR 2303
ENCODING 8963
SWIDTH 600 0
DWIDTH 15 0
BBX 13 7 1 11
BITMAP
0200
0700
0F80
1DC0
38E0
78F0
F078
ENDCHAR
STARTCHAR 2304
ENCODING 8964
SWIDTH 600 0
DWIDTH 15 0
BBX 15 8 0 0
BITMAP
8002
E00E
701C
3838
1C70
0EE0
07C0
0100
ENDCHAR
STARTCHAR 2305
ENCODING 8965
SWIDTH 600 0
DWIDTH 15 0
BBX 13 11 1 7
BITMAP
FFF8
FFF8
FFF8
0000
0200
0700
0F80
1DC0
3CE0
78F0
F078
ENDCHAR
STARTCHAR 2308
ENCODING 8968
SWIDTH 600 0
DWIDTH 15 0
BBX 7 23 5 -2
BITMAP
FE
FE
FE
E0
E0
E0
E0
E0
E0
E0
E0
E0
E0
E0
E0
E0
E0
E0
E0
E0
E0
E0
E0
ENDCHAR
STARTCHAR 2309
ENCODING 8969
SWIDTH 600 0
DWIDTH 15 0
BBX 7 23 3 -2
BITMAP
FE
FE
FE
0E
0E
0E
0E
0E
0E
0E
0E
0E
0E
0E
0E
0E
0E
0E
0E
0E
0E
0E
0E
ENDCHAR
STARTCHAR 230A
ENCODING 8970
SWIDTH 600 0
DWIDTH 15 0
BBX 7 24 5 -3
BITMAP
E0
E0
E0
E0
E0
E0
E0
E0
E0
E0
E0
E0
E0
E0
E0
E0
E0
E0
E0
E0
E0
FE
FE
FE
ENDCHAR
STARTCHAR 230B
ENCODING 8971
SWIDTH 600 0
DWIDTH 15 0
BBX 7 24 3 -3
BITMAP
0E
0E
0E
0E
0E
0E
0E
0E
0E
0E
0E
0E
0E
0E
0E
0E
0E
0E
0E
0E
0E
FE
FE
FE
ENDCHAR
STARTCHAR 2318
ENCODING 8984
SWIDTH 600 0
DWIDTH 15 0
BBX 15 15 0 2
BITMAP
783C
FC7E
CC66
CC66
FFFE
7FFC
0C60
0C60
0C60
7FFC
FFFE
CC66
CC66
FC7E
783C
ENDCHAR
STARTCHAR 231C
ENCODING 8988
SWIDTH 600 0
DWIDTH 15 0
BBX 7 7 5 14
BITMAP
FE
FE
FE
E0
E0
E0
E0
ENDCHAR
STARTCHAR 231D
ENCODING 8989
SWIDTH 600 0
DWIDTH 15 0
BBX 7 7 3 14
BITMAP
FE
FE
FE
0E
0E
0E
0E
ENDCHAR
STARTCHAR 231E
ENCODING 8990
SWIDTH 600 0
DWIDTH 15 0
BBX 7 8 5 -3
BITMAP
E0
E0
E0
E0
E0
FE
FE
FE
ENDCHAR
STARTCHAR 231F
ENCODING 8991
SWIDTH 600 0
DWIDTH 15 0
BBX 7 8 3 -3
BITMAP
0E
0E
0E
0E
0E
FE
FE
FE
ENDCHAR
STARTCHAR 2324
ENCODING 8996
SWIDTH 600 0
DWIDTH 15 0
BBX 15 7 0 11
BITMAP
F11E
F39E
F39E
07C0
0EE0
1C70
3C38
ENDCHAR
STARTCHAR 2325
ENCODING 8997
SWIDTH 600 0
DWIDTH 15 0
BBX 15 18 0 0
BITMAP
FE3E
FE3E
FE3E
0E00
0700
0700
0700
0380
0380
0380
03C0
01C0
01C0
01C0
00E0
00FE
00FE
00FE
ENDCHAR
STARTCHAR 2326
ENCODING 8998
SWIDTH 600 0
DWIDTH 15 0
BBX 20 16 -1 2
BITMAP
3FF000
FFF800
FFFC00
CFCE00
C78700
E30F80
F01FC0
F83FE0
F87FF0
F03FE0
E11FC0
C38F80
C7CF00
EFFE00
FFFC00
7FF800
ENDCHAR
STARTCHAR 2328
ENCODING 9000
SWIDTH 600 0
DWIDTH 15 0
BBX 19 15 -2 2
BITMAP
7FFFC0
FFFFE0
C88860
C88860
FFFE60
FFFE60
E22260
E22260
E22260
FFFFE0
FFFFE0
C003E0
C003E0
FFFFE0
7FFFC0
ENDCHAR
STARTCHAR 232B
ENCODING 9003
SWIDTH 600 0
DWIDTH 15 0
BBX 20 16 -4 2
BITMAP
00FFC0
01FFF0
03FFF0
073F30
0E1E30
1F0C70
3F80F0
7FC1F0
FFE1F0
7FC0F0
3F8870
1F1C30
0F3E30
07FF70
03FFF0
01FFE0
ENDCHAR
STARTCHAR 2336
ENCODING 9014
SWIDTH 600 0
DWIDTH 15 0
BBX 15 18 0 0
BITMAP
FFFE
0100
0100
0100
0100
0100
0100
0100
0100
0100
0100
0100
0100
0100
0100
0100
0100
FFFE
ENDCHAR
STARTCHAR 2337
ENCODING 9015
SWIDTH 600 0
DWIDTH 15 0
BBX 7 23 4 -3
BITMAP
FE
C6
C6
C6
C6
C6
C6
C6
C6
C6
C6
C6
C6
C6
C6
C6
C6
C6
C6
C6
C6
C6
FE
ENDCHAR
STARTCHAR 2338
ENCODING 9016
SWIDTH 600 0
DWIDTH 15 0
BBX 15 23 0 -3
BITMAP
FFFE
8002
8002
8002
8002
8002
8002
FFFE
FFFE
8002
8002
8002
8002
FFFE
FFFE
8002
8002
8002
8002
8002
8002
8002
FFFE
ENDCHAR
STARTCHAR 2339
ENCODING 9017
SWIDTH 600 0
DWIDTH 15 0
BBX 15 23 0 -3
BITMAP
FFFE
8002
8002
8002
8382
87C2
87C2
8382
8002
8002
FFFE
FFFE
8002
8002
8002
8382
87C2
87C2
8382
8002
8002
8002
FFFE
ENDCHAR
STARTCHAR 233A
ENCODING 9018
SWIDTH 600 0
DWIDTH 15 0
BBX 15 23 0 -3
BITMAP
FFFE
8002
8002
8002
8102
8382
86C2
8C62
9832
B01A
E00E
C006
E00E
B01A
9832
8C62
86C2
8382
8102
8002
8002
8002
FFFE
ENDCHAR
STARTCHAR 233B
ENCODING 9019
SWIDTH 600 0
DWIDTH 15 0
BBX 15 23 0 -3
BITMAP
FFFE
8002
8002
8002
8002
8002
8002
8002
8382
8442
8442
8442
8442
8382
8002
8002
8002
8002
8002
8002
8002
8002
FFFE
ENDCHAR
STARTCHAR 233C
ENCODING 9020
SWIDTH 600 0
DWIDTH 15 0
BBX 15 23 0 -3
BITMAP
FFFE
8002
8002
8002
87C2
9C72
B01A
E00E
C006
C006
8002
8002
8002
8006
C006
C006
A00A
9832
8FE2
8002
8002
8002
FFFE
ENDCHAR
STARTCHAR 233D
ENCODING 9021
SWIDTH 600 0
DWIDTH 15 0
BBX 15 24 0 -3
BITMAP
0100
0100
0100
0100
0100
0FE0
3118
610C
4104
C106
8102
8102
8102
8102
8102
C106
410C
3118
1D70
07C0
0100
0100
0100
0100
ENDCHAR
STARTCHAR 233E
ENCODING 9022
SWIDTH 600 0
DWIDTH 15 0
BBX 15 15 0 1
BITMAP
07C0
1830
2008
4004
C386
8442
8C62
8822
8C62
8442
C386
4004
600C
3838
0FE0
ENDCHAR
STARTCHAR 233F
ENCODING 9023
SWIDTH 600 0
DWIDTH 15 0
BBX 13 23 1 -2
BITMAP
0070
0070
00F0
00E0
00E0
01C0
01C0
03C0
0380
0380
0780
FFF8
FFF8
FFF8
0E00
1E00
1C00
1C00
3C00
3800
3800
7800
7000
ENDCHAR
STARTCHAR 2340
ENCODING 9024
SWIDTH 600 0
DWIDTH 15 0
BBX 13 23 1 -2
BITMAP
7000
7000
7800
3800
3800
1C00
1C00
1E00
0E00
0E00
0F00
FFF8
FFF8
FFF8
0380
0380
01C0
01C0
01E0
00E0
00E0
00F0
0070
ENDCHAR
STARTCHAR 2341
ENCODING 9025
SWIDTH 600 0
DWIDTH 15 0
BBX 15 23 0 -3
BITMAP
FFFE
8006
800E
800A
8012
8032
8022
8062
8042
8082
8182
8102
8302
8202
8402
8402
8802
9802
9002
A002
A002
C002
FFFE
ENDCHAR
STARTCHAR 2342
ENCODING 9026
SWIDTH 600 0
DWIDTH 15 0
BBX 15 23 0 -3
BITMAP
FFFE
C002
E002
A002
9002
9802
8802
8C02
8402
8202
8302
8102
8182
8082
8042
8062
8022
8032
8012
800A
800A
8006
FFFE
ENDCHAR
STARTCHAR 2343
ENCODING 9027
SWIDTH 600 0
DWIDTH 15 0
BBX 15 23 0 -3
BITMAP
FFFE
8002
8002
8002
8006
801E
807A
81E2
8782
9E02
F802
E002
F802
9E02
8782
81E2
807A
801E
8006
8002
8002
8002
FFFE
ENDCHAR
STARTCHAR 2344
ENCODING 9028
SWIDTH 600 0
DWIDTH 15 0
BBX 15 23 0 -3
BITMAP
FFFE
8002
8002
8002
C002
F002
BC02
8F02
83C2
80F2
803E
800E
803E
80F2
83C2
8F02
BC02
F002
C002
8002
8002
8002
FFFE
ENDCHAR
STARTCHAR 2345
ENCODING 9029
SWIDTH 600 0
DWIDTH 15 0
BBX 15 18 0 0
BITMAP
0380
0380
0380
0380
0380
2380
6380
6380
FFFE
FFFE
6380
6380
2380
0380
0380
0380
0380
0380
ENDCHAR
STARTCHAR 2346
ENCODING 9030
SWIDTH 600 0
DWIDTH 15 0
BBX 15 18 0 0
BITMAP
0380
0380
0380
0380
0380
0388
038C
038C
FFFE
FFFE
038C
038C
0388
0380
0380
0380
0380
0380
ENDCHAR
STARTCHAR 2347
ENCODING 9031
SWIDTH 600 0
DWIDTH 15 0
BBX 15 23 0 -3
BITMAP
FFFE
8002
8002
8002
8002
8002
8382
8302
8602
8C02
9FFE
9FFE
8C02
8602
8702
8382
8002
8002
8002
8002
8002
8002
FFFE
ENDCHAR
STARTCHAR 2348
ENCODING 9032
SWIDTH 600 0
DWIDTH 15 0
BBX 15 23 0 -3
BITMAP
FFFE
8002
8002
8002
8002
8002
8382
8182
80C2
8062
FFF2
FFF2
8062
80C2
81C2
8382
8002
8002
8002
8002
8002
8002
FFFE
ENDCHAR
STARTCHAR 2349
ENCODING 9033
SWIDTH 600 0
DWIDTH 15 0
BBX 15 24 0 -3
BITMAP
7800
3800
3800
1C00
1C00
1FC0
1E30
2E08
4F04
C706
8702
8382
8382
83C2
81C2
C1C6
41E4
60EC
38F8
0FF0
0070
0078
0038
0038
ENDCHAR
STARTCHAR 234A
ENCODING 9034
SWIDTH 600 0
DWIDTH 15 0
BBX 15 20 0 -5
BITMAP
0380
0380
0380
0380
0380
0380
0380
0380
0380
0380
0380
0380
FFFE
FFFE
FFFE
0000
0000
FFFE
FFFE
FFFE
ENDCHAR
STARTCHAR 234B
ENCODING 9035
SWIDTH 600 0
DWIDTH 15 0
BBX 13 23 1 -2
BITMAP
0200
0200
0380
0F80
0F80
0F80
1FC0
1FC0
1FC0
1FC0
3AE0
3AE0
3AE0
3AE0
7AF0
7270
7270
7270
FFF8
FFF8
FFF8
0200
0200
ENDCHAR
STARTCHAR 234C
ENCODING 9036
SWIDTH 600 0
DWIDTH 15 0
BBX 15 23 0 -3
BITMAP
FFFE
8002
8002
C006
C006
C006
E00E
A00A
A00A
9012
9012
9832
8822
8822
8C62
8442
8442
8282
8282
8282
8102
8002
FFFE
ENDCHAR
STARTCHAR 234D
ENCODING 9037
SWIDTH 600 0
DWIDTH 15 0
BBX 15 23 0 -3
BITMAP
FFFE
8002
8382
8382
86C2
86C2
86C2
86C2
8C62
8C62
8C62
9C72
9832
9832
9832
B83A
B01A
B01A
FFFE
FFFE
8002
8002
FFFE
ENDCHAR
STARTCHAR 234E
ENCODING 9038
SWIDTH 600 0
DWIDTH 15 0
BBX 15 15 0 0
BITMAP
0380
0380
0380
0FE0
1BB0
1390
1390
1BB0
0FE0
0380
0380
0380
FFFE
FFFE
FFFE
ENDCHAR
STARTCHAR 234F
ENCODING 9039
SWIDTH 600 0
DWIDTH 15 0
BBX 15 18 0 0
BITMAP
0100
07C0
0FE0
1FF0
0380
0380
0380
0380
FFFE
FFFE
0380
0380
0380
0380
0380
0380
0380
0380
ENDCHAR
STARTCHAR 2350
ENCODING 9040
SWIDTH 600 0
DWIDTH 15 0
BBX 15 23 0 -3
BITMAP
FFFE
8002
8102
8382
87C2
8FE2
9FF2
BBBA
A38A
8382
8382
8382
8382
8382
8382
8382
8382
8382
8382
8382
8382
8382
FFFE
ENDCHAR
STARTCHAR 2351
ENCODING 9041
SWIDTH 600 0
DWIDTH 15 0
BBX 15 20 0 0
BITMAP
FFFE
FFFE
FFFE
0000
0000
FFFE
FFFE
FFFE
0380
0380
0380
0380
0380
0380
0380
0380
0380
0380
0380
0380
ENDCHAR
STARTCHAR 2352
ENCODING 9042
SWIDTH 600 0
DWIDTH 15 0
BBX 13 23 1 -2
BITMAP
0200
0200
FFF8
FFF8
FFF8
7270
7270
7270
7A70
3AE0
3AE0
3AE0
3AE0
1FC0
1FC0
1FC0
1FC0
0F80
0F80
0F80
0F80
0200
0200
ENDCHAR
STARTCHAR 2353
ENCODING 9043
SWIDTH 600 0
DWIDTH 15 0
BBX 15 23 0 -3
BITMAP
FFFE
8002
8102
8282
8282
8282
8442
8442
8C62
8822
8822
9832
9012
9012
A00A
A00A
A00A
C006
C006
C006
8002
8002
FFFE
ENDCHAR
STARTCHAR 2354
ENCODING 9044
SWIDTH 600 0
DWIDTH 15 0
BBX 15 23 0 -3
BITMAP
FFFE
8002
FFFE
FFFE
B01A
B01A
B81A
983A
9832
9832
9C72
8C62
8C62
8C62
8EE2
86C2
86C2
86C2
87C2
8382
8002
8002
FFFE
ENDCHAR
STARTCHAR 2355
ENCODING 9045
SWIDTH 600 0
DWIDTH 15 0
BBX 15 15 0 0
BITMAP
FFFE
FFFE
FFFE
0380
0380
0380
0FE0
1BB0
1390
1390
1BB0
0FE0
0380
0380
0380
ENDCHAR
STARTCHAR 2356
ENCODING 9046
SWIDTH 600 0
DWIDTH 15 0
BBX 15 18 0 0
BITMAP
0380
0380
0380
0380
0380
0380
0380
0380
FFFE
FFFE
0380
0380
0380
0380
1FF0
0FE0
03C0
0100
ENDCHAR
STARTCHAR 2357
ENCODING 9047
SWIDTH 600 0
DWIDTH 15 0
BBX 15 23 0 -3
BITMAP
FFFE
8382
8382
8382
8382
8382
8382
8382
8382
8382
8382
8382
8382
8382
A38A
B39A
BFFA
8FE2
87C2
8382
8102
8002
FFFE
ENDCHAR
STARTCHAR 2358
ENCODING 9048
SWIDTH 600 0
DWIDTH 15 0
BBX 9 24 3 -5
BITMAP
1C00
1C00
1C00
1C00
1C00
1C00
1C00
1C00
0000
0000
0000
0000
0000
0000
0000
0000
0000
0000
0000
0000
0000
FF80
FF80
FF80
ENDCHAR
STARTCHAR 2359
ENCODING 9049
SWIDTH 600 0
DWIDTH 15 0
BBX 13 24 1 -5
BITMAP
0F80
0F80
0F80
0F80
1DC0
1DC0
1DC0
1DC0
38E0
38E0
38E0
38E0
78F0
7070
7070
7070
FFF8
FFF8
FFF8
0000
0000
FFF8
FFF8
FFF8
ENDCHAR
STARTCHAR 235A
ENCODING 9050
SWIDTH 600 0
DWIDTH 15 0
BBX 15 22 0 -5
BITMAP
0100
0380
06C0
0C60
1830
3018
600C
C006
C006
600C
3018
1830
0C60
06C0
0380
0100
0000
0000
0000
FFFE
FFFE
FFFE
ENDCHAR
STARTCHAR 235B
ENCODING 9051
SWIDTH 600 0
DWIDTH 15 0
BBX 9 16 3 -5
BITMAP
1C00
2200
2200
2200
2200
1C00
0000
0000
0000
0000
0000
0000
0000
FF80
FF80
FF80
ENDCHAR
STARTCHAR 235C
ENCODING 9052
SWIDTH 600 0
DWIDTH 15 0
BBX 15 22 0 -5
BITMAP
07C0
1C70
3018
4004
C006
8002
8002
8002
8002
8002
C006
4004
600C
3838
0FE0
0000
0000
0000
0000
FFFE
FFFE
FFFE
ENDCHAR
STARTCHAR 235D
ENCODING 9053
SWIDTH 600 0
DWIDTH 15 0
BBX 11 13 2 1
BITMAP
1F00
60C0
4E40
D160
9120
9120
9120
8E20
8020
8020
8020
8020
8020
ENDCHAR
STARTCHAR 235E
ENCODING 9054
SWIDTH 600 0
DWIDTH 15 0
BBX 15 23 0 -3
BITMAP
FFFE
8002
8382
8382
8382
8382
8382
8382
8382
8102
8002
8002
8002
8002
8002
8002
8002
8002
8002
8002
8002
8002
FFFE
ENDCHAR
STARTCHAR 235F
ENCODING 9055
SWIDTH 600 0
DWIDTH 15 0
BBX 15 15 0 1
BITMAP
07C0
1830
2008
4004
C106
8102
8102
87C2
8382
8282
C006
4004
600C
3838
0FE0
ENDCHAR
STARTCHAR 2360
ENCODING 9056
SWIDTH 600 0
DWIDTH 15 0
BBX 15 23 0 -3
BITMAP
FFFE
8002
8002
8002
8382
87C2
87C2
8382
8002
8002
8002
8002
8002
8002
8002
8382
87C2
87C2
8382
8002
8002
8002
FFFE
ENDCHAR
STARTCHAR 2361
ENCODING 9057
SWIDTH 600 0
DWIDTH 15 0
BBX 15 20 0 0
BITMAP
0820
1C70
1C70
1C70
0000
FFFE
FFFE
FFFE
0380
0380
0380
0380
0380
0380
0380
0380
0380
0380
0380
0380
ENDCHAR
STARTCHAR 2362
ENCODING 9058
SWIDTH 600 0
DWIDTH 15 0
BBX 13 23 1 1
BITMAP
38E0
38E0
38E0
1040
0000
FFF8
FFF8
FFF8
7070
7070
7070
7870
38E0
38E0
38E0
38E0
1DC0
1DC0
1DC0
1DC0
0F80
0F80
0F80
ENDCHAR
STARTCHAR 2363
ENCODING 9059
SWIDTH 600 0
DWIDTH 15 0
BBX 9 12 3 6
BITMAP
E380
E380
E380
E380
0000
0000
0800
0800
7E00
1C00
1C00
1400
ENDCHAR
STARTCHAR 2364
ENCODING 9060
SWIDTH 600 0
DWIDTH 15 0
BBX 9 12 3 5
BITMAP
E380
E380
E380
E380
0000
0000
1C00
2200
2200
2200
2200
1C00
ENDCHAR
STARTCHAR 2365
ENCODING 9061
SWIDTH 600 0
DWIDTH 15 0
BBX 15 23 0 1
BITMAP
1C70
1C70
1C70
1C70
0000
0000
0000
0000
07C0
1830
2008
4004
C006
8002
8002
8002
8002
8002
C006
4004
600C
3838
0FE0
ENDCHAR
STARTCHAR 2366
ENCODING 9062
SWIDTH 600 0
DWIDTH 15 0
BBX 11 24 2 -3
BITMAP
0400
0400
0400
0400
0400
8420
8420
8420
8420
8420
8420
8420
8420
8420
8420
C460
4440
75C0
1F00
0400
0400
0400
0400
0400
ENDCHAR
STARTCHAR 2367
ENCODING 9063
SWIDTH 600 0
DWIDTH 15 0
BBX 13 23 1 -2
BITMAP
0300
0300
0300
0300
0300
0300
1FF8
6300
C300
8300
8300
8300
8300
8300
C300
6300
1FF8
0300
0300
0300
0300
0300
0300
ENDCHAR
STARTCHAR 2368
ENCODING 9064
SWIDTH 600 0
DWIDTH 15 0
BBX 13 12 1 6
BITMAP
38E0
38E0
38E0
38E0
0000
0000
3C38
7E38
FF38
E7F8
E3F0
E1E0
ENDCHAR
STARTCHAR 2369
ENCODING 9065
SWIDTH 600 0
DWIDTH 15 0
BBX 11 18 2 2
BITMAP
71C0
71C0
71C0
71C0
0000
8000
E000
F800
7E00
1FC0
03E0
00E0
01E0
07E0
1F80
FE00
F000
C000
ENDCHAR
STARTCHAR 236A
ENCODING 9066
SWIDTH 600 0
DWIDTH 15 0
BBX 9 12 3 2
BITMAP
FF80
FF80
FF80
0000
0000
3C00
3C00
3C00
3800
7800
7000
7000
ENDCHAR
STARTCHAR 236B
ENCODING 9067
SWIDTH 600 0
DWIDTH 15 0
BBX 13 23 1 1
BITMAP
1E60
3FE0
33C0
0000
0000
FFF8
FFF8
FFF8
7070
7070
7070
7870
38E0
38E0
38E0
38E0
1DC0
1DC0
1DC0
1DC0
0F80
0F80
0F80
ENDCHAR
STARTCHAR 236C
ENCODING 9068
SWIDTH 600 0
DWIDTH 15 0
BBX 11 19 2 0
BITMAP
0400
3F80
7FC0
F1E0
E0E0
E0E0
E0E0
E0E0
FCE0
FFE0
E7E0
E0E0
E0E0
E0E0
E0E0
E0E0
7FC0
7FC0
1F00
ENDCHAR
STARTCHAR 236D
ENCODING 9069
SWIDTH 600 0
DWIDTH 15 0
BBX 13 23 1 -2
BITMAP
0200
0200
0200
0200
0200
0200
0200
0200
0200
0200
0200
7E38
7FF8
E7F0
E3E0
0200
0200
0200
0200
0200
0200
0200
0200
ENDCHAR
STARTCHAR 236E
ENCODING 9070
SWIDTH 600 0
DWIDTH 15 0
BBX 9 23 3 -5
BITMAP
1C00
3E00
3E00
1C00
0000
0000
0000
0000
0000
0000
1E00
3C00
3C00
3800
3800
7000
7000
0000
0000
0000
FF80
FF80
FF80
ENDCHAR
STARTCHAR 236F
ENCODING 9071
SWIDTH 600 0
DWIDTH 15 0
BBX 15 23 0 -3
BITMAP
FFFE
8002
8002
8022
8062
8042
80C2
FFFE
FFFE
8182
8182
8302
8302
FFFE
FFFE
8602
8402
8C02
8C02
8802
8002
8002
FFFE
ENDCHAR
STARTCHAR 2370
ENCODING 9072
SWIDTH 600 0
DWIDTH 15 0
BBX 15 23 0 -3
BITMAP
FFFE
8002
9F82
9FC2
80E2
8072
8032
8032
8032
8072
80E2
87C2
8782
8602
8602
8602
8002
8002
8702
8F02
8702
8002
FFFE
ENDCHAR
STARTCHAR 2371
ENCODING 9073
SWIDTH 600 0
DWIDTH 15 0
BBX 13 19 1 1
BITMAP
1C60
3E60
33C0
31C0
0000
0000
E038
F078
7070
7070
78F0
38E0
38E0
1DC0
1DC0
1DC0
0F80
0F80
0F80
ENDCHAR
STARTCHAR 2372
ENCODING 9074
SWIDTH 600 0
DWIDTH 15 0
BBX 13 19 1 1
BITMAP
1C60
3E60
33C0
31C0
0000
0000
0F80
0F80
0F80
1DC0
1DC0
1DC0
3DE0
38E0
38E0
7070
7070
7070
E038
ENDCHAR
STARTCHAR 2373
ENCODING 9075
SWIDTH 600 0
DWIDTH 15 0
BBX 13 14 1 0
BITMAP
FF00
FF00
FF00
0700
0700
0700
0700
0700
0700
0700
0700
07F8
03F8
01F8
ENDCHAR
STARTCHAR 2374
ENCODING 9076
SWIDTH 600 0
DWIDTH 15 0
BBX 11 18 2 -4
BITMAP
1F00
7FC0
7BE0
E0E0
E0E0
E0E0
E0E0
E0E0
E0E0
E0E0
E0E0
FBE0
FFC0
E780
E000
E000
E000
E000
ENDCHAR
STARTCHAR 2375
ENCODING 9077
SWIDTH 600 0
DWIDTH 15 0
BBX 13 14 1 0
BITMAP
1040
7070
7070
E038
E038
E738
E738
E738
E738
E738
E738
FDF8
7DF0
38E0
ENDCHAR
STARTCHAR 2376
ENCODING 9078
SWIDTH 600 0
DWIDTH 15 0
BBX 13 19 1 -5
BITMAP
1E38
3F38
7FB0
F1F0
E0F0
E0E0
E0E0
E0E0
E0E0
E0F0
F1F0
7FB8
7F38
1E38
0000
0000
FFF8
FFF8
FFF8
ENDCHAR
STARTCHAR 2377
ENCODING 9079
SWIDTH 600 0
DWIDTH 15 0
BBX 12 19 2 -5
BITMAP
3F80
7FC0
FFE0
E0E0
E000
7800
1F00
7F00
E000
E000
E0F0
FFE0
7FC0
3F80
0000
0000
FFE0
FFE0
FFE0
ENDCHAR
STARTCHAR 2378
ENCODING 9080
SWIDTH 600 0
DWIDTH 15 0
BBX 13 19 1 -5
BITMAP
FF00
FF00
FF00
0700
0700
0700
0700
0700
0700
0700
0700
07F8
03F8
01F8
0000
0000
FFF8
FFF8
FFF8
ENDCHAR
STARTCHAR 2379
ENCODING 9081
SWIDTH 600 0
DWIDTH 15 0
BBX 13 19 1 -5
BITMAP
1040
7070
7070
E038
E038
E738
E738
E738
E738
E738
E738
FDF8
7DF0
38E0
0000
0000
FFF8
FFF8
FFF8
ENDCHAR
STARTCHAR 237A
ENCODING 9082
SWIDTH 600 0
DWIDTH 15 0
BBX 13 14 1 0
BITMAP
1E38
3F38
7BF0
F1F0
E0F0
E0E0
E0E0
E0E0
E0E0
E0F0
F1F0
7BB8
7F38
1E38
ENDCHAR
STARTCHAR 2389
ENCODING 9097
SWIDTH 600 0
DWIDTH 15 0
BBX 15 15 0 2
BITMAP
07C0
1830
3018
4004
C006
8002
8002
F01E
9822
8822
C446
46C4
628C
1930
0FE0
ENDCHAR
STARTCHAR 238A
ENCODING 9098
SWIDTH 600 0
DWIDTH 15 0
BBX 15 16 0 1
BITMAP
07C0
1830
3018
600C
FFFE
A00A
B01A
9012
9832
8822
C446
46C4
628C
3398
1FF0
0380
ENDCHAR
STARTCHAR 238B
ENCODING 9099
SWIDTH 600 0
DWIDTH 15 0
BBX 15 15 0 2
BITMAP
FE00
FCE0
F8F0
F838
FC1C
CE0C
870E
038E
61CE
608E
700C
301C
3C38
1FF0
07E0
ENDCHAR
STARTCHAR 2395
ENCODING 9109
SWIDTH 600 0
DWIDTH 15 0
BBX 15 23 0 -3
BITMAP
FFFE
8002
8002
8002
8002
8002
8002
8002
8002
8002
8002
8002
8002
8002
8002
8002
8002
8002
8002
8002
8002
8002
FFFE
ENDCHAR
STARTCHAR 239B
ENCODING 9115
SWIDTH 600 0
DWIDTH 15 0
BBX 8 28 6 -7
BITMAP
07
0F
1F
3C
78
70
F0
E0
E0
E0
E0
E0
E0
E0
E0
E0
E0
E0
E0
E0
E0
E0
E0
E0
E0
E0
E0
E0
ENDCHAR
STARTCHAR 239C
ENCODING 9116
SWIDTH 600 0
DWIDTH 15 0
BBX 3 33 6 -7
BITMAP
E0
E0
E0
E0
E0
E0
E0
E0
E0
E0
E0
E0
E0
E0
E0
E0
E0
E0
E0
E0
E0
E0
E0
E0
E0
E0
E0
E0
E0
E0
E0
E0
E0
ENDCHAR
STARTCHAR 239D
ENCODING 9117
SWIDTH 600 0
DWIDTH 15 0
BBX 8 28 6 -2
BITMAP
E0
E0
E0
E0
E0
E0
E0
E0
E0
E0
E0
E0
E0
E0
E0
E0
E0
E0
E0
E0
E0
F0
70
78
3C
1F
0F
07
ENDCHAR
STARTCHAR 239E
ENCODING 9118
SWIDTH 600 0
DWIDTH 15 0
BBX 8 28 1 -7
BITMAP
E0
F0
F8
3C
1E
0E
0E
07
07
07
07
07
07
07
07
07
07
07
07
07
07
07
07
07
07
07
07
07
ENDCHAR
STARTCHAR 239F
ENCODING 9119
SWIDTH 600 0
DWIDTH 15 0
BBX 3 33 6 -7
BITMAP
E0
E0
E0
E0
E0
E0
E0
E0
E0
E0
E0
E0
E0
E0
E0
E0
E0
E0
E0
E0
E0
E0
E0
E0
E0
E0
E0
E0
E0
E0
E0
E0
E0
ENDCHAR
STARTCHAR 23A0
ENCODING 9120
SWIDTH 600 0
DWIDTH 15 0
BBX 8 28 1 -2
BITMAP
07
07
07
07
07
07
07
07
07
07
07
07
07
07
07
07
07
07
07
07
07
0F
0E
1E
3C
F8
F0
E0
ENDCHAR
STARTCHAR 23A1
ENCODING 9121
SWIDTH 600 0
DWIDTH 15 0
BBX 7 28 6 -7
BITMAP
FE
FE
FE
E0
E0
E0
E0
E0
E0
E0
E0
E0
E0
E0
E0
E0
E0
E0
E0
E0
E0
E0
E0
E0
E0
E0
E0
E0
ENDCHAR
STARTCHAR 23A2
ENCODING 9122
SWIDTH 600 0
DWIDTH 15 0
BBX 3 33 6 -7
BITMAP
E0
E0
E0
E0
E0
E0
E0
E0
E0
E0
E0
E0
E0
E0
E0
E0
E0
E0
E0
E0
E0
E0
E0
E0
E0
E0
E0
E0
E0
E0
E0
E0
E0
ENDCHAR
STARTCHAR 23A3
ENCODING 9123
SWIDTH 600 0
DWIDTH 15 0
BBX 7 28 6 -3
BITMAP
E0
E0
E0
E0
E0
E0
E0
E0
E0
E0
E0
E0
E0
E0
E0
E0
E0
E0
E0
E0
E0
E0
E0
E0
E0
FE
FE
FE
ENDCHAR
STARTCHAR 23A4
ENCODING 9124
SWIDTH 600 0
DWIDTH 15 0
BBX 7 28 2 -7
BITMAP
FE
FE
FE
0E
0E
0E
0E
0E
0E
0E
0E
0E
0E
0E
0E
0E
0E
0E
0E
0E
0E
0E
0E
0E
0E
0E
0E
0E
ENDCHAR
STARTCHAR 23A5
ENCODING 9125
SWIDTH 600 0
DWIDTH 15 0
BBX 3 33 6 -7
BITMAP
E0
E0
E0
E0
E0
E0
E0
E0
E0
E0
E0
E0
E0
E0
E0
E0
E0
E0
E0
E0
E0
E0
E0
E0
E0
E0
E0
E0
E0
E0
E0
E0
E0
ENDCHAR
STARTCHAR 23A6
ENCODING 9126
SWIDTH 600 0
DWIDTH 15 0
BBX 7 28 2 -3
BITMAP
0E
0E
0E
0E
0E
0E
0E
0E
0E
0E
0E
0E
0E
0E
0E
0E
0E
0E
0E
0E
0E
0E
0E
0E
0E
FE
FE
FE
ENDCHAR
STARTCHAR 23A7
ENCODING 9127
SWIDTH 600 0
DWIDTH 15 0
BBX 6 28 6 -7
BITMAP
3C
7C
FC
F0
E0
E0
E0
E0
E0
E0
E0
E0
E0
E0
E0
E0
E0
E0
E0
E0
E0
E0
E0
E0
E0
E0
E0
E0
ENDCHAR
STARTCHAR 23A8
ENCODING 9128
SWIDTH 600 0
DWIDTH 15 0
BBX 8 33 1 -7
BITMAP
07
07
07
07
07
07
07
07
07
07
07
07
07
07
07
FE
FC
FE
0F
07
07
07
07
07
07
07
07
07
07
07
07
07
07
ENDCHAR
STARTCHAR 23A9
ENCODING 9129
SWIDTH 600 0
DWIDTH 15 0
BBX 6 29 6 -3
BITMAP
E0
E0
E0
E0
E0
E0
E0
E0
E0
E0
E0
E0
E0
E0
E0
E0
E0
E0
E0
E0
E0
E0
E0
E0
E0
E0
FC
7C
3C
ENDCHAR
STARTCHAR 23AA
ENCODING 9130
SWIDTH 600 0
DWIDTH 15 0
BBX 3 33 6 -7
BITMAP
E0
E0
E0
E0
E0
E0
E0
E0
E0
E0
E0
E0
E0
E0
E0
E0
E0
E0
E0
E0
E0
E0
E0
E0
E0
E0
E0
E0
E0
E0
E0
E0
E0
ENDCHAR
STARTCHAR 23AB
ENCODING 9131
SWIDTH 600 0
DWIDTH 15 0
BBX 6 28 3 -7
BITMAP
F0
F8
FC
3C
1C
1C
1C
1C
1C
1C
1C
1C
1C
1C
1C
1C
1C
1C
1C
1C
1C
1C
1C
1C
1C
1C
1C
1C
ENDCHAR
STARTCHAR 23AC
ENCODING 9132
SWIDTH 600 0
DWIDTH 15 0
BBX 8 33 6 -7
BITMAP
E0
E0
E0
E0
E0
E0
E0
E0
E0
E0
E0
E0
E0
E0
E0
7F
3F
7F
F0
E0
E0
E0
E0
E0
E0
E0
E0
E0
E0
E0
E0
E0
E0
ENDCHAR
STARTCHAR 23AD
ENCODING 9133
SWIDTH 600 0
DWIDTH 15 0
BBX 6 29 3 -3
BITMAP
1C
1C
1C
1C
1C
1C
1C
1C
1C
1C
1C
1C
1C
1C
1C
1C
1C
1C
1C
1C
1C
1C
1C
1C
1C
1C
FC
F8
F0
ENDCHAR
STARTCHAR 23CE
ENCODING 9166
SWIDTH 600 0
DWIDTH 15 0
BBX 15 17 0 2
BITMAP
007E
0042
0042
0242
0642
0E42
1A42
33C2
6002
C002
C002
6002
33FE
1A00
0E00
0600
0200
ENDCHAR
STARTCHAR 23FB
ENCODING 9211
SWIDTH 600 0
DWIDTH 15 0
BBX 17 19 -1 0
BITMAP
008000
01C000
01C000
01C000
01C000
19CC00
39CE00
79CF00
71C700
71C700
61C300
E1C380
71C700
700700
700700
381E00
1FFC00
0FF800
03E000
ENDCHAR
STARTCHAR 23FC
ENCODING 9212
SWIDTH 600 0
DWIDTH 15 0
BBX 16 16 -1 0
BITMAP
03E0
0FF8
1E3C
380E
7087
71C7
61C3
E1C3
61C3
61C3
71C7
70C7
380E
1E3C
0FF8
03E0
ENDCHAR
STARTCHAR 23FD
ENCODING 9213
SWIDTH 600 0
DWIDTH 15 0
BBX 3 16 6 0
BITMAP
40
E0
E0
E0
E0
E0
E0
E0
E0
E0
E0
E0
E0
E0
E0
E0
ENDCHAR
STARTCHAR 23FE
ENCODING 9214
SWIDTH 600 0
DWIDTH 15 0
BBX 15 14 0 0
BITMAP
1000
3000
7000
7000
F000
F000
F800
F800
7C00
7F00
7FFE
3FFC
1FF8
07E0
ENDCHAR
STARTCHAR 2400
ENCODING 9216
SWIDTH 600 0
DWIDTH 15 0
BBX 13 19 1 0
BITMAP
C300
E300
F300
F300
DB00
DB00
CF00
C700
C700
0000
0618
0618
0618
0618
0618
0618
0618
03F0
01E0
ENDCHAR
STARTCHAR 2401
ENCODING 9217
SWIDTH 600 0
DWIDTH 15 0
BBX 13 18 1 0
BITMAP
7E00
FF00
C000
FC00
7F00
0300
C300
FF00
3C00
0000
0618
0618
0618
07F8
07F8
0618
0618
0618
ENDCHAR
STARTCHAR 2402
ENCODING 9218
SWIDTH 600 0
DWIDTH 15 0
BBX 13 19 1 0
BITMAP
3800
FE00
C300
E000
7E00
0F00
C300
FF00
7E00
0000
0618
0738
0330
01E0
00C0
01E0
03E0
0330
0618
ENDCHAR
STARTCHAR 2403
ENCODING 9219
SWIDTH 600 0
DWIDTH 15 0
BBX 13 19 1 0
BITMAP
FF00
FF00
C000
C000
FE00
C000
C000
FF00
FF00
0000
0000
0738
0330
01E0
00C0
01E0
03E0
0330
0618
ENDCHAR
STARTCHAR 2404
ENCODING 9220
SWIDTH 600 0
DWIDTH 15 0
BBX 14 18 1 1
BITMAP
FF00
FF00
C000
C000
FE00
C000
C000
FF00
FF00
0000
0FFC
0FFC
00C0
00C0
00C0
00C0
00C0
00C0
ENDCHAR
STARTCHAR 2405
ENCODING 9221
SWIDTH 600 0
DWIDTH 15 0
BBX 13 20 1 -1
BITMAP
FF00
FF00
C000
C000
FE00
C000
C000
FF00
FF00
0000
00C0
03F0
0638
0618
0C08
0618
0668
03E0
01F0
0018
ENDCHAR
STARTCHAR 2406
ENCODING 9222
SWIDTH 600 0
DWIDTH 15 0
BBX 14 18 0 0
BITMAP
0C00
1E00
1E00
3300
3300
3F00
7F80
6180
C0C0
0000
030C
0318
0330
03F0
03F0
0330
0318
031C
ENDCHAR
STARTCHAR 2407
ENCODING 9223
SWIDTH 600 0
DWIDTH 15 0
BBX 13 18 1 0
BITMAP
FE00
FF00
C300
FE00
C300
C300
FF00
FE00
0000
0000
0300
0300
0300
0300
0300
0300
03F8
03F8
ENDCHAR
STARTCHAR 2408
ENCODING 9224
SWIDTH 600 0
DWIDTH 15 0
BBX 13 19 1 0
BITMAP
FC00
FF00
C300
C300
FE00
C300
C300
FF00
FE00
0000
01C0
07F0
0618
0700
03F0
0078
0618
07F8
03F0
ENDCHAR
STARTCHAR 2409
ENCODING 9225
SWIDTH 600 0
DWIDTH 15 0
BBX 14 18 1 1
BITMAP
C300
C300
C300
FF00
FF00
C300
C300
C300
C300
0000
0FFC
0FFC
00C0
00C0
00C0
00C0
00C0
00C0
ENDCHAR
STARTCHAR 240A
ENCODING 9226
SWIDTH 600 0
DWIDTH 15 0
BBX 12 18 2 0
BITMAP
C000
C000
C000
C000
C000
C000
FE00
FE00
0000
0000
0FF0
0FF0
0C00
0FE0
0FE0
0C00
0C00
0C00
ENDCHAR
STARTCHAR 240B
ENCODING 9227
SWIDTH 600 0
DWIDTH 15 0
BBX 15 18 0 1
BITMAP
C0C0
6180
6180
3300
3300
1200
1E00
1E00
0C00
0000
07FE
07FE
0060
0060
0060
0060
0060
0060
ENDCHAR
STARTCHAR 240C
ENCODING 9228
SWIDTH 600 0
DWIDTH 15 0
BBX 13 18 1 0
BITMAP
FF00
FF00
C000
FE00
FE00
C000
C000
C000
0000
0000
07F8
07F8
0600
07F0
07F0
0600
0600
0600
ENDCHAR
STARTCHAR 240D
ENCODING 9229
SWIDTH 600 0
DWIDTH 15 0
BBX 13 19 1 0
BITMAP
1C00
7E00
E300
C000
C000
C000
C300
7F00
3C00
0000
07E0
07F8
0618
0618
07F8
07F0
0670
0630
0618
ENDCHAR
STARTCHAR 240E
ENCODING 9230
SWIDTH 600 0
DWIDTH 15 0
BBX 13 19 1 0
BITMAP
3800
FE00
C300
E000
7E00
0F00
C300
FF00
7E00
0000
00C0
03F0
0738
0618
0C18
0618
0618
03F0
01E0
ENDCHAR
STARTCHAR 240F
ENCODING 9231
SWIDTH 600 0
DWIDTH 15 0
BBX 13 19 1 0
BITMAP
3800
FE00
C300
E000
7E00
0F00
C300
FF00
7E00
0000
0000
07F8
07F8
00C0
00C0
00C0
00C0
07F8
07F8
ENDCHAR
STARTCHAR 2410
ENCODING 9232
SWIDTH 600 0
DWIDTH 15 0
BBX 13 18 1 0
BITMAP
FC00
FE00
C300
C300
C300
C300
FF00
FC00
0000
07F8
07F8
0600
0600
07F0
07F0
0600
07F8
07F8
ENDCHAR
STARTCHAR 2411
ENCODING 9233
SWIDTH 600 0
DWIDTH 15 0
BBX 13 18 1 0
BITMAP
FC00
FE00
C300
C300
C300
C300
FF00
FC00
0000
0000
01E0
0360
0260
0060
0060
0060
07F8
07F8
ENDCHAR
STARTCHAR 2412
ENCODING 9234
SWIDTH 600 0
DWIDTH 15 0
BBX 13 18 1 0
BITMAP
FC00
FE00
C300
C300
C300
C300
FF00
FC00
0000
01C0
03F0
0730
0630
0030
00F0
01C0
03F8
03F8
ENDCHAR
STARTCHAR 2413
ENCODING 9235
SWIDTH 600 0
DWIDTH 15 0
BBX 12 18 1 0
BITMAP
FC00
FE00
C300
C300
C300
C300
FF00
FC00
0000
07F0
07F0
0060
00C0
00F0
0030
0630
07F0
03E0
ENDCHAR
STARTCHAR 2414
ENCODING 9236
SWIDTH 600 0
DWIDTH 15 0
BBX 12 18 1 0
BITMAP
FC00
FE00
C300
C300
C300
C300
FF00
FC00
0000
0000
0060
00C0
01B0
0330
0730
07F0
07F0
0030
ENDCHAR
STARTCHAR 2415
ENCODING 9237
SWIDTH 600 0
DWIDTH 15 0
BBX 13 18 1 0
BITMAP
E300
E300
F300
DB00
DB00
CF00
CF00
C700
C300
0000
0618
0630
0660
07E0
07E0
0660
0630
0638
ENDCHAR
STARTCHAR 2416
ENCODING 9238
SWIDTH 600 0
DWIDTH 15 0
BBX 13 19 1 0
BITMAP
3800
FE00
C300
E000
7E00
0F00
C300
FF00
7E00
0000
0618
0718
0798
0798
06D8
06D8
0678
0638
0638
ENDCHAR
STARTCHAR 2417
ENCODING 9239
SWIDTH 600 0
DWIDTH 15 0
BBX 13 18 1 0
BITMAP
FF00
FF00
C000
FE00
C000
C000
FF00
FF00
0000
07E0
07F8
0618
0618
07F0
0618
0618
07F8
07F0
ENDCHAR
STARTCHAR 2418
ENCODING 9240
SWIDTH 600 0
DWIDTH 15 0
BBX 13 18 1 1
BITMAP
1C00
7E00
E300
C000
C000
C000
C300
7F00
3C00
0000
0718
0718
0798
0798
06D8
0678
0678
0638
ENDCHAR
STARTCHAR 2419
ENCODING 9241
SWIDTH 600 0
DWIDTH 15 0
BBX 13 19 1 0
BITMAP
FF00
FF00
C000
C000
FE00
C000
C000
FF00
FF00
0000
0000
0738
0738
0528
05E8
04C8
04C8
0408
0408
ENDCHAR
STARTCHAR 241A
ENCODING 9242
SWIDTH 600 0
DWIDTH 15 0
BBX 13 19 1 0
BITMAP
1800
FE00
C300
E000
7E00
0F00
C300
FF00
7E00
0000
07E0
07F8
0618
0618
07F0
0618
0618
07F8
07F0
ENDCHAR
STARTCHAR 241B
ENCODING 9243
SWIDTH 600 0
DWIDTH 15 0
BBX 13 19 1 0
BITMAP
FF00
FF00
C000
C000
FE00
C000
C000
FF00
FF00
0000
00E0
03F0
0718
0600
0600
0600
0618
03F8
01E0
ENDCHAR
STARTCHAR 241C
ENCODING 9244
SWIDTH 600 0
DWIDTH 15 0
BBX 13 18 1 0
BITMAP
FF00
FF00
C000
FE00
FE00
C000
C000
C000
0000
01C0
07F0
0618
0700
03F0
0078
0618
07F8
03F0
ENDCHAR
STARTCHAR 241D
ENCODING 9245
SWIDTH 600 0
DWIDTH 15 0
BBX 13 19 1 0
BITMAP
1C00
7E00
E300
C000
CF80
CF00
C300
7F00
3C00
0000
01C0
07F0
0618
0700
03F0
0078
0618
07F8
03F0
ENDCHAR
STARTCHAR 241E
ENCODING 9246
SWIDTH 600 0
DWIDTH 15 0
BBX 13 19 1 0
BITMAP
FC00
FF00
C300
C300
FF00
FE00
CE00
C600
C300
0000
01C0
07F0
0618
0700
03F0
0078
0618
07F8
03F0
ENDCHAR
STARTCHAR 241F
ENCODING 9247
SWIDTH 600 0
DWIDTH 15 0
BBX 13 19 1 0
BITMAP
C300
C300
C300
C300
C300
C300
C300
7E00
3C00
0000
01C0
07F0
0618
0700
03F0
0078
0618
07F8
03F0
ENDCHAR
STARTCHAR 2420
ENCODING 9248
SWIDTH 600 0
DWIDTH 15 0
BBX 13 19 1 0
BITMAP
1800
FE00
C300
E000
7E00
0F00
C300
FF00
7E00
0000
07E0
07F8
0618
0618
07F8
07F0
0600
0600
0600
ENDCHAR
STARTCHAR 2421
ENCODING 9249
SWIDTH 600 0
DWIDTH 15 0
BBX 13 18 1 0
BITMAP
FC00
FE00
C300
C300
C300
C300
FF00
FC00
0000
0000
0300
0300
0300
0300
0300
0300
03F8
03F8
ENDCHAR
STARTCHAR 2423
ENCODING 9251
SWIDTH 600 0
DWIDTH 15 0
BBX 13 5 1 -4
BITMAP
E038
E038
E038
FFF8
FFF8
ENDCHAR
STARTCHAR 2424
ENCODING 9252
SWIDTH 600 0
DWIDTH 15 0
BBX 13 19 1 0
BITMAP
C300
E300
F300
F300
DB00
DB00
CF00
C700
C700
0000
0300
0300
0300
0300
0300
0300
0300
03F8
03F8
ENDCHAR
STARTCHAR 2500
ENCODING 9472
SWIDTH 600 0
DWIDTH 15 0
BBX 17 3 -1 8
BITMAP
FFFF80
FFFF80
FFFF80
ENDCHAR
STARTCHAR 2501
ENCODING 9473
SWIDTH 600 0
DWIDTH 15 0
BBX 17 5 -1 7
BITMAP
FFFF80
FFFF80
FFFF80
FFFF80
FFFF80
ENDCHAR
STARTCHAR 2502
ENCODING 9474
SWIDTH 600 0
DWIDTH 15 0
BBX 3 38 6 -10
BITMAP
E0
E0
E0
E0
E0
E0
E0
E0
E0
E0
E0
E0
E0
E0
E0
E0
E0
E0
E0
E0
E0
E0
E0
E0
E0
E0
E0
E0
E0
E0
E0
E0
E0
E0
E0
E0
E0
E0
ENDCHAR
STARTCHAR 2503
ENCODING 9475
SWIDTH 600 0
DWIDTH 15 0
BBX 5 38 5 -10
BITMAP
F8
F8
F8
F8
F8
F8
F8
F8
F8
F8
F8
F8
F8
F8
F8
F8
F8
F8
F8
F8
F8
F8
F8
F8
F8
F8
F8
F8
F8
F8
F8
F8
F8
F8
F8
F8
F8
F8
ENDCHAR
STARTCHAR 2504
ENCODING 9476
SWIDTH 600 0
DWIDTH 15 0
BBX 13 3 1 8
BITMAP
E738
E738
E738
ENDCHAR
STARTCHAR 2505
ENCODING 9477
SWIDTH 600 0
DWIDTH 15 0
BBX 13 5 1 7
BITMAP
E738
E738
E738
E738
E738
ENDCHAR
STARTCHAR 2506
ENCODING 9478
SWIDTH 600 0
DWIDTH 15 0
BBX 3 29 6 -5
BITMAP
E0
E0
E0
E0
E0
E0
E0
E0
E0
00
E0
E0
E0
E0
E0
E0
E0
E0
E0
00
E0
E0
E0
E0
E0
E0
E0
E0
E0
ENDCHAR
STARTCHAR 2507
ENCODING 9479
SWIDTH 600 0
DWIDTH 15 0
BBX 5 29 5 -5
BITMAP
F8
F8
F8
F8
F8
F8
F8
F8
00
00
F8
F8
F8
F8
F8
F8
F8
F8
F8
00
00
F8
F8
F8
F8
F8
F8
F8
F8
ENDCHAR
STARTCHAR 2508
ENCODING 9480
SWIDTH 600 0
DWIDTH 15 0
BBX 13 3 1 8
BITMAP
DDD8
DDD8
DDD8
ENDCHAR
STARTCHAR 2509
ENCODING 9481
SWIDTH 600 0
DWIDTH 15 0
BBX 13 5 1 7
BITMAP
DDD8
DDD8
DDD8
DDD8
DDD8
ENDCHAR
STARTCHAR 250A
ENCODING 9482
SWIDTH 600 0
DWIDTH 15 0
BBX 3 28 6 -5
BITMAP
E0
E0
E0
E0
E0
00
00
00
E0
E0
E0
E0
E0
00
00
E0
E0
E0
E0
E0
00
00
00
E0
E0
E0
E0
E0
ENDCHAR
STARTCHAR 250B
ENCODING 9483
SWIDTH 600 0
DWIDTH 15 0
BBX 5 28 5 -5
BITMAP
F8
F8
F8
F8
F8
00
00
00
F8
F8
F8
F8
F8
00
00
F8
F8
F8
F8
F8
00
00
00
F8
F8
F8
F8
F8
ENDCHAR
STARTCHAR 250C
ENCODING 9484
SWIDTH 600 0
DWIDTH 15 0
BBX 10 21 6 -10
BITMAP
FFC0
FFC0
FFC0
E000
E000
E000
E000
E000
E000
E000
E000
E000
E000
E000
E000
E000
E000
E000
E000
E000
E000
ENDCHAR
STARTCHAR 250D
ENCODING 9485
SWIDTH 600 0
DWIDTH 15 0
BBX 10 21 6 -9
BITMAP
FFC0
FFC0
FFC0
FFC0
FFC0
E000
E000
E000
E000
E000
E000
E000
E000
E000
E000
E000
E000
E000
E000
E000
E000
ENDCHAR
STARTCHAR 250E
ENCODING 9486
SWIDTH 600 0
DWIDTH 15 0
BBX 11 21 5 -10
BITMAP
FFE0
FFE0
FFE0
F800
F800
F800
F800
F800
F800
F800
F800
F800
F800
F800
F800
F800
F800
F800
F800
F800
F800
ENDCHAR
STARTCHAR 250F
ENCODING 9487
SWIDTH 600 0
DWIDTH 15 0
BBX 11 21 5 -9
BITMAP
FFE0
FFE0
FFE0
FFE0
FFE0
F800
F800
F800
F800
F800
F800
F800
F800
F800
F800
F800
F800
F800
F800
F800
F800
ENDCHAR
STARTCHAR 2510
ENCODING 9488
SWIDTH 600 0
DWIDTH 15 0
BBX 10 21 -1 -10
BITMAP
FFC0
FFC0
FFC0
01C0
01C0
01C0
01C0
01C0
01C0
01C0
01C0
01C0
01C0
01C0
01C0
01C0
01C0
01C0
01C0
01C0
01C0
ENDCHAR
STARTCHAR 2511
ENCODING 9489
SWIDTH 600 0
DWIDTH 15 0
BBX 10 21 -1 -9
BITMAP
FFC0
FFC0
FFC0
FFC0
FFC0
01C0
01C0
01C0
01C0
01C0
01C0
01C0
01C0
01C0
01C0
01C0
01C0
01C0
01C0
01C0
01C0
ENDCHAR
STARTCHAR 2512
ENCODING 9490
SWIDTH 600 0
DWIDTH 15 0
BBX 11 21 -1 -10
BITMAP
FFE0
FFE0
FFE0
03E0
03E0
03E0
03E0
03E0
03E0
03E0
03E0
03E0
03E0
03E0
03E0
03E0
03E0
03E0
03E0
03E0
03E0
ENDCHAR
STARTCHAR 2513
ENCODING 9491
SWIDTH 600 0
DWIDTH 15 0
BBX 11 21 -1 -9
BITMAP
FFE0
FFE0
FFE0
FFE0
FFE0
03E0
03E0
03E0
03E0
03E0
03E0
03E0
03E0
03E0
03E0
03E0
03E0
03E0
03E0
03E0
03E0
ENDCHAR
STARTCHAR 2514
ENCODING 9492
SWIDTH 600 0
DWIDTH 15 0
BBX 10 20 6 8
BITMAP
E000
E000
E000
E000
E000
E000
E000
E000
E000
E000
E000
E000
E000
E000
E000
E000
E000
FFC0
FFC0
FFC0
ENDCHAR
STARTCHAR 2515
ENCODING 9493
SWIDTH 600 0
DWIDTH 15 0
BBX 10 22 6 7
BITMAP
E000
E000
E000
E000
E000
E000
E000
E000
E000
E000
E000
E000
E000
E000
E000
E000
E000
FFC0
FFC0
FFC0
FFC0
FFC0
ENDCHAR
STARTCHAR 2516
ENCODING 9494
SWIDTH 600 0
DWIDTH 15 0
BBX 11 20 5 8
BITMAP
F800
F800
F800
F800
F800
F800
F800
F800
F800
F800
F800
F800
F800
F800
F800
F800
F800
FFE0
FFE0
FFE0
ENDCHAR
STARTCHAR 2517
ENCODING 9495
SWIDTH 600 0
DWIDTH 15 0
BBX 11 22 5 7
BITMAP
F800
F800
F800
F800
F800
F800
F800
F800
F800
F800
F800
F800
F800
F800
F800
F800
F800
FFE0
FFE0
FFE0
FFE0
FFE0
ENDCHAR
STARTCHAR 2518
ENCODING 9496
SWIDTH 600 0
DWIDTH 15 0
BBX 10 20 -1 8
BITMAP
01C0
01C0
01C0
01C0
01C0
01C0
01C0
01C0
01C0
01C0
01C0
01C0
01C0
01C0
01C0
01C0
01C0
FFC0
FFC0
FFC0
ENDCHAR
STARTCHAR 2519
ENCODING 9497
SWIDTH 600 0
DWIDTH 15 0
BBX 10 22 -1 7
BITMAP
01C0
01C0
01C0
01C0
01C0
01C0
01C0
01C0
01C0
01C0
01C0
01C0
01C0
01C0
01C0
01C0
01C0
FFC0
FFC0
FFC0
FFC0
FFC0
ENDCHAR
STARTCHAR 251A
ENCODING 9498
SWIDTH 600 0
DWIDTH 15 0
BBX 11 20 -1 8
BITMAP
03E0
03E0
03E0
03E0
03E0
03E0
03E0
03E0
03E0
03E0
03E0
03E0
03E0
03E0
03E0
03E0
03E0
FFE0
FFE0
FFE0
ENDCHAR
STARTCHAR 251B
ENCODING 9499
SWIDTH 600 0
DWIDTH 15 0
BBX 11 22 -1 7
BITMAP
03E0
03E0
03E0
03E0
03E0
03E0
03E0
03E0
03E0
03E0
03E0
03E0
03E0
03E0
03E0
03E0
03E0
FFE0
FFE0
FFE0
FFE0
FFE0
ENDCHAR
STARTCHAR 251C
ENCODING 9500
SWIDTH 600 0
DWIDTH 15 0
BBX 10 38 6 -10
BITMAP
E000
E000
E000
E000
E000
E000
E000
E000
E000
E000
E000
E000
E000
E000
E000
E000
E000
FFC0
FFC0
FFC0
E000
E000
E000
E000
E000
E000
E000
E000
E000
E000
E000
E000
E000
E000
E000
E000
E000
E000
ENDCHAR
STARTCHAR 251D
ENCODING 9501
SWIDTH 600 0
DWIDTH 15 0
BBX 10 38 6 -9
BITMAP
E000
E000
E000
E000
E000
E000
E000
E000
E000
E000
E000
E000
E000
E000
E000
E000
E000
FFC0
FFC0
FFC0
FFC0
FFC0
E000
E000
E000
E000
E000
E000
E000
E000
E000
E000
E000
E000
E000
E000
E000
E000
ENDCHAR
STARTCHAR 251E
ENCODING 9502
SWIDTH 600 0
DWIDTH 15 0
BBX 11 38 5 -10
BITMAP
F800
F800
F800
F800
F800
F800
F800
F800
F800
F800
F800
F800
F800
F800
F800
F800
F800
FFE0
FFE0
FFE0
7000
7000
7000
7000
7000
7000
7000
7000
7000
7000
7000
7000
7000
7000
7000
7000
7000
7000
ENDCHAR
STARTCHAR 251F
ENCODING 9503
SWIDTH 600 0
DWIDTH 15 0
BBX 11 38 5 -10
BITMAP
7000
7000
7000
7000
7000
7000
7000
7000
7000
7000
7000
7000
7000
7000
7000
7000
7000
7FE0
FFE0
FFE0
F800
F800
F800
F800
F800
F800
F800
F800
F800
F800
F800
F800
F800
F800
F800
F800
F800
F800
ENDCHAR
STARTCHAR 2520
ENCODING 9504
SWIDTH 600 0
DWIDTH 15 0
BBX 11 38 5 -10
BITMAP
F800
F800
F800
F800
F800
F800
F800
F800
F800
F800
F800
F800
F800
F800
F800
F800
F800
FFE0
FFE0
FFE0
F800
F800
F800
F800
F800
F800
F800
F800
F800
F800
F800
F800
F800
F800
F800
F800
F800
F800
ENDCHAR
STARTCHAR 2521
ENCODING 9505
SWIDTH 600 0
DWIDTH 15 0
BBX 11 38 5 -9
BITMAP
F800
F800
F800
F800
F800
F800
F800
F800
F800
F800
F800
F800
F800
F800
F800
F800
F800
FFE0
FFE0
FFE0
FFE0
FFE0
7000
7000
7000
7000
7000
7000
7000
7000
7000
7000
7000
7000
7000
7000
7000
7000
ENDCHAR
STARTCHAR 2522
ENCODING 9506
SWIDTH 600 0
DWIDTH 15 0
BBX 11 38 5 -9
BITMAP
7000
7000
7000
7000
7000
7000
7000
7000
7000
7000
7000
7000
7000
7000
7000
7000
7000
FFE0
FFE0
FFE0
FFE0
FFE0
F800
F800
F800
F800
F800
F800
F800
F800
F800
F800
F800
F800
F800
F800
F800
F800
ENDCHAR
STARTCHAR 2523
ENCODING 9507
SWIDTH 600 0
DWIDTH 15 0
BBX 11 38 5 -9
BITMAP
F800
F800
F800
F800
F800
F800
F800
F800
F800
F800
F800
F800
F800
F800
F800
F800
F800
FFE0
FFE0
FFE0
FFE0
FFE0
F800
F800
F800
F800
F800
F800
F800
F800
F800
F800
F800
F800
F800
F800
F800
F800
ENDCHAR
STARTCHAR 2524
ENCODING 9508
SWIDTH 600 0
DWIDTH 15 0
BBX 10 38 -1 -10
BITMAP
01C0
01C0
01C0
01C0
01C0
01C0
01C0
01C0
01C0
01C0
01C0
01C0
01C0
01C0
01C0
01C0
01C0
01C0
FFC0
FFC0
01C0
01C0
01C0
01C0
01C0
01C0
01C0
01C0
01C0
01C0
01C0
01C0
01C0
01C0
01C0
01C0
01C0
01C0
ENDCHAR
STARTCHAR 2525
ENCODING 9509
SWIDTH 600 0
DWIDTH 15 0
BBX 10 38 -1 -9
BITMAP
01C0
01C0
01C0
01C0
01C0
01C0
01C0
01C0
01C0
01C0
01C0
01C0
01C0
01C0
01C0
01C0
01C0
FFC0
FFC0
FFC0
FFC0
FFC0
01C0
01C0
01C0
01C0
01C0
01C0
01C0
01C0
01C0
01C0
01C0
01C0
01C0
01C0
01C0
01C0
ENDCHAR
STARTCHAR 2526
ENCODING 9510
SWIDTH 600 0
DWIDTH 15 0
BBX 11 38 -1 -10
BITMAP
03E0
03E0
03E0
03E0
03E0
03E0
03E0
03E0
03E0
03E0
03E0
03E0
03E0
03E0
03E0
03E0
03E0
03E0
FFE0
FFE0
01C0
01C0
01C0
01C0
01C0
01C0
01C0
01C0
01C0
01C0
01C0
01C0
01C0
01C0
01C0
01C0
01C0
01C0
ENDCHAR
STARTCHAR 2527
ENCODING 9511
SWIDTH 600 0
DWIDTH 15 0
BBX 11 36 -1 -10
BITMAP
01C0
01C0
01C0
01C0
01C0
01C0
01C0
01C0
01C0
01C0
01C0
01C0
01C0
01C0
01C0
01E0
FFE0
FFE0
03E0
03E0
03E0
03E0
03E0
03E0
03E0
03E0
03E0
03E0
03E0
03E0
03E0
03E0
03E0
03E0
03E0
03E0
ENDCHAR
STARTCHAR 2528
ENCODING 9512
SWIDTH 600 0
DWIDTH 15 0
BBX 11 38 -1 -10
BITMAP
03E0
03E0
03E0
03E0
03E0
03E0
03E0
03E0
03E0
03E0
03E0
03E0
03E0
03E0
03E0
03E0
03E0
03E0
FFE0
FFE0
03E0
03E0
03E0
03E0
03E0
03E0
03E0
03E0
03E0
03E0
03E0
03E0
03E0
03E0
03E0
03E0
03E0
03E0
ENDCHAR
STARTCHAR 2529
ENCODING 9513
SWIDTH 600 0
DWIDTH 15 0
BBX 11 38 -1 -9
BITMAP
03E0
03E0
03E0
03E0
03E0
03E0
03E0
03E0
03E0
03E0
03E0
03E0
03E0
03E0
03E0
03E0
03E0
FFE0
FFE0
FFE0
FFE0
FFE0
01C0
01C0
01C0
01C0
01C0
01C0
01C0
01C0
01C0
01C0
01C0
01C0
01C0
01C0
01C0
01C0
ENDCHAR
STARTCHAR 252A
ENCODING 9514
SWIDTH 600 0
DWIDTH 15 0
BBX 11 38 -1 -9
BITMAP
01C0
01C0
01C0
01C0
01C0
01C0
01C0
01C0
01C0
01C0
01C0
01C0
01C0
01C0
01C0
01C0
01C0
FFE0
FFE0
FFE0
FFE0
FFE0
03E0
03E0
03E0
03E0
03E0
03E0
03E0
03E0
03E0
03E0
03E0
03E0
03E0
03E0
03E0
03E0
ENDCHAR
STARTCHAR 252B
ENCODING 9515
SWIDTH 600 0
DWIDTH 15 0
BBX 11 38 -1 -9
BITMAP
03E0
03E0
03E0
03E0
03E0
03E0
03E0
03E0
03E0
03E0
03E0
03E0
03E0
03E0
03E0
03E0
03E0
FFE0
FFE0
FFE0
FFE0
FFE0
03E0
03E0
03E0
03E0
03E0
03E0
03E0
03E0
03E0
03E0
03E0
03E0
03E0
03E0
03E0
03E0
ENDCHAR
STARTCHAR 252C
ENCODING 9516
SWIDTH 600 0
DWIDTH 15 0
BBX 17 21 -1 -10
BITMAP
FFFF80
FFFF80
FFFF80
01C000
01C000
01C000
01C000
01C000
01C000
01C000
01C000
01C000
01C000
01C000
01C000
01C000
01C000
01C000
01C000
01C000
01C000
ENDCHAR
STARTCHAR 252D
ENCODING 9517
SWIDTH 600 0
DWIDTH 15 0
BBX 17 21 -1 -9
BITMAP
FFC000
FFFF80
FFFF80
FFC000
FFC000
01C000
01C000
01C000
01C000
01C000
01C000
01C000
01C000
01C000
01C000
01C000
01C000
01C000
01C000
01C000
01C000
ENDCHAR
STARTCHAR 252E
ENCODING 9518
SWIDTH 600 0
DWIDTH 15 0
BBX 17 21 -1 -9
BITMAP
01FF80
FFFF80
FFFF80
FFFF80
01FF80
01C000
01C000
01C000
01C000
01C000
01C000
01C000
01C000
01C000
01C000
01C000
01C000
01C000
01C000
01C000
01C000
ENDCHAR
STARTCHAR 252F
ENCODING 9519
SWIDTH 600 0
DWIDTH 15 0
BBX 17 21 -1 -9
BITMAP
FFFF80
FFFF80
FFFF80
FFFF80
FFFF80
01C000
01C000
01C000
01C000
01C000
01C000
01C000
01C000
01C000
01C000
01C000
01C000
01C000
01C000
01C000
01C000
ENDCHAR
STARTCHAR 2530
ENCODING 9520
SWIDTH 600 0
DWIDTH 15 0
BBX 17 21 -1 -10
BITMAP
FFFF80
FFFF80
FFFF80
03E000
03E000
03E000
03E000
03E000
03E000
03E000
03E000
03E000
03E000
03E000
03E000
03E000
03E000
03E000
03E000
03E000
03E000
ENDCHAR
STARTCHAR 2531
ENCODING 9521
SWIDTH 600 0
DWIDTH 15 0
BBX 17 21 -1 -9
BITMAP
FFE000
FFFF80
FFFF80
FFE000
FFE000
03E000
03E000
03E000
03E000
03E000
03E000
03E000
03E000
03E000
03E000
03E000
03E000
03E000
03E000
03E000
03E000
ENDCHAR
STARTCHAR 2532
ENCODING 9522
SWIDTH 600 0
DWIDTH 15 0
BBX 17 21 -1 -9
BITMAP
03FF80
FFFF80
FFFF80
FFFF80
03FF80
03E000
03E000
03E000
03E000
03E000
03E000
03E000
03E000
03E000
03E000
03E000
03E000
03E000
03E000
03E000
03E000
ENDCHAR
STARTCHAR 2533
ENCODING 9523
SWIDTH 600 0
DWIDTH 15 0
BBX 17 21 -1 -9
BITMAP
FFFF80
FFFF80
FFFF80
FFFF80
FFFF80
03E000
03E000
03E000
03E000
03E000
03E000
03E000
03E000
03E000
03E000
03E000
03E000
03E000
03E000
03E000
03E000
ENDCHAR
STARTCHAR 2534
ENCODING 9524
SWIDTH 600 0
DWIDTH 15 0
BBX 17 20 -1 8
BITMAP
01C000
01C000
01C000
01C000
01C000
01C000
01C000
01C000
01C000
01C000
01C000
01C000
01C000
01C000
01C000
01C000
01C000
FFFF80
FFFF80
FFFF80
ENDCHAR
STARTCHAR 2535
ENCODING 9525
SWIDTH 600 0
DWIDTH 15 0
BBX 17 22 -1 7
BITMAP
01C000
01C000
01C000
01C000
01C000
01C000
01C000
01C000
01C000
01C000
01C000
01C000
01C000
01C000
01C000
01C000
01C000
FFC000
FFFF80
FFFF80
FFFF80
FFC000
ENDCHAR
STARTCHAR 2536
ENCODING 9526
SWIDTH 600 0
DWIDTH 15 0
BBX 17 22 -1 7
BITMAP
01C000
01C000
01C000
01C000
01C000
01C000
01C000
01C000
01C000
01C000
01C000
01C000
01C000
01C000
01C000
01C000
01C000
01FF80
FFFF80
FFFF80
FFFF80
01FF80
ENDCHAR
STARTCHAR 2537
ENCODING 9527
SWIDTH 600 0
DWIDTH 15 0
BBX 17 22 -1 7
BITMAP
01C000
01C000
01C000
01C000
01C000
01C000
01C000
01C000
01C000
01C000
01C000
01C000
01C000
01C000
01C000
01C000
01C000
FFFF80
FFFF80
FFFF80
FFFF80
FFFF80
ENDCHAR
STARTCHAR 2538
ENCODING 9528
SWIDTH 600 0
DWIDTH 15 0
BBX 17 20 -1 8
BITMAP
03E000
03E000
03E000
03E000
03E000
03E000
03E000
03E000
03E000
03E000
03E000
03E000
03E000
03E000
03E000
03E000
03E000
FFFF80
FFFF80
FFFF80
ENDCHAR
STARTCHAR 2539
ENCODING 9529
SWIDTH 600 0
DWIDTH 15 0
BBX 17 22 -1 7
BITMAP
03E000
03E000
03E000
03E000
03E000
03E000
03E000
03E000
03E000
03E000
03E000
03E000
03E000
03E000
03E000
03E000
03E000
FFE000
FFFF80
FFFF80
FFFF80
FFE000
ENDCHAR
STARTCHAR 253A
ENCODING 9530
SWIDTH 600 0
DWIDTH 15 0
BBX 17 22 -1 7
BITMAP
03E000
03E000
03E000
03E000
03E000
03E000
03E000
03E000
03E000
03E000
03E000
03E000
03E000
03E000
03E000
03E000
03E000
03FF80
FFFF80
FFFF80
FFFF80
03FF80
ENDCHAR
STARTCHAR 253B
ENCODING 9531
SWIDTH 600 0
DWIDTH 15 0
BBX 17 22 -1 7
BITMAP
03E000
03E000
03E000
03E000
03E000
03E000
03E000
03E000
03E000
03E000
03E000
03E000
03E000
03E000
03E000
03E000
03E000
FFFF80
FFFF80
FFFF80
FFFF80
FFFF80
ENDCHAR
STARTCHAR 253C
ENCODING 9532
SWIDTH 600 0
DWIDTH 15 0
BBX 17 38 -1 -10
BITMAP
01C000
01C000
01C000
01C000
01C000
01C000
01C000
01C000
01C000
01C000
01C000
01C000
01C000
01C000
01C000
01C000
01C000
01FF80
FFFF80
FFFF80
01C000
01C000
01C000
01C000
01C000
01C000
01C000
01C000
01C000
01C000
01C000
01C000
01C000
01C000
01C000
01C000
01C000
01C000
ENDCHAR
STARTCHAR 253D
ENCODING 9533
SWIDTH 600 0
DWIDTH 15 0
BBX 17 38 -1 -9
BITMAP
01C000
01C000
01C000
01C000
01C000
01C000
01C000
01C000
01C000
01C000
01C000
01C000
01C000
01C000
01C000
01C000
01C000
FFC000
FFFF80
FFFF80
FFC000
FFC000
01C000
01C000
01C000
01C000
01C000
01C000
01C000
01C000
01C000
01C000
01C000
01C000
01C000
01C000
01C000
01C000
ENDCHAR
STARTCHAR 253E
ENCODING 9534
SWIDTH 600 0
DWIDTH 15 0
BBX 17 38 -1 -9
BITMAP
01C000
01C000
01C000
01C000
01C000
01C000
01C000
01C000
01C000
01C000
01C000
01C000
01C000
01C000
01C000
01C000
01C000
01FF80
FFFF80
FFFF80
FFFF80
01FF80
01C000
01C000
01C000
01C000
01C000
01C000
01C000
01C000
01C000
01C000
01C000
01C000
01C000
01C000
01C000
01C000
ENDCHAR
STARTCHAR 253F
ENCODING 9535
SWIDTH 600 0
DWIDTH 15 0
BBX 17 38 -1 -9
BITMAP
01C000
01C000
01C000
01C000
01C000
01C000
01C000
01C000
01C000
01C000
01C000
01C000
01C000
01C000
01C000
01C000
01C000
FFFF80
FFFF80
FFFF80
FFFF80
FFFF80
01C000
01C000
01C000
01C000
01C000
01C000
01C000
01C000
01C000
01C000
01C000
01C000
01C000
01C000
01C000
01C000
ENDCHAR
STARTCHAR 2540
ENCODING 9536
SWIDTH 600 0
DWIDTH 15 0
BBX 17 38 -1 -10
BITMAP
03E000
03E000
03E000
03E000
03E000
03E000
03E000
03E000
03E000
03E000
03E000
03E000
03E000
03E000
03E000
03E000
03E000
03FF80
FFFF80
FFFF80
01C000
01C000
01C000
01C000
01C000
01C000
01C000
01C000
01C000
01C000
01C000
01C000
01C000
01C000
01C000
01C000
01C000
01C000
ENDCHAR
STARTCHAR 2541
ENCODING 9537
SWIDTH 600 0
DWIDTH 15 0
BBX 17 38 -1 -10
BITMAP
01C000
01C000
01C000
01C000
01C000
01C000
01C000
01C000
01C000
01C000
01C000
01C000
01C000
01C000
01C000
01C000
01C000
01FF80
FFFF80
FFFF80
03E000
03E000
03E000
03E000
03E000
03E000
03E000
03E000
03E000
03E000
03E000
03E000
03E000
03E000
03E000
03E000
03E000
03E000
ENDCHAR
STARTCHAR 2542
ENCODING 9538
SWIDTH 600 0
DWIDTH 15 0
BBX 17 38 -1 -10
BITMAP
03E000
03E000
03E000
03E000
03E000
03E000
03E000
03E000
03E000
03E000
03E000
03E000
03E000
03E000
03E000
03E000
03E000
03FF80
FFFF80
FFFF80
03E000
03E000
03E000
03E000
03E000
03E000
03E000
03E000
03E000
03E000
03E000
03E000
03E000
03E000
03E000
03E000
03E000
03E000
ENDCHAR
STARTCHAR 2543
ENCODING 9539
SWIDTH 600 0
DWIDTH 15 0
BBX 17 38 -1 -9
BITMAP
03E000
03E000
03E000
03E000
03E000
03E000
03E000
03E000
03E000
03E000
03E000
03E000
03E000
03E000
03E000
03E000
03E000
FFE000
FFFF80
FFFF80
FFE000
FFE000
01C000
01C000
01C000
01C000
01C000
01C000
01C000
01C000
01C000
01C000
01C000
01C000
01C000
01C000
01C000
01C000
ENDCHAR
STARTCHAR 2544
ENCODING 9540
SWIDTH 600 0
DWIDTH 15 0
BBX 17 38 -1 -9
BITMAP
03E000
03E000
03E000
03E000
03E000
03E000
03E000
03E000
03E000
03E000
03E000
03E000
03E000
03E000
03E000
03E000
03E000
03FF80
FFFF80
FFFF80
FFFF80
03FF80
01C000
01C000
01C000
01C000
01C000
01C000
01C000
01C000
01C000
01C000
01C000
01C000
01C000
01C000
01C000
01C000
ENDCHAR
STARTCHAR 2545
ENCODING 9541
SWIDTH 600 0
DWIDTH 15 0
BBX 17 38 -1 -9
BITMAP
01C000
01C000
01C000
01C000
01C000
01C000
01C000
01C000
01C000
01C000
01C000
01C000
01C000
01C000
01C000
01C000
01C000
FFE000
FFFF80
FFFF80
FFE000
FFE000
03E000
03E000
03E000
03E000
03E000
03E000
03E000
03E000
03E000
03E000
03E000
03E000
03E000
03E000
03E000
03E000
ENDCHAR
STARTCHAR 2546
ENCODING 9542
SWIDTH 600 0
DWIDTH 15 0
BBX 17 38 -1 -9
BITMAP
01C000
01C000
01C000
01C000
01C000
01C000
01C000
01C000
01C000
01C000
01C000
01C000
01C000
01C000
01C000
01C000
01C000
03FF80
FFFF80
FFFF80
FFFF80
03FF80
03E000
03E000
03E000
03E000
03E000
03E000
03E000
03E000
03E000
03E000
03E000
03E000
03E000
03E000
03E000
03E000
ENDCHAR
STARTCHAR 2547
ENCODING 9543
SWIDTH 600 0
DWIDTH 15 0
BBX 17 38 -1 -9
BITMAP
03E000
03E000
03E000
03E000
03E000
03E000
03E000
03E000
03E000
03E000
03E000
03E000
03E000
03E000
03E000
03E000
03E000
FFFF80
FFFF80
FFFF80
FFFF80
FFFF80
01C000
01C000
01C000
01C000
01C000
01C000
01C000
01C000
01C000
01C000
01C000
01C000
01C000
01C000
01C000
01C000
ENDCHAR
STARTCHAR 2548
ENCODING 9544
SWIDTH 600 0
DWIDTH 15 0
BBX 17 38 -1 -9
BITMAP
01C000
01C000
01C000
01C000
01C000
01C000
01C000
01C000
01C000
01C000
01C000
01C000
01C000
01C000
01C000
01C000
01C000
FFFF80
FFFF80
FFFF80
FFFF80
FFFF80
03E000
03E000
03E000
03E000
03E000
03E000
03E000
03E000
03E000
03E000
03E000
03E000
03E000
03E000
03E000
03E000
ENDCHAR
ENDFONT
